<?xml version="1.0" encoding="UTF-8" standalone="no"?>
<!DOCTYPE svg PUBLIC "-//W3C//DTD SVG 1.1//EN" "http://www.w3.org/Graphics/SVG/1.1/DTD/svg11.dtd">
<svg xmlns="http://www.w3.org/2000/svg">
<metadata/>
<defs>
<font id="pf_square_sans_promedium" horiz-adv-x="1175">
<font-face units-per-em="2048" ascent="1536" descent="-512"/>
<missing-glyph horiz-adv-x="575"/>
<glyph unicode=" " horiz-adv-x="575"/>
<glyph unicode="	" horiz-adv-x="575"/>
<glyph unicode=" " horiz-adv-x="575"/>
<glyph unicode="!" horiz-adv-x="520" d="M137 98q0 57 26 87t95 30q71 0 96 -29t25 -88q0 -56 -25.5 -88.5t-95.5 -32.5q-39 0 -64.5 9.5t-37 28.5t-15.5 37.5t-4 45.5zM156 1319q0 23 8 31t29 8h143q19 0 27 -8.5t8 -30.5l-27 -918q-1 -20 -8.5 -28t-22.5 -8h-100q-19 0 -26 8t-7 28z"/>
<glyph unicode="&quot;" horiz-adv-x="655" d="M115 1331q0 27 30 27h121q16 0 22.5 -9t6.5 -18l-23 -383q0 -22 -26 -22h-88q-21 0 -21 22zM360 1331q0 27 31 27h123q25 0 25 -27l-19 -383q-4 -22 -26 -22h-88q-25 0 -25 22z"/>
<glyph unicode="#" horiz-adv-x="1204" d="M47 492l23 90q4 17 13 23.5t28 6.5h217l49 201h-219q-17 0 -24 6t-3 23l25 86q6 18 14.5 24t26.5 6h217l88 367q5 19 11 25t24 6h106q33 0 25 -35l-88 -363h200l90 367q5 19 11 25t24 6h107q31 0 26 -31l-92 -367h225q19 0 26 -6.5t3 -23.5l-22 -86q-10 -29 -37 -29h-230 l-51 -201h227q19 0 25 -7.5t2 -24.5l-22 -86q-5 -16 -12.5 -22.5t-24.5 -6.5h-230l-106 -434q-9 -31 -31 -31h-104q-38 0 -29 35l104 430h-202l-107 -434q-6 -31 -28 -31h-107q-35 0 -29 35l107 430h-221q-34 0 -25 27zM494 612h202l49 201h-202z"/>
<glyph unicode="$" d="M127 117l16 82q6 22 17 27.5t39 2.5q247 -28 360 -28q260 0 260 176q0 54 -11 88.5t-41 58.5t-72 37.5t-115 26.5q-60 11 -101.5 20.5t-93 25.5t-85.5 34t-69.5 46.5t-56.5 62.5t-34 81.5t-13 104.5q0 169 99 268.5t280 116.5v165q0 25 29 25h106q25 0 25 -27v-161 q200 -14 299 -54q31 -11 38 -24t3 -37l-19 -78q-4 -24 -16.5 -31t-42.5 -4q-202 27 -332 27q-124 0 -179 -45.5t-55 -132.5q0 -32 5 -55.5t19.5 -41t29.5 -28.5t48 -21t60 -16t80 -16q61 -11 100.5 -19.5t91.5 -25t85.5 -35t69.5 -48t56.5 -66.5t34 -89t13.5 -115 q0 -95 -29.5 -167t-84 -117.5t-122.5 -71t-153 -35.5v-174q0 -25 -25 -25h-106q-29 0 -29 23v170q-229 13 -338 57q-31 11 -38.5 25t-2.5 37z"/>
<glyph unicode="%" horiz-adv-x="1802" d="M53 942q0 34 2 64t10 76t21.5 83t39.5 77.5t61 68t89 45.5t121 18q68 0 122.5 -14t91.5 -37t64 -58t42.5 -70.5t24.5 -82t11.5 -85t2.5 -85.5q0 -43 -2 -78.5t-10 -85t-22.5 -88t-41.5 -79.5t-64 -68t-93 -44.5t-126 -17.5q-68 0 -122.5 16.5t-90 41.5t-61 65.5t-39 77 t-21 88.5t-9 87.5t-1.5 84.5zM242 928q0 -55 3 -93.5t12.5 -77.5t26 -62.5t45 -38.5t68.5 -15q53 0 87.5 20.5t52 62t24 89t6.5 115.5q0 61 -3 101t-13 78.5t-28.5 60.5t-49.5 35.5t-76 13.5q-39 0 -67.5 -15.5t-45.5 -40t-26.5 -64t-12.5 -78.5t-3 -91zM541 -16l565 1423 q12 27 33 27h116q11 0 16 -9t1 -22l-563 -1426q-9 -24 -31 -24h-117q-13 0 -19 8.5t-1 22.5zM1044 446q0 34 2 64.5t10 76.5t21.5 84t40 78.5t62 68t90 45.5t121.5 18q68 0 122.5 -14t91.5 -37t64 -58.5t42 -71t24 -82.5t11.5 -85.5t2.5 -86.5q0 -43 -2 -78t-10.5 -84.5 t-22.5 -88t-41 -79t-64 -67.5t-92.5 -44t-125.5 -17q-69 0 -123.5 16.5t-90.5 41.5t-62 65t-39.5 76.5t-21 87.5t-9 87t-1.5 84zM1235 434q0 -54 3 -93t12.5 -78t26.5 -63t45.5 -38.5t68.5 -14.5q52 0 86.5 20.5t52.5 61.5t24.5 89t6.5 116q0 59 -3 99.5t-13.5 79t-29 61 t-49.5 36t-75 13.5q-49 0 -81.5 -21.5t-48 -65t-21 -89.5t-5.5 -113z"/>
<glyph unicode="&amp;" horiz-adv-x="1464" d="M78 362q0 134 82.5 249.5t234.5 203.5q-44 66 -69 135.5t-25 116.5q0 136 86 224.5t236 88.5q141 0 228 -80t87 -202q0 -205 -266 -344q147 -221 321 -389q177 186 213 446q5 28 11.5 34.5t33.5 6.5h92q27 -1 36 -13t7 -42q-8 -152 -84 -311t-167 -253q126 -111 260 -188 q18 -10 19.5 -20.5t-11.5 -28.5l-49 -86q-24 -30 -62 -14q-62 29 -152 91t-161 124q-203 -134 -449 -134q-95 0 -175.5 22.5t-143 68t-98 121t-35.5 173.5zM283 373q0 -112 69 -166.5t180 -54.5q156 -3 306 94q-90 87 -186.5 206t-155.5 210q-213 -125 -213 -289zM500 1077 q0 -72 71 -172q80 43 122 86.5t42 100.5q0 49 -34 81.5t-85 32.5q-56 0 -86 -40.5t-30 -88.5z"/>
<glyph unicode="'" horiz-adv-x="440" d="M127 1331q0 27 29 27h123q26 0 26 -27l-20 -383q0 -22 -27 -22h-88q-23 0 -23 22z"/>
<glyph unicode="(" horiz-adv-x="636" d="M117 631q0 423 276 805q13 19 26.5 20.5t29.5 -8.5l73 -43q20 -11 23 -21t-10 -32q-193 -308 -193 -721q0 -236 54 -429.5t139 -330.5q13 -22 10 -32t-23 -21l-71 -41q-18 -12 -31.5 -10.5t-26.5 20.5q-276 377 -276 844z"/>
<glyph unicode=")" horiz-adv-x="641" d="M113.5 -161q-2.5 10 9.5 32q85 136 138.5 329.5t53.5 430.5q0 415 -192 721q-12 22 -9.5 32t21.5 21l74 43q16 10 29.5 8.5t27.5 -20.5q275 -387 275 -805q0 -469 -275 -844q-14 -19 -27.5 -20.5t-31.5 10.5l-72 41q-19 11 -21.5 21z"/>
<glyph unicode="*" horiz-adv-x="784" d="M88.5 1149.5q-2.5 9.5 7.5 30.5l25 45q11 20 23 21.5t30 -9.5l145 -70l9 160q2 20 8 25.5t31 5.5h61q23 0 31 -7t10 -26l6 -158l150 72q17 10 25.5 8.5t19.5 -20.5l28 -45q16 -24 -2 -39l-147 -96l141 -97q18 -12 19.5 -21.5t-11.5 -27.5l-24 -43q-11 -16 -22 -18t-29 6 l-146 78l-10 -158q-2 -22 -7 -27.5t-28 -5.5h-70q-20 0 -24.5 5t-7.5 28l-11 158l-147 -72q-32 -16 -45 10l-33 49q-14 24 15 41l133 95l-136 81q-15 12 -17.5 21.5z"/>
<glyph unicode="+" d="M160 612v105q0 18 7.5 25.5t25.5 7.5h299v290q0 19 7 27t27 8h127q33 0 33 -35v-290h295q20 0 27.5 -7t7.5 -26v-105q0 -18 -7.5 -25t-27.5 -7h-295v-308q0 -34 -31 -34h-129q-20 0 -27 7t-7 27v308h-299q-33 0 -33 32z"/>
<glyph unicode="," horiz-adv-x="438" d="M60.5 -234.5q1.5 9.5 19.5 27.5q67 62 67 148q0 72 -49 131q-18 18 -18 33.5t24 31.5l105 80q24 15 38 12t34 -20q34 -31 52.5 -74t18.5 -82q0 -120 -54.5 -212t-133.5 -140q-33 -18 -55 4l-37 37q-13 14 -11.5 23.5z"/>
<glyph unicode="-" horiz-adv-x="794" d="M68 606v105q0 18 8 25t26 7h594q19 0 27 -7t8 -25v-105q0 -18 -8 -25.5t-27 -7.5h-594q-34 0 -34 33z"/>
<glyph unicode="." horiz-adv-x="421" d="M84 104q0 57 27.5 89t97.5 32q71 0 98 -31t27 -90q0 -55 -27 -88.5t-98 -33.5q-75 0 -100 32.5t-25 89.5z"/>
<glyph unicode="/" horiz-adv-x="581" d="M20 -94q25 108 177 743t178 740q6 30 37 30h120q30 0 23 -39l-350 -1480q-6 -29 -35 -29h-123q-36 0 -27 35z"/>
<glyph unicode="0" d="M80 698q0 53 2.5 100.5t14.5 119.5t32 130.5t58.5 122t90 106.5t131.5 71t179 28q98 0 177.5 -22t133 -58t93 -91.5t62 -111t35.5 -128t17 -133t4 -134.5q0 -67 -3 -121.5t-15 -132t-32.5 -137.5t-60 -123.5t-93 -105.5t-135 -69t-183.5 -27q-79 0 -145 15.5t-114.5 41 t-87.5 65.5t-64.5 81t-44 96t-28.5 102t-15.5 108.5t-7 105.5t-1.5 101zM315 678q0 -77 4 -135.5t14 -118t29.5 -100.5t49 -74t74 -49.5t102.5 -16.5q71 0 123 24.5t83.5 66t50.5 106.5t25.5 134.5t6.5 162.5q0 102 -6 172.5t-23.5 136.5t-49 104.5t-84 61.5t-126.5 23 q-58 0 -102 -17.5t-73.5 -51.5t-49.5 -76.5t-30 -102t-14 -117.5t-4 -133z"/>
<glyph unicode="1" d="M223 35v129q0 35 35 35h234v919h-213q-21 0 -29 6t-8 25v70q0 41 28 51l189 69q43 21 100 21h121q25 0 33 -9.5t8 -31.5v-1120h254q35 0 35 -35v-129q0 -19 -7.5 -27t-27.5 -8h-717q-35 0 -35 35z"/>
<glyph unicode="2" d="M96 35v117q0 40 27 67q268 254 315 303q122 113 207 203q66 65 100.5 124t34.5 128q0 54 -9 86.5t-36 57.5t-76.5 35.5t-128.5 10.5q-153 0 -348 -26q-27 -3 -37.5 4t-15.5 29l-14 81q-4 23 3 37.5t38 26.5q72 29 185 42t194 13q133 0 227 -25t149 -74.5t80 -116.5 t25 -157t-21.5 -158t-60 -121.5t-111.5 -127.5q-136 -138 -405 -389l4 -6h584q19 0 26.5 -8t7.5 -27v-129q0 -35 -32 -35h-877q-20 0 -27.5 8t-7.5 27z"/>
<glyph unicode="3" d="M94 104l15 80q5 21 16.5 29t38.5 4q226 -31 342 -31q56 0 97 5.5t83.5 23t69.5 48t44 84t17 126.5q0 67 -25 99t-90 44l-311 60q-28 4 -38.5 16.5t-10.5 38.5v68q0 42 23 65l319 291l-2 4h-530q-37 0 -37 37v127q0 33 35 33h808q41 0 41 -37v-107q0 -27 -9 -46.5 t-34 -43.5l-297 -274v-6l134 -27q124 -24 193 -105.5t69 -220.5q0 -118 -25.5 -206.5t-71 -145t-115.5 -91t-150.5 -48.5t-184.5 -14q-78 0 -191 14t-182 41q-31 13 -38.5 27t-2.5 38z"/>
<glyph unicode="4" d="M39 377v117q0 33 20 59l641 772q24 31 68 31h147q33 0 33 -31v-786h152q18 0 25.5 -7.5t7.5 -25.5v-131q0 -35 -33 -35l-152 -2v-301q0 -37 -37 -37h-153q-35 0 -35 35v303l-643 2q-41 0 -41 37zM305 537h420v507l-6 3l-412 -504z"/>
<glyph unicode="5" d="M104 104l15 80q5 21 16.5 29t38.5 4q211 -29 340 -29q56 0 96.5 5.5t81.5 23.5t66 48.5t41 83t16 124.5q0 71 -42 107.5t-126 50.5l-450 76q-38 7 -51.5 27.5t-8.5 58.5l82 516q4 28 17.5 38.5t42.5 10.5h673q35 0 35 -33v-129q0 -35 -37 -35h-534l-43 -278l389 -58 q136 -21 214.5 -104.5t78.5 -228.5q0 -118 -25 -206t-70 -145.5t-113.5 -92.5t-147.5 -49.5t-181 -14.5q-78 0 -191 14t-182 41q-31 13 -38.5 27t-2.5 38z"/>
<glyph unicode="6" d="M86 633q0 62 2.5 114t9.5 114t19.5 113t33.5 105t49 96t69 80.5t91.5 63.5t118 40t146.5 15q222 0 362 -55q30 -11 38 -25.5t3 -36.5l-18 -81q-5 -21 -16 -29.5t-33 -5.5q-204 26 -338 26q-83 0 -140 -26t-89.5 -77t-47.5 -112t-20 -145q246 27 376 27q398 0 398 -441 q0 -110 -41.5 -191.5t-115 -128t-162.5 -69t-195 -22.5q-102 0 -180 17.5t-130.5 44t-89 77t-56 96t-29.5 123t-12.5 136.5t-2.5 157zM319 480q1 -48 10.5 -106.5t28.5 -94.5q53 -101 236 -101q272 0 272 213q0 127 -43.5 184.5t-158.5 57.5q-117 0 -345 -25q-1 -80 0 -128z "/>
<glyph unicode="7" d="M86 1194v129q0 37 35 37h901q20 0 30.5 -11.5t10.5 -27.5v-96q0 -43 -31 -103l-569 -1128q-11 -19 -22 -23.5t-31 4.5l-136 62q-21 10 -24 22.5t8 30.5l539 1071h-676q-35 0 -35 33z"/>
<glyph unicode="8" d="M66 373q0 122 55.5 211.5t161.5 134.5q-77 36 -124.5 111.5t-47.5 158.5q0 189 126 288t347 99q218 0 343.5 -95.5t125.5 -289.5q0 -77 -50 -156t-133 -112v-4q107 -39 167.5 -128.5t60.5 -213.5q0 -183 -141.5 -289t-378.5 -106q-245 0 -378.5 95t-133.5 296zM303 395 q0 -111 76 -163t199 -52q117 0 198.5 55t81.5 150q0 47 -15.5 84.5t-40 62.5t-64 45.5t-78.5 33t-93 24.5q-44 -9 -75.5 -18t-69.5 -27.5t-62 -42.5t-40.5 -63t-16.5 -89zM344 987q0 -77 60.5 -117t177.5 -65q126 20 179.5 64t53.5 118q0 97 -62.5 144t-168.5 47 q-126 0 -183 -48.5t-57 -142.5z"/>
<glyph unicode="9" d="M82 956q0 110 41.5 192.5t114.5 130.5t162.5 71.5t193.5 23.5q100 0 177.5 -17.5t130.5 -44.5t89.5 -76.5t57 -97t31.5 -123t13.5 -136.5t2.5 -156q0 -70 -3.5 -128.5t-12 -128t-26.5 -125.5t-45 -113.5t-68.5 -100t-94.5 -76.5t-127.5 -51.5t-163.5 -17.5 q-225 0 -358 55q-31 10 -39 24t-2 37l16 80q6 23 16 30.5t33 4.5q216 -27 336 -27q83 0 140.5 26t90 77t48 112t20.5 144q-233 -23 -377 -23q-201 0 -299 105.5t-98 328.5zM315 961q0 -125 44 -182.5t159 -57.5q98 0 344 27q0 255 -37 325q-51 101 -237 101 q-273 0 -273 -213z"/>
<glyph unicode=":" horiz-adv-x="434" d="M92 104q0 57 27.5 89t97.5 32q71 0 98 -31t27 -90q0 -55 -27 -88.5t-98 -33.5q-75 0 -100 32.5t-25 89.5zM92 793q0 57 27.5 88.5t97.5 31.5q72 0 98.5 -30.5t26.5 -89.5q0 -56 -27 -89.5t-98 -33.5q-75 0 -100 33t-25 90z"/>
<glyph unicode=";" horiz-adv-x="434" d="M54.5 -234.5q1.5 9.5 19.5 27.5q67 62 67 148q0 72 -49 131q-18 18 -18 33.5t24 31.5l105 80q24 15 37.5 12t33.5 -20q34 -31 53 -74t19 -82q0 -120 -54.5 -212t-133.5 -140q-32 -18 -56 4l-36 37q-13 14 -11.5 23.5zM92 793q0 57 27.5 88.5t97.5 31.5q72 0 98.5 -30.5 t26.5 -89.5q0 -56 -27 -89.5t-98 -33.5q-75 0 -100 33t-25 90z"/>
<glyph unicode="&lt;" d="M168 616v99q0 12 4 20t7.5 11t13.5 10l784 409q15 7 22 1.5t7 -19.5v-143q0 -17 -6 -24.5t-21 -14.5l-547 -293v-8l549 -291q15 -7 21 -15t6 -26v-152q0 -13 -8.5 -17.5t-20.5 1.5l-784 411q-27 13 -27 41z"/>
<glyph unicode="=" d="M160 436v107q0 32 35 32h786q20 0 27.5 -6.5t7.5 -25.5v-107q0 -17 -7.5 -23.5t-27.5 -6.5h-786q-35 0 -35 30zM160 786v105q0 35 35 35h786q20 0 27.5 -7.5t7.5 -25.5v-107q0 -18 -7.5 -25t-27.5 -7h-786q-35 0 -35 32z"/>
<glyph unicode="&gt;" d="M168 180v152q0 18 6 26t21 15l548 291v8l-546 293q-15 7 -21 14.5t-6 24.5v143q0 14 7 19.5t22 -1.5l784 -409q10 -7 13.5 -10t7.5 -11t4 -20v-99q0 -28 -27 -41l-784 -411q-12 -6 -20.5 -1.5t-8.5 17.5z"/>
<glyph unicode="?" horiz-adv-x="796" d="M39 1280q-3 23 2.5 34t30.5 21q105 43 264 43q200 0 304.5 -83.5t104.5 -239.5q0 -51 -14 -93.5t-43 -76.5t-52.5 -55t-60.5 -48q-95 -70 -137.5 -131t-42.5 -157v-99q0 -20 -5.5 -29.5t-22.5 -9.5h-131q-20 0 -28 7t-13 28q-7 55 -7 123q0 70 16.5 126.5t53.5 105.5 t72 83t96 84q32 25 47 39.5t28 38t13 49.5q0 76 -48.5 109t-156.5 33q-46 0 -211 -15q-26 -3 -35 3.5t-12 25.5zM180 102q0 55 27.5 87t95.5 32q71 0 97 -30.5t26 -88.5q0 -56 -26 -88t-97 -32q-74 0 -98.5 32t-24.5 88z"/>
<glyph unicode="@" horiz-adv-x="1746" d="M106 698q0 157 63.5 294.5t171.5 234.5t257.5 153t316.5 56q176 0 316.5 -54.5t230.5 -150.5t137.5 -224t47.5 -278q0 -105 -31 -190t-83 -137.5t-116 -80.5t-133 -28q-184 0 -246 127q-153 -88 -272 -88q-116 0 -169.5 55.5t-53.5 165.5q0 134 74 197t223 63h172 q0 93 -29.5 123.5t-122.5 30.5q-61 0 -196 -15q-15 -2 -25.5 -2.5t-18 5.5t-10.5 22l-10 51q-3 13 1.5 21.5t10 12.5t17.5 9q93 41 245 41q92 0 153 -19t93 -58.5t44 -87.5t12 -118v-288q0 -101 116 -101q85 0 141 77.5t56 209.5q0 251 -152 407t-417 156q-187 0 -337.5 -78 t-234.5 -213t-84 -299q0 -260 171.5 -424.5t447.5 -164.5q125 0 241 32q18 8 32.5 5.5t21.5 -21.5l20 -55q14 -37 -24 -56q-50 -26 -132.5 -40.5t-167.5 -14.5q-175 0 -319.5 54.5t-242.5 152t-152 233.5t-54 297zM705 557q0 -45 20 -65.5t70 -20.5q81 0 217 72q0 23 -1 71 t-1 72h-181q-62 0 -93 -29.5t-31 -99.5z"/>
<glyph unicode="A" horiz-adv-x="1185" d="M25 9q-2 4 -2 10q0 9 4 22l413 1274q8 23 20 33t38 10h178q27 0 37.5 -10t17.5 -33l422 -1278q3 -9 3 -16q0 -21 -23 -21h-181q-23 0 -33 9.5t-18 33.5l-86 295h-459l-92 -295q-7 -24 -20 -33.5t-35 -9.5h-160q-19 0 -24 9zM414 530h346l-86 291l-84 295h-8l-82 -291z "/>
<glyph unicode="B" horiz-adv-x="1198" d="M143 39v1280q0 39 41 39h469q200 0 306 -97t106 -264q0 -33 -7.5 -68.5t-24.5 -76t-51 -77t-81 -58.5l2 -4q58 -19 100 -58.5t62.5 -88t29.5 -92.5t9 -87q0 -175 -115 -281t-280 -106h-521q-25 0 -35 9.5t-10 29.5zM375 201h276q211 0 211 200q0 88 -53.5 146.5 t-157.5 58.5h-276v-405zM375 803h266q78 0 130 50.5t52 125.5q0 82 -51 131t-154 49h-243v-356z"/>
<glyph unicode="C" horiz-adv-x="1150" d="M127 668q0 80 6 149.5t22 143t42.5 132.5t69 113t99.5 90t136.5 57t177.5 21q91 0 196 -14t179 -45q25 -11 34 -25q6 -10 6 -25q0 -6 -1 -14l-19 -84q-5 -20 -15.5 -26.5t-37.5 -3.5q-217 26 -330 26q-81 0 -140 -26.5t-93 -68.5t-54 -109t-26 -132.5t-6 -154.5 q0 -87 7.5 -153.5t28 -130t55 -104.5t92.5 -66t136 -25q124 0 330 26q28 3 38.5 -4t16.5 -29l17 -77q3 -11 3 -20q0 -13 -5 -21q-8 -16 -33 -25q-69 -30 -180 -45.5t-199 -15.5q-133 0 -233 39t-159.5 101.5t-97 154.5t-50.5 185t-13 206z"/>
<glyph unicode="D" horiz-adv-x="1292" d="M143 39v1280q0 39 39 39h416q133 0 234 -35.5t164 -95.5t102.5 -148.5t55 -184t15.5 -212.5q0 -118 -15 -214t-54 -185.5t-101.5 -150t-164.5 -96.5t-236 -36h-410q-25 0 -35 9.5t-10 29.5zM375 203h198q59 0 108 11t96 42.5t79.5 82t52 134.5t19.5 195q0 140 -24.5 238 t-72 151.5t-106.5 76.5t-137 23h-213v-954z"/>
<glyph unicode="E" horiz-adv-x="1081" d="M145 37v1282q0 41 41 41h754q39 0 39 -39v-127q0 -19 -9 -28t-32 -9h-559v-352h495q41 0 41 -37v-127q0 -19 -9 -28t-32 -9h-495v-403h573q37 0 37 -39v-125q0 -20 -8.5 -28.5t-30.5 -8.5h-764q-41 0 -41 37z"/>
<glyph unicode="F" horiz-adv-x="1021" d="M150 39v1282q0 20 9 29.5t31 9.5h740q39 0 39 -39v-127q0 -19 -9 -28t-32 -9h-547v-352h477q39 0 39 -37v-127q0 -21 -9 -30t-32 -9h-473v-563q0 -39 -39 -39h-154q-22 0 -31 9t-9 30z"/>
<glyph unicode="G" horiz-adv-x="1273" d="M129 670q0 79 6.5 148.5t23 142.5t43 132.5t69.5 113t99.5 89.5t136 57t175.5 21q91 0 196 -14t179 -45q25 -9 34 -23.5t5 -40.5l-21 -86q-3 -20 -13.5 -26t-37.5 -2q-217 26 -326 26q-80 0 -139 -26.5t-93.5 -69t-55 -108.5t-27 -132.5t-6.5 -154.5q0 -84 7 -150 t28 -131t56 -107.5t93 -69t137 -26.5q128 0 211 25v342h-166q-23 0 -32 9t-9 30v121q0 19 9 28t32 9h355q21 0 32 -12.5t11 -26.5q0 -478 -2 -584q0 -34 -12.5 -55.5t-45.5 -32.5q-171 -59 -389 -59q-107 0 -193.5 23t-147.5 68t-104.5 104.5t-69 139t-37 165.5t-11.5 188z "/>
<glyph unicode="H" horiz-adv-x="1265" d="M143 39v1280q0 41 41 41h154q37 0 37 -41v-504h516v504q0 41 41 41h153q37 0 37 -41v-1280q0 -39 -37 -39h-153q-41 0 -41 39v573h-516v-573q0 -39 -37 -39h-154q-41 0 -41 39z"/>
<glyph unicode="I" horiz-adv-x="565" d="M164 39v1280q0 41 39 41h155q39 0 39 -41v-1280q0 -39 -39 -39h-155q-21 0 -30 9t-9 30z"/>
<glyph unicode="J" horiz-adv-x="905" d="M18 90l21 92q6 21 14 26t31 1q126 -16 209 -16q123 0 167 44.5t44 141.5v940q0 41 41 41h153q39 0 39 -41v-975q0 -362 -411 -362q-151 0 -260 43q-36 13 -46 27q-6 7 -6 18q0 9 4 20z"/>
<glyph unicode="K" horiz-adv-x="1187" d="M135 39v1280q0 41 41 41h154q37 0 37 -41v-614h4l155 200l344 424q28 31 68 31h186q21 0 27 -13t-8 -28l-445 -541l459 -735q7 -13 7 -22q0 -5 -2 -9q-6 -12 -25 -12h-189q-25 0 -38.5 9t-26.5 30l-336 557l-180 -223v-334q0 -39 -37 -39h-154q-41 0 -41 39z"/>
<glyph unicode="L" horiz-adv-x="1028" d="M147 37v1282q0 41 39 41h154q39 0 39 -41v-1118h586q19 0 27.5 -7.5t8.5 -27.5v-129q0 -19 -8.5 -28t-29.5 -9h-775q-23 0 -32 9t-9 28z"/>
<glyph unicode="M" horiz-adv-x="1550" d="M145 39v1284q0 37 37 37h127q30 0 42.5 -8t23.5 -31l278 -573l121 -261h6l125 267l279 565q12 22 25 31.5t42 9.5h119q35 0 35 -37v-1284q0 -39 -37 -39h-149q-23 0 -32 9t-9 30v821h-7l-71 -158l-226 -458q-19 -39 -59 -39h-78q-43 0 -61 35l-234 477l-67 143h-4v-821 q0 -39 -37 -39h-150q-39 0 -39 39z"/>
<glyph unicode="N" horiz-adv-x="1325" d="M141 39v1282q0 37 39 37h117q15 0 27 -3t19.5 -6t15.5 -12t11.5 -13.5t12 -17.5t12.5 -18l258 -401l295 -461h6v891q0 21 8.5 31t30.5 10h148q21 0 30 -9.5t9 -31.5v-1280q0 -37 -39 -37h-117q-27 0 -41 9t-27 30l-444 678l-137 219h-6v-897q0 -39 -39 -39h-148 q-41 0 -41 39z"/>
<glyph unicode="O" horiz-adv-x="1351" d="M123 698q0 61 4.5 116.5t18.5 126t37.5 129t66 117t98.5 99t139 65.5t185 25t184 -21t139.5 -55.5t100 -87.5t67.5 -109t40.5 -127.5t20.5 -136t5 -141.5t-4 -140t-18 -140t-38 -136t-66 -117.5t-99.5 -97t-142.5 -62t-191 -23.5q-82 0 -151 14.5t-120.5 39t-93 62 t-70 78t-49.5 93.5t-33 102t-19 109t-9 109.5t-2 108.5zM365 678q0 -97 8 -170t29 -136t55.5 -103t88 -62.5t126.5 -22.5q179 0 250 121t71 373q0 128 -15 217t-51.5 154t-99 96t-155.5 31q-86 0 -146 -33t-95 -99t-50.5 -155t-15.5 -211z"/>
<glyph unicode="P" horiz-adv-x="1101" d="M143 39v1282q0 39 41 39h426q127 0 225 -44.5t157 -138t59 -225.5q0 -61 -12 -117t-43 -113t-79 -99t-127 -68.5t-180 -26.5h-235v-489q0 -39 -37 -39h-154q-41 0 -41 39zM375 723h217q116 0 169.5 61t53.5 162q0 106 -61.5 159.5t-169.5 53.5h-209v-436z"/>
<glyph unicode="Q" horiz-adv-x="1357" d="M125 698q0 61 4 116.5t18.5 126t37.5 129t65 117t98 99t139 65.5t185 25t184.5 -21t139.5 -55.5t100 -87.5t68.5 -109t41 -127.5t20.5 -136t5 -141.5q0 -97 -7.5 -174.5t-28.5 -164.5t-66 -157.5t-113 -117.5l239 -68q28 -9 28 -32q0 -9 -5 -21l-55 -125q-10 -31 -37 -31 q-12 0 -29 7l-444 170q-14 -2 -41 -2q-82 0 -151.5 14.5t-121 39t-93 62t-70 78t-49.5 93.5t-32.5 102t-18.5 109.5t-9 109t-2 108.5zM367 678q0 -96 9 -170t30.5 -136t56 -102.5t87 -63t122.5 -22.5q174 0 247.5 123t73.5 371q0 128 -15 217t-51.5 154t-99 96t-155.5 31 q-166 0 -235.5 -124.5t-69.5 -373.5z"/>
<glyph unicode="R" horiz-adv-x="1142" d="M135 39v1282q0 39 41 39h455q65 0 124.5 -14t113.5 -45t93.5 -77t63 -113.5t23.5 -149.5q0 -77 -23 -147t-79.5 -133t-141.5 -95l268 -543q4 -10 4 -19q-1 -7 -3 -12q-6 -12 -23 -12h-177q-25 0 -37.5 7t-21.5 28l-240 514h-208v-508q0 -41 -39 -41h-152q-23 0 -32 9 t-9 30zM367 743h213q229 0 229 218q0 196 -225 196h-217v-414z"/>
<glyph unicode="S" horiz-adv-x="1126" d="M97 83q0 9 3 21l19 84q6 25 16 29.5t39 1.5q256 -29 363 -29q130 0 196 46.5t66 134.5q0 56 -11.5 91.5t-42 60t-74 38.5t-116.5 27q-61 12 -102 21.5t-93.5 26t-87 35t-70.5 47.5t-56.5 64t-34 83.5t-13.5 107.5q0 192 123 295.5t342 103.5q243 0 377 -55q31 -12 38 -26 t3 -38l-20 -84q-6 -23 -17 -28.5t-43 -3.5q-199 26 -328 26q-126 0 -180.5 -46t-54.5 -136q0 -32 5 -55.5t19.5 -41.5t30 -29t48 -21.5t61 -16.5t80.5 -16q62 -12 100 -21t91.5 -26.5t86.5 -36t69.5 -49.5t57 -68.5t34 -90.5t13.5 -118q0 -112 -40 -193.5t-111 -127.5 t-157 -67t-189 -21q-92 0 -208 15t-188 44q-23 9 -33 19q-11 10 -11 23z"/>
<glyph unicode="T" horiz-adv-x="1019" d="M31 1194v127q0 20 8.5 29.5t30.5 9.5h882q39 0 39 -39v-127q0 -19 -9 -28t-32 -9h-325v-1118q0 -39 -37 -39h-154q-21 0 -30 9t-9 30v1118h-323q-24 0 -32.5 8.5t-8.5 28.5z"/>
<glyph unicode="U" horiz-adv-x="1286" d="M139 498v821q0 41 39 41h154q39 0 39 -41v-821q0 -152 69 -231t203 -79q277 0 277 310v821q0 41 41 41h153q37 0 37 -41l-2 -821q0 -147 -37 -242q-57 -139 -181 -205.5t-288 -66.5q-324 0 -442 227q-62 118 -62 287z"/>
<glyph unicode="V" horiz-adv-x="1214" d="M43 1319q-4 10 -4 17q0 22 31 22h153q29 0 41.5 -8.5t18.5 -32.5l180 -565l145 -469h6l144 471l174 561q12 43 57 43h162q24 0 24 -21q0 -8 -4 -20l-421 -1274q-8 -23 -20.5 -33t-41.5 -10h-162q-28 0 -40.5 9.5t-18.5 31.5z"/>
<glyph unicode="W" horiz-adv-x="1724" d="M37 1319q-2 9 -2 16q0 25 28 25h162q25 0 36.5 -9t17.5 -32q182 -661 202 -731l66 -256h6l59 211q5 23 69 243.5t75 255.5l-84 277q-11 41 22 41h154q25 0 38 -9t19 -32q191 -680 209 -750l62 -237h8l57 243l199 744q6 23 18.5 32t38.5 9h156q26 0 26 -24q0 -9 -4 -21 l-354 -1272q-6 -23 -19.5 -33t-41.5 -10h-142q-30 0 -42 10t-19 33l-150 506l-41 143l-8 -2l-43 -145l-149 -502q-6 -23 -18 -33t-40 -10h-147q-49 0 -58 41z"/>
<glyph unicode="X" horiz-adv-x="1128" d="M34 13q-1 4 -1 8q0 10 8 22l393 653l-366 619q-10 17 -4.5 31t24.5 14h178q24 0 33.5 -7t19.5 -28l132 -238l110 -198l113 207l127 227q9 20 20.5 27.5t34.5 7.5h176q24 1 29.5 -13t-4.5 -28l-371 -621l395 -657q6 -8 6 -17q1 -4 -1 -8q-4 -14 -25 -14h-178 q-22 0 -34 7.5t-24 27.5l-145 256l-119 217l-115 -209l-149 -262q-11 -21 -22.5 -29t-36.5 -8h-179q-21 0 -25 13z"/>
<glyph unicode="Y" horiz-adv-x="1146" d="M30 1346q5 12 21 12h174q25 0 36 -7t22 -28l166 -319l116 -226h13l122 232l166 307q11 23 22.5 32t35.5 9h168q19 0 24 -11q3 -4 3 -10q0 -7 -5 -16l-432 -762v-520q0 -39 -37 -39h-151q-41 0 -41 39v520l-422 762q-4 7 -4 14q0 6 3 11z"/>
<glyph unicode="Z" horiz-adv-x="1054" d="M80 37v113q0 42 20 71l611 936h-551q-22 0 -30.5 8.5t-8.5 28.5v127q0 20 8 29.5t29 9.5h778q39 0 39 -35l-2 -113q0 -34 -21 -71l-608 -940h596q22 0 30.5 -8.5t8.5 -28.5v-125q0 -20 -8 -29.5t-29 -9.5h-825q-37 0 -37 37z"/>
<glyph unicode="[" horiz-adv-x="555" d="M80 -162v1548q0 37 39 37h309q15 0 25 -8.5t10 -23.5v-117q0 -33 -39 -33h-133v-1259h135q37 0 37 -35v-113q0 -35 -37 -35h-305q-41 0 -41 39z"/>
<glyph unicode="\" horiz-adv-x="581" d="M20 1380q-7 39 23 39h121q33 0 39 -30l354 -1483q6 -35 -27 -35h-122q-29 0 -35 29z"/>
<glyph unicode="]" horiz-adv-x="552" d="M92 -53q0 35 37 35h139v1259h-137q-39 0 -39 33v117q0 15 10 23.5t25 8.5h311q41 0 41 -37v-1550q0 -37 -41 -37h-309q-20 0 -28.5 8t-8.5 27v113z"/>
<glyph unicode="^" horiz-adv-x="1081" d="M42 795.5q0 7.5 11 21.5l367 510q13 18 25.5 24.5t39.5 6.5l121 -2q33 0 45.5 -6t22.5 -23l350 -510q17 -28 0 -43l-57 -43q-24 -21 -45 0l-381 449l-383 -443q-24 -21 -49 -2l-54 43q-13 10 -13 17.5z"/>
<glyph unicode="_" horiz-adv-x="1024" d="M-25 -172q0 20 8.5 27.5t26.5 7.5h1002q20 0 28.5 -7t8.5 -26v-76q0 -33 -35 -33h-1004q-35 0 -35 31v76z"/>
<glyph unicode="`" horiz-adv-x="1054" d="M336 1397q-24 28 6 43l115 71q31 14 45 -10l180 -307q17 -26 -6 -37l-76 -49q-21 -13 -39 8z"/>
<glyph unicode="a" horiz-adv-x="1105" d="M86 278q0 175 94 256q95 82 291 82h262v54q0 94 -44.5 130t-168.5 36q-83 0 -278 -19q-31 -5 -42.5 -0.5t-15.5 25.5l-18 76q-3 22 6 35t41 25q61 21 162.5 33.5t183.5 12.5q87 0 152 -11.5t108.5 -35.5t71 -54t41.5 -75.5t19 -90.5t5 -108v-395q0 -60 12 -74t62 -20 q23 -2 31 -8t8 -23v-86q0 -35 -49 -43q-55 -10 -96 -10q-76 0 -119 28t-57 97l-5 2q-80 -61 -178.5 -97t-197.5 -36q-154 0 -217.5 75t-63.5 219zM313 285q0 -67 27.5 -93t99.5 -26q61 0 143 29t148 67v195h-250q-83 0 -125.5 -38t-42.5 -134z"/>
<glyph unicode="b" horiz-adv-x="1079" d="M98 125v1278q0 21 9 30t32 9h146q41 0 41 -39v-430q135 49 254 49q99 0 172 -24.5t118.5 -67t73 -109t37.5 -140.5t10 -171q0 -104 -12 -182.5t-42 -146t-79.5 -110t-126.5 -66t-182 -23.5q-103 0 -215 14t-180 39q-56 21 -56 90zM326 199q112 -17 206 -17q56 0 93 10.5 t69.5 42t48 95t15.5 162.5q0 181 -41.5 255.5t-141.5 77.5q-67 0 -115.5 -6.5t-133.5 -27.5v-592z"/>
<glyph unicode="c" horiz-adv-x="917" d="M88 508q0 59 4 109t16.5 104t32.5 97t53.5 82.5t78.5 66t109.5 42t143.5 15.5q199 0 316 -48q31 -14 31 -47q0 -5 -1 -11l-14 -82q-6 -22 -18 -26.5t-45 -2.5q-189 18 -250 18q-124 0 -173.5 -71t-49.5 -242q0 -190 48.5 -261t172.5 -71q104 0 264 19q16 2 27 1.5t17 -8 t9 -24.5l12 -74q3 -12 3 -21q1 -11 -3 -17q-6 -14 -34 -25q-111 -47 -312 -47q-80 0 -144.5 15t-110 40t-78.5 64t-53 81.5t-32 98t-16 108t-4 117.5z"/>
<glyph unicode="d" horiz-adv-x="1083" d="M86 489q0 106 10.5 185t37.5 147.5t72.5 111.5t117.5 67t170 24q129 0 254 -47q1 0 2 1t2 1v424q0 22 8 31.5t31 9.5h145q23 0 30 -10t7 -31v-1364q0 -20 -8 -29.5t-29 -9.5h-148q-20 0 -28 8.5t-8 28.5v65q-1 0 -3.5 1t-3.5 1q-67 -47 -154 -83.5t-169 -36.5 q-98 0 -164.5 34.5t-103.5 103.5t-52.5 157t-15.5 210zM315 492q0 -97 9 -158t30.5 -93.5t48.5 -43.5t70 -11q100 0 277 93v514q-118 34 -236 34q-113 0 -156 -71.5t-43 -263.5z"/>
<glyph unicode="e" horiz-adv-x="1040" d="M90 498q0 50 3 92.5t14 98t29 100.5t51 90.5t77.5 76t111.5 49.5t150 19q106 0 185.5 -27.5t126 -70t75.5 -105.5t39.5 -122.5t12.5 -133.5v-10q-1 -53 -21 -83q-22 -32 -80 -32h-542q4 -151 60.5 -207.5t186.5 -56.5q43 0 267 23q30 3 40.5 -2t14.5 -33l12 -68 q5 -25 -1.5 -38.5t-33.5 -24.5q-58 -22 -154 -36.5t-175 -14.5q-82 0 -148 15t-112 40.5t-80.5 64.5t-55 81t-33 97t-16.5 105.5t-4 112.5zM324 594h405q0 52 -8.5 92t-29 77t-62.5 57t-103 20q-108 0 -151 -60.5t-51 -185.5z"/>
<glyph unicode="f" horiz-adv-x="800" d="M66 864v99q0 41 38 41h97v108q0 344 360 344q53 0 126.5 -11.5t131.5 -35.5q28 -11 28 -42q0 -7 -1 -15l-15 -82q-6 -19 -18.5 -23.5t-40.5 -1.5q-126 15 -176 15q-92 0 -133 -40.5t-41 -129.5v-86h244q22 0 29 -9t7 -30v-101q0 -23 -7 -32t-29 -9h-244v-784 q0 -39 -37 -39h-145q-41 0 -41 39v784h-95q-21 0 -29.5 9.5t-8.5 31.5z"/>
<glyph unicode="g" horiz-adv-x="1083" d="M94 498q0 127 21.5 219t71.5 163.5t139 107.5t217 36q99 0 206 -14.5t181 -38.5q55 -18 55 -92v-867q0 -56 -3.5 -97.5t-14 -87t-29.5 -77t-51 -61.5t-77 -48t-110 -29t-147 -11q-217 0 -330 47q-29 11 -37 25t-4 34l17 76q4 24 17 29.5t42 -0.5q138 -21 283 -21 q126 0 171.5 40.5t45.5 139.5v68q-138 -49 -252 -49q-98 0 -170.5 24.5t-118 66.5t-73.5 107.5t-39 139.5t-11 170zM328 516q0 -185 44.5 -257.5t153.5 -72.5q112 0 232 35v584q-113 18 -205 18q-54 0 -90 -10.5t-69 -41t-49.5 -94t-16.5 -161.5z"/>
<glyph unicode="h" horiz-adv-x="1089" d="M106 39v1366q0 39 37 39h146q41 0 41 -39v-496q186 113 340 113q59 0 106 -11t79.5 -29.5t55.5 -48t36.5 -60t21 -73t10 -80t2.5 -87.5v-594q0 -39 -41 -39h-145q-41 0 -41 39q0 99 1 296t1 296q0 94 -31 142t-117 48q-78 0 -280 -92v-690q0 -20 -8.5 -29.5t-30.5 -9.5 h-146q-37 0 -37 39z"/>
<glyph unicode="i" horiz-adv-x="505" d="M133 1270q0 55 26.5 85.5t94.5 30.5q70 0 95.5 -29t25.5 -87q0 -55 -25.5 -87t-95.5 -32q-72 0 -96.5 32.5t-24.5 86.5zM139 39v926q0 21 9.5 30t31.5 9h146q36 0 36 -39v-926q0 -39 -36 -39h-146q-41 0 -41 39z"/>
<glyph unicode="j" horiz-adv-x="538" d="M-117 -289q-1 8 -1 14q0 13 4 18q7 8 30 13q56 11 86.5 18.5t64 19.5t48.5 25t29.5 35t19 50t4.5 69v992q0 21 9.5 30t31.5 9h143q41 0 41 -39v-988q0 -210 -104 -311q-95 -93 -312 -93q-20 0 -40 1q-15 0 -30 9.5t-16 31.5zM160 1270q0 55 27 85.5t94 30.5q70 0 95 -29 t25 -87q0 -56 -25 -87.5t-95 -31.5q-72 0 -96.5 32.5t-24.5 86.5z"/>
<glyph unicode="k" horiz-adv-x="989" d="M115 39v1366q0 41 39 41h145q39 0 39 -41v-770l6 -2l158 166l170 172q13 13 19.5 18.5t21 11t32.5 5.5h164q29 0 35 -14.5t-12 -33.5l-328 -333l369 -578q6 -11 6 -20q0 -7 -3 -13q-8 -14 -30 -14h-158q-30 0 -44.5 9t-26.5 30l-262 420l-117 -119v-301q0 -39 -39 -39 h-145q-21 0 -30 9t-9 30z"/>
<glyph unicode="l" horiz-adv-x="542" d="M135 199v1206q0 39 39 39h145q39 0 39 -39v-1151q0 -45 20.5 -57.5t76.5 -12.5q24 -2 31 -5.5t10 -20.5l8 -105q3 -26 -27 -39q-52 -24 -133 -24q-112 0 -160.5 51.5t-48.5 157.5z"/>
<glyph unicode="m" horiz-adv-x="1687" d="M109 39v924q0 41 36 41h146q41 0 41 -41v-60l2 -2q169 116 305 121q100 0 168.5 -30t112.5 -113q192 143 360 143q78 0 134 -21t87.5 -53t48.5 -85.5t22 -102.5t5 -119v-602q0 -20 -8 -29.5t-29 -9.5h-147q-21 0 -30 9t-9 30v582q0 112 -31 153t-109 41q-86 0 -262 -92 q0 -7 1 -42.5t1 -62.5v-579q0 -20 -8.5 -29.5t-30.5 -9.5h-149q-20 0 -27.5 9t-7.5 30v592q0 97 -30 140.5t-105 43.5q-89 0 -264 -92v-684q0 -39 -39 -39h-148q-20 0 -28 9t-8 30z"/>
<glyph unicode="n" horiz-adv-x="1081" d="M102 39v924q0 41 39 41h146q39 0 39 -41v-62q1 0 3 -1t3 -1q68 47 163.5 85t180.5 38q58 0 103.5 -11t77 -29.5t54 -48t35 -60t20 -73.5t9.5 -80t2 -87v-594q0 -20 -8.5 -29.5t-30.5 -9.5h-147q-39 0 -39 39l2 575q0 99 -32 150t-116 51q-93 0 -280 -92v-684 q0 -39 -39 -39h-146q-21 0 -30 9t-9 30z"/>
<glyph unicode="o" horiz-adv-x="1071" d="M90 518q0 506 438 506q115 0 199.5 -30.5t132 -77t76 -117t37 -135t8.5 -146.5q0 -59 -2.5 -104t-13 -103.5t-29 -101.5t-52.5 -87.5t-80.5 -73t-117 -46.5t-158.5 -18q-86 0 -154 18t-113 46.5t-78 73t-50.5 87.5t-27.5 102t-12.5 103.5t-2.5 103.5zM317 504 q0 -173 44 -248.5t167 -75.5q69 0 113.5 19t68.5 62t33 99.5t9 143.5t-8.5 143t-32.5 99t-68 62t-113 19q-124 0 -168.5 -76.5t-44.5 -246.5z"/>
<glyph unicode="p" horiz-adv-x="1067" d="M106 -336v1299q0 41 39 41h146q37 0 37 -41v-62l6 -4q178 123 323 123q98 0 165.5 -35.5t104.5 -106t52.5 -159.5t15.5 -211q0 -132 -18.5 -224.5t-63.5 -163t-125.5 -104.5t-199.5 -34q-128 0 -256 45l-2 -2v-361q0 -41 -39 -41h-146q-23 0 -31 9.5t-8 31.5zM330 211 q119 -35 235 -35q112 0 155.5 71.5t43.5 262.5q0 97 -9 157.5t-30.5 92.5t-49 43.5t-71.5 11.5q-56 0 -134 -29.5t-140 -62.5v-512z"/>
<glyph unicode="q" horiz-adv-x="1083" d="M92 496q0 127 21.5 220t71.5 164.5t139.5 107.5t218.5 36q103 0 211 -14.5t176 -40.5q32 -11 42.5 -33t10.5 -57v-1215q0 -21 -7.5 -31t-29.5 -10h-147q-24 0 -32.5 9.5t-8.5 31.5v365l-2 2q-130 -47 -252 -47q-97 0 -169.5 24.5t-118.5 67t-74 108.5t-39 140.5 t-11 171.5zM326 514q0 -188 45.5 -263t152.5 -75q106 0 236 37v592q-122 18 -209 18q-42 0 -72.5 -6t-61 -25t-49.5 -52.5t-30.5 -90t-11.5 -135.5z"/>
<glyph unicode="r" horiz-adv-x="745" d="M147 39v924q0 41 39 41h146q41 0 41 -41v-91l4 -4q46 43 138.5 88t164.5 58q8 2 15 2q30 0 34 -37l14 -137q1 -9 1 -17v-7q0 -10 -9 -15.5t-30 -9.5q-208 -42 -332 -95v-659q0 -39 -39 -39h-148q-21 0 -30 9t-9 30z"/>
<glyph unicode="s" horiz-adv-x="940" d="M86 96l14 68q4 23 15.5 28.5t38.5 2.5q161 -25 290 -25q98 0 141.5 27.5t43.5 89.5q0 69 -32.5 94t-131.5 39q-70 10 -117.5 20.5t-101 32t-85 51t-52.5 78t-21 113.5q0 149 104.5 229t280.5 80q74 0 163 -11t148 -34q44 -17 44 -50q0 -5 -1 -11l-16 -74 q-4 -21 -15 -26.5t-40 -2.5q-202 23 -279 23q-94 0 -128 -26.5t-34 -88.5q0 -56 35 -75t139 -36q50 -7 83 -13.5t75.5 -18.5t70 -26t57 -37t46.5 -52.5t28 -71t11 -92.5q0 -87 -34.5 -150.5t-94.5 -98.5t-130.5 -51.5t-154.5 -16.5q-204 0 -317 45q-30 13 -39 27q-6 9 -6 23 q0 8 2 17z"/>
<glyph unicode="t" horiz-adv-x="739" d="M49 862v101q0 21 8.5 31t30.5 10h105v210q0 36 38 46l138 36q9 2 17 2q24 0 24 -26v-268h219q23 0 31 -9.5t8 -29.5v-103q0 -22 -7.5 -30.5t-31.5 -8.5h-219v-510q0 -42 5 -64t24 -33t39.5 -13t68.5 -2q55 0 137 8q18 2 26 -4.5t11 -24.5l14 -102q1 -5 1 -9 q0 -28 -27 -42q-49 -21 -129 -32t-138 -11q-44 0 -79.5 6.5t-61 20t-44.5 29.5t-31 41t-19.5 47.5t-11 56t-4.5 59.5t-1 65v514h-102q-22 0 -30.5 9t-8.5 30z"/>
<glyph unicode="u" horiz-adv-x="1087" d="M104 360v603q0 41 39 41h150q37 0 37 -41v-576q0 -102 30.5 -151.5t118.5 -49.5q94 0 277 93v684q0 41 39 41h145q39 0 39 -41v-924q0 -21 -9 -30t-30 -9h-145q-22 0 -30.5 9.5t-8.5 29.5v63l-4 2q-71 -49 -164.5 -85.5t-179.5 -36.5q-58 0 -103.5 10t-77.5 27 t-54.5 44.5t-35.5 57t-20.5 71t-10 79.5t-2.5 89z"/>
<glyph unicode="v" horiz-adv-x="1021" d="M39 963q-4 11 -4 20q0 21 26 21h162q22 0 32 -7t17 -30l164 -480q70 -217 76 -235h6l78 244l164 475q6 19 15.5 26t31.5 7h156q29 0 29 -20q0 -8 -5 -19l-348 -922q-8 -24 -20.5 -33.5t-36.5 -9.5h-138q-26 0 -37.5 9t-19.5 32z"/>
<glyph unicode="w" horiz-adv-x="1472" d="M36 991q6 13 23 13h164q20 0 29.5 -8t15.5 -29l105 -346l102 -355h6l99 309l63 189l-63 201q-5 15 0.5 27t21.5 12h152q23 0 31 -7.5t14 -31.5l114 -377l95 -316l2 2l4 -2l96 340l102 355q5 22 12.5 29.5t26.5 7.5h164q24 0 24 -20q0 -7 -3 -17l-301 -924 q-6 -21 -18.5 -31t-20 -11t-21.5 -1h-117q-44 0 -55 41l-72 215l-86 260h-4l-86 -262l-69 -207q-14 -47 -66 -47h-106q-35 0 -47.5 11.5t-22.5 43.5l-307 910q-3 7 -3 14q-1 6 2 12z"/>
<glyph unicode="x" horiz-adv-x="962" d="M20 12q-2 4 -2 9q0 10 7 22l325 469l-307 451q-10 13 -4.5 27t24.5 14h175q14 0 22.5 -3.5t12.5 -8t14 -19.5l192 -297l191 297q10 17 19 24t26 7h182q23 0 29 -13t-6 -28l-314 -451l326 -469q5 -10 5 -19q0 -6 -2 -11q-6 -13 -26 -13h-174q-20 0 -31 6.5t-22 24.5 l-205 319l-205 -319q-19 -31 -55 -31h-172q-19 0 -25 12z"/>
<glyph unicode="y" horiz-adv-x="1005" d="M41 963q-5 12 -5 21q0 20 27 20h158q21 0 29.5 -5t15.5 -26l133 -381l103 -305h8l106 305l127 377q6 19 16.5 27t33.5 8h151q23 0 27 -12q1 -4 1 -9q0 -9 -5 -20l-478 -1303q-8 -21 -19 -29t-36 -8h-139q-39 0 -25 41l129 346z"/>
<glyph unicode="z" horiz-adv-x="921" d="M63 35v90q0 39 23 68l492 624h-447q-22 0 -30.5 8.5t-8.5 30.5v111q0 20 8.5 28.5t30.5 8.5h672q21 0 30 -7t9 -28v-101q0 -35 -25 -67l-479 -611h473q22 0 31.5 -8t9.5 -28v-115q0 -39 -39 -39h-715q-20 0 -27.5 8t-7.5 27z"/>
<glyph unicode="{" horiz-adv-x="614" d="M53 580v71q0 22 27 29q33 10 53.5 26.5t29 44t11 51.5t2.5 66v357q0 91 51 153t154 62q43 0 135 -10q31 -7 31 -37v-86q0 -33 -35 -33l-57 -4q-41 -3 -55.5 -22t-14.5 -64v-330q0 -34 -5 -66t-17 -68.5t-38 -65t-63 -42.5v-4q41 -19 67 -44t37 -58t14 -60.5t3 -72.5v-350 q0 -43 15.5 -62t56.5 -22l57 -5q17 -2 26 -8.5t9 -23.5v-86q0 -15 -8.5 -24t-22.5 -11q-66 -10 -137 -10q-55 0 -96 18t-63.5 49t-33 67.5t-10.5 78.5v378q0 43 -2 65.5t-10.5 50t-28.5 43.5t-53 26q-29 11 -29 33z"/>
<glyph unicode="|" horiz-adv-x="538" d="M174 -195v1581q0 21 9.5 30t31.5 9h111q21 0 28.5 -9.5t7.5 -29.5v-1581q0 -38 -36 -38h-111q-41 0 -41 38z"/>
<glyph unicode="}" horiz-adv-x="614" d="M53 -98q0 17 8 23.5t25 8.5l57 5q41 3 56.5 22t15.5 62v350q0 45 3 72.5t14 60.5t37 58t67 44l2 4q-37 14 -63 42.5t-38.5 64.5t-18 69t-5.5 66v330q0 45 -14.5 64t-55.5 22l-57 4q-16 0 -24.5 7t-8.5 26v86q0 31 31 37q92 10 133 10q105 0 155 -62t50 -153v-357 q0 -42 2.5 -66t11 -51.5t29 -44t53.5 -26.5q27 -6 27 -29v-71q0 -23 -29 -33q-33 -10 -53 -26t-28.5 -43.5t-10.5 -50t-2 -65.5v-378q0 -42 -10 -78.5t-32 -67.5t-63 -49t-96 -18q-73 0 -137 10q-31 3 -31 35v86z"/>
<glyph unicode="~" d="M152 559q43 101 114.5 145t149.5 44q56 0 132.5 -27t145.5 -53.5t109 -26.5q41 0 68 18t55 58q21 29 47 12l61 -37q17 -10 20 -19.5t-3 -19.5q-48 -101 -113.5 -144.5t-153.5 -43.5q-57 0 -191.5 56.5t-184.5 56.5q-39 0 -68 -17t-70 -67q-2 -2 -6 -7t-6 -6.5t-7 -3 t-11 0t-15 5.5l-59 37q-26 10 -14 39z"/>
<glyph unicode="¡" horiz-adv-x="520" d="M137 887q0 56 25.5 88.5t97.5 32.5q71 0 96 -32.5t25 -88.5q0 -57 -25.5 -87t-95.5 -30t-96.5 30t-26.5 87zM150 -334l26 920q2 21 8 29t23 8h100q18 0 25.5 -8.5t9.5 -28.5l23 -920q0 -21 -8 -29t-29 -8h-146q-17 0 -24.5 8.5t-7.5 28.5z"/>
<glyph unicode="¢" d="M197 508q0 66 5 120t18.5 112.5t40 103.5t65.5 83.5t99.5 62t137.5 30.5v252q0 41 35 41h82q31 0 31 -41v-252q144 -7 239 -45q37 -16 31 -57l-14 -82q-4 -21 -20 -26t-46 -3q-185 18 -248 18q-124 0 -173.5 -71t-49.5 -242q0 -191 47.5 -261.5t171.5 -70.5q106 0 266 19 q26 3 37.5 -2.5t14.5 -28.5l14 -74q5 -25 -1.5 -38.5t-33.5 -24.5q-76 -34 -235 -45v-242q0 -20 -6.5 -29.5t-24.5 -9.5h-82q-19 0 -27 8.5t-8 30.5v244q-68 6 -122 24t-92 44.5t-66 65t-44 79t-26 94t-13 102.5t-3 111z"/>
<glyph unicode="£" d="M125 133q0 36 39 62q54 37 76.5 97t29.5 142q6 54 6 154h-98q-22 0 -30.5 8t-8.5 29v102q0 20 8.5 27.5t30.5 7.5h94q-2 90 -2 266q5 157 107 249.5t287 92.5q207 0 350 -55q19 -8 26 -16t4 -23l-18 -107q-4 -18 -13 -23t-28 -5q-17 2 -64.5 7.5t-73 8.5t-67.5 5.5 t-80 2.5q-98 0 -150.5 -47t-55.5 -135q0 -147 2 -221h333q22 0 30.5 -7.5t8.5 -27.5v-102q0 -21 -8.5 -29t-30.5 -8h-329q0 -86 -2 -127q-8 -208 -64 -266q25 0 237.5 -1t321.5 -1q20 0 28.5 -8.5t8.5 -28.5v-123q0 -21 -7.5 -27t-31.5 -6h-827q-37 0 -37 33q-2 35 -2 100z "/>
<glyph unicode="¤" horiz-adv-x="1060" d="M48.5 942q-0.5 12 14.5 29l76 71q21 19 30.5 18.5t27.5 -18.5l106 -106q90 54 219 57q140 0 234 -61l118 119q18 18 31 18t27 -14l78 -78q16 -19 15 -27.5t-17 -27.5l-127 -125q59 -101 59 -209q0 -130 -66 -240l130 -127q20 -18 22 -28.5t-16 -30.5l-72 -74 q-19 -18 -31 -17.5t-30 19.5l-129 129q-98 -58 -226 -55q-116 0 -200 43l-127 -123q-18 -20 -29 -22t-31 16l-78 78q-23 26 9 55l118 117q-65 107 -65 252q0 116 59 221l-112 112q-17 17 -17.5 29zM311 582q0 -111 55.5 -174.5t157.5 -63.5q106 0 167 66.5t61 171.5 q0 110 -60 172.5t-168 62.5q-102 0 -157.5 -62.5t-55.5 -172.5z"/>
<glyph unicode="¥" d="M70.5 1343.5q4.5 12.5 23.5 12.5h168q24 0 35 -7t20 -28l267 -549h12q45 90 133 271.5t133 271.5q11 24 22 32.5t36 8.5h161q17 0 23 -13t-2 -26l-352 -651h260q17 0 22.5 -6t5.5 -21v-76q0 -14 -5.5 -20t-22.5 -6h-848q-15 0 -22 5t-7 21v78q0 25 31 25h258l-348 653 q-8 12 -3.5 24.5zM133 348v78q0 27 31 27h844q18 0 24 -6.5t6 -22.5v-76q0 -14 -5.5 -20t-22.5 -6h-314v-283q0 -20 -8 -29.5t-29 -9.5h-147q-21 0 -30 9t-9 30v283h-311q-29 0 -29 26z"/>
<glyph unicode="¦" horiz-adv-x="538" d="M174 -195v740q0 21 9.5 30t31.5 9h111q21 0 28.5 -9.5t7.5 -29.5v-740q0 -38 -36 -38h-111q-41 0 -41 38zM174 709v671q0 22 9.5 31.5t31.5 9.5h111q36 0 36 -41v-671q0 -39 -36 -39h-111q-41 0 -41 39z"/>
<glyph unicode="§" horiz-adv-x="899" d="M76 -229q-4 11 2 30l24 72q8 26 22 29.5t46 -4.5q138 -27 236 -27q99 0 155.5 38.5t56.5 113.5q0 39 -44 79.5t-94 66.5t-121.5 59.5t-92.5 45.5q-38 21 -67 43t-58 53.5t-45 73.5t-16 91q0 70 30.5 144.5t88.5 135.5q-117 88 -117 236q0 106 55.5 181t142.5 108.5 t195 33.5q90 0 178 -17t138 -48q33 -16 22 -52l-25 -71q-8 -25 -25 -28.5t-42 5.5q-142 25 -223 25q-95 0 -151 -33t-56 -96q0 -31 15 -57.5t46.5 -49.5t53.5 -35.5t65.5 -32.5t52.5 -24q14 -7 52 -25.5t55 -27.5t49.5 -28.5t49 -34t39.5 -38t34 -46.5t19.5 -54t8.5 -65 q0 -155 -120 -281q116 -104 116 -233q0 -82 -28.5 -144.5t-72.5 -99t-104.5 -59.5t-116.5 -31t-116 -8q-79 2 -161 19.5t-130 45.5q-18 10 -22 21zM279 573q0 -47 29.5 -80t84.5 -63q28 -16 88 -40.5t82 -35.5q64 82 64 150q0 49 -29.5 82.5t-83.5 62.5q-24 13 -81 37.5 t-87 40.5q-67 -76 -67 -154z"/>
<glyph unicode="¨" horiz-adv-x="1054" d="M252 1255q0 52 25 80.5t90 28.5q66 0 89 -27t23 -82q0 -54 -23 -84t-89 -30q-69 0 -92 30t-23 84zM651 1255q0 51 25 80t88 29q67 0 91 -27t24 -82q0 -54 -24 -84t-91 -30t-90 30.5t-23 83.5z"/>
<glyph unicode="©" horiz-adv-x="1654" d="M100 686q0 196 97 361t264 260.5t364 95.5q152 0 287 -56.5t230.5 -152t151.5 -228.5t56 -280t-57.5 -280t-155 -228.5t-231.5 -152t-281 -56.5q-197 0 -364 95.5t-264 260.5t-97 361zM233 686q0 -160 79 -296t215.5 -215t297.5 -79q160 0 296 79t215 215t79 296 t-79 296.5t-215 216t-296 79.5q-161 0 -297.5 -79.5t-215.5 -216t-79 -296.5zM498 666q0 70 7.5 127t29 114.5t57.5 96.5t97 63.5t142 24.5q140 0 226 -35q30 -12 24 -37l-10 -51q-7 -25 -33 -19q-117 17 -198 17q-49 0 -85 -16t-57 -42t-33 -66.5t-16 -80.5t-4 -94 q0 -53 4.5 -93t17 -79t34 -64t56.5 -40t83 -15q79 0 198 14q26 5 33 -18l10 -45q6 -28 -20 -39q-84 -37 -230 -37q-99 0 -167 34t-103 95.5t-49 129.5t-14 155z"/>
<glyph unicode="ª" horiz-adv-x="755" d="M51 686q0 115 69 167t206 52h166v29q0 56 -33 77t-123 21q-81 0 -166 -12q-20 -6 -33 -4t-18 24l-10 47q-10 42 38 58q89 31 236 31q73 0 125.5 -12t83 -32.5t48 -54.5t23 -70t5.5 -87v-242q0 -39 8 -48t39 -14q18 -1 24 -6.5t6 -19.5v-62q0 -26 -40 -34q-44 -7 -72 -7 q-58 0 -89 18.5t-40 65.5h-4q-45 -40 -109 -65t-135 -25q-113 0 -159 53t-46 152zM229 688q0 -40 19.5 -53.5t60.5 -13.5q82 3 180 57v108h-155q-105 0 -105 -98z"/>
<glyph unicode="«" horiz-adv-x="983" d="M88 360q-29 36 0 68l211 262q27 31 55 31h176q12 0 16.5 -8.5t-3.5 -16.5l-248 -303l235 -299q7 -8 4.5 -20.5t-16.5 -12.5h-168q-9 0 -18 4t-13 7.5t-12 12.5t-10 11zM457 360q-26 35 0 68l213 262q22 31 53 31h176q12 0 16 -8.5t-4 -16.5l-247 -303l235 -299 q7 -8 4.5 -19.5t-16.5 -11.5h-166q-6 0 -12.5 1.5t-10.5 3.5t-9.5 6.5t-8 6.5t-7.5 7.5t-7 7.5z"/>
<glyph unicode="¬" d="M160 625v96q0 37 37 37h784q20 0 27.5 -7.5t7.5 -27.5v-444q0 -21 -8 -28t-27 -7h-111q-20 0 -28 6.5t-8 25.5v312h-639q-20 0 -27.5 9t-7.5 28z"/>
<glyph unicode="­" horiz-adv-x="794" d="M68 606v105q0 18 8 25t26 7h594q19 0 27 -7t8 -25v-105q0 -18 -8 -25.5t-27 -7.5h-594q-34 0 -34 33z"/>
<glyph unicode="®" horiz-adv-x="1079" d="M82 1034q0 190 134.5 322.5t326.5 132.5q194 0 326 -132t132 -323t-133.5 -323.5t-324.5 -132.5q-192 0 -326.5 132t-134.5 324zM174 1034q0 -152 107.5 -259t261.5 -107q151 0 257.5 107t106.5 259q0 151 -106.5 258t-257.5 107q-153 0 -261 -107t-108 -258zM371 784 v498q0 18 22 18h176q70 0 119 -39.5t49 -119.5q0 -114 -92 -152l103 -205q5 -8 2.5 -14t-9.5 -6h-82q-18 0 -26 16q-14 29 -44 93.5t-48 99.5h-68v-189q0 -20 -18 -20h-66q-18 0 -18 20zM473 1061h78q82 0 82 78q0 73 -82 73h-78v-151z"/>
<glyph unicode="¯" horiz-adv-x="1054" d="M244 1198v107q0 19 8.5 26.5t26.5 7.5h563q19 0 27 -7t8 -25v-109q0 -33 -35 -33h-563q-35 0 -35 33z"/>
<glyph unicode="°" horiz-adv-x="755" d="M90 1085q0 118 88.5 204.5t212.5 86.5q121 0 207 -87t86 -204q0 -121 -85 -204.5t-208 -83.5q-138 0 -219.5 81.5t-81.5 206.5zM240 1081q0 -60 42 -102.5t103 -42.5q60 0 102.5 42.5t42.5 102.5t-42.5 104t-102.5 44t-102.5 -44t-42.5 -104z"/>
<glyph unicode="±" d="M160 655v103q0 18 7.5 25.5t25.5 7.5h299v280q0 19 7 27t27 8h127q18 0 25.5 -7.5t7.5 -27.5v-280h295q20 0 27.5 -7t7.5 -26v-103q0 -19 -7.5 -25.5t-27.5 -6.5h-295v-301q0 -35 -31 -35h-129q-20 0 -27 8t-7 27v301h-299q-33 0 -33 32zM162 84v92q0 20 8 27.5t27 7.5 h784q19 0 26 -7t7 -26v-94q0 -18 -7.5 -25.5t-25.5 -7.5h-784q-35 0 -35 33z"/>
<glyph unicode="²" horiz-adv-x="780" d="M53 711v69q0 35 25 60l338 313q32 30 55 72.5t23 79.5q0 52 -33.5 71t-108.5 19q-93 0 -225 -13q-12 -1 -22 -1.5t-18 6.5t-11 22l-10 59q-3 21 4 34.5t34 21.5q47 17 123 26t127 9q330 0 330 -246q0 -82 -29.5 -139.5t-101.5 -124.5l-229 -215h342q18 0 26 -7.5t8 -27.5 v-88q0 -33 -34 -33h-580q-19 0 -26 7t-7 26z"/>
<glyph unicode="³" horiz-adv-x="780" d="M51 768l12 49q5 21 11 28.5t22 4.5q131 -23 240 -23q43 0 72.5 5.5t57.5 21.5t42 49t14 84q0 33 -27.5 53t-70.5 27q-15 3 -162 25q-26 4 -35.5 16.5t-9.5 38.5v43q0 31 21 49q47 39 180 154h-316q-19 0 -26.5 7t-7.5 25v91q0 32 32 32h539q37 0 37 -32v-72 q0 -40 -35 -68l-172 -151l68 -13q172 -32 172 -237q-3 -90 -30 -151t-78.5 -94.5t-117.5 -47.5t-157 -14q-53 0 -132.5 13t-121.5 34q-33 14 -21 53z"/>
<glyph unicode="´" horiz-adv-x="1052" d="M481 1184l164 317q13 26 45 12l121 -61q30 -16 8 -45l-209 -287q-16 -22 -39 -12l-79 37q-24 14 -11 39z"/>
<glyph unicode="¶" horiz-adv-x="1044" d="M43 944q0 198 107.5 307t285.5 109h516q41 0 41 -39v-111q0 -22 -9 -32.5t-32 -10.5h-45v-1331q0 -24 -9.5 -32.5t-31.5 -8.5h-100q-22 0 -31.5 8.5t-9.5 32.5v1333h-195v-1333q0 -24 -9.5 -32.5t-31.5 -8.5h-98q-23 0 -33 8.5t-10 32.5v766q-93 2 -164.5 54t-106 128 t-34.5 160z"/>
<glyph unicode="·" horiz-adv-x="434" d="M92 532q0 57 27.5 89t97.5 32q72 0 98.5 -30.5t26.5 -90.5q0 -55 -27 -88.5t-98 -33.5q-75 0 -100 33t-25 89z"/>
<glyph unicode="¸" horiz-adv-x="870" d="M289 -379l14 57q3 15 23 13q84 -13 123 -13q54 0 84 15.5t30 62.5q0 39 -27.5 50t-111.5 16q-44 3 -29 47l54 151q0 2 5.5 7.5t12.5 5.5h74q7 0 8.5 -6t-0.5 -9l-43 -112q114 -3 156.5 -42.5t42.5 -105.5q0 -87 -62.5 -135.5t-181.5 -48.5q-82 0 -156 23q-21 7 -16 24z "/>
<glyph unicode="¹" horiz-adv-x="706" d="M100 1397v51q0 12 1.5 18.5t8 13.5t19.5 11l123 47q30 12 65 12h93q24 0 32.5 -8.5t8.5 -25.5v-682h133q34 0 34 -33v-88q0 -20 -8 -27.5t-26 -7.5h-445q-18 0 -25.5 7t-7.5 28v88q0 18 7.5 25.5t25.5 7.5h123v532h-125q-22 0 -29.5 6t-7.5 25z"/>
<glyph unicode="º" horiz-adv-x="739" d="M55 838q0 336 310 336q81 0 140 -20t93 -51.5t54 -78t26 -89.5t6 -97q0 -39 -2 -68.5t-9 -68.5t-20 -67.5t-37 -58.5t-57 -49t-82.5 -31t-111.5 -12q-60 0 -108.5 12t-80.5 31t-55 49t-35.5 58.5t-19.5 67.5t-9 68.5t-2 68.5zM233 827q0 -103 28 -147.5t104 -44.5 q82 0 110.5 44t28.5 148q0 105 -27.5 150t-109.5 45q-76 0 -105 -46.5t-29 -148.5z"/>
<glyph unicode="»" horiz-adv-x="983" d="M74 71.5q-3 10.5 4 18.5l246 301l-242 299q-7 9 -3.5 20t19.5 11h164q7 0 13.5 -1.5t11 -3.5t10 -6.5t7.5 -6.5l8 -8l7 -7l209 -262q26 -35 0 -68l-213 -264q-21 -33 -51 -33h-176q-11 0 -14 10.5zM442.5 71.5q-3.5 10.5 3.5 18.5l246 301l-241 299q-7 9 -3.5 20t17.5 11 h168q6 0 12.5 -1.5t10.5 -3.5t9.5 -6.5t8 -6.5t7.5 -7.5t7 -7.5l209 -262q16 -23 15.5 -36t-15.5 -32l-211 -264q-25 -33 -53 -33h-176q-11 0 -14.5 10.5z"/>
<glyph unicode="¼" horiz-adv-x="1802" d="M152 1212v52q0 12 1 18.5t7.5 13.5t19.5 11l123 47q30 12 66 12h92q24 0 32.5 -9t8.5 -26v-682h133q35 0 35 -33v-88q0 -19 -8.5 -26.5t-26.5 -7.5h-445q-18 0 -25 6.5t-7 27.5v88q0 18 7 25.5t25 7.5h123v533h-125q-22 0 -29 5.5t-7 24.5zM526 -16l566 1423q7 15 13 21 t19 6h115q11 0 15.5 -9t0.5 -22l-563 -1426q-9 -24 -30 -24h-115q-14 0 -19.5 9t-1.5 22zM907 242v75q0 28 19 50l405 475q14 17 24.5 22.5t33.5 5.5h110q33 0 33 -30v-473h90q17 0 23 -8t6 -27v-90q0 -33 -29 -33h-90v-172q0 -21 -7.5 -28t-27.5 -7h-115q-19 0 -26.5 6.5 t-7.5 26.5v174h-406q-35 0 -35 33zM1116 365h234v272h-2q-76 -92 -232 -272z"/>
<glyph unicode="½" horiz-adv-x="1802" d="M139 1212v52q0 12 1.5 18.5t8 13.5t19.5 11l123 47q30 12 65 12h93q24 0 32 -9t8 -26v-682h134q34 0 34 -33v-88q0 -19 -8 -26.5t-26 -7.5h-445q-18 0 -25.5 6.5t-7.5 27.5v88q0 18 7.5 25.5t25.5 7.5h123v533h-125q-22 0 -29.5 6t-7.5 24zM483 -16l566 1423q7 15 13 21 t19 6h115q11 0 15.5 -9t0.5 -22l-563 -1426q-9 -24 -31 -24h-114q-14 0 -19.5 9t-1.5 22zM1016 33v69q0 36 24 60l338 313q32 30 55 72.5t23 79.5q0 52 -33.5 71t-107.5 19q-103 0 -225 -12q-17 -5 -32.5 -0.5t-19.5 26.5l-10 60q-3 21 4.5 34t34.5 21q47 17 123 26t127 9 q330 0 330 -246q0 -82 -29.5 -139.5t-101.5 -124.5l-230 -215h342q18 0 26.5 -7.5t8.5 -27.5v-88q0 -33 -35 -33h-579q-19 0 -26 7t-7 26z"/>
<glyph unicode="¾" horiz-adv-x="1802" d="M74 584l12 49q5 21 11 28.5t22 4.5q131 -23 239 -23q43 0 72.5 5.5t57.5 21.5t42.5 49t14.5 84q0 33 -28 53t-71 27q-23 4 -50.5 8.5t-60 8.5t-50.5 7q-25 4 -35 17t-10 39v43q0 32 20 49q76 64 180 153h-315q-19 0 -27 7.5t-8 25.5v90q0 33 33 33h539q36 0 36 -33v-71 q0 -41 -34 -68l-172 -152l67 -12q172 -32 172 -237q-3 -90 -30 -151t-78.5 -95t-117.5 -48t-157 -14q-53 0 -132.5 13t-121.5 34q-32 14 -20 54zM537 -16l565 1423q12 27 33 27h114q11 0 16 -9t1 -22l-564 -1426q-9 -24 -30 -24h-115q-13 0 -19 8.5t-1 22.5zM961 242v75 q0 29 18 50l405 475q14 17 24.5 22.5t33.5 5.5h110q33 0 33 -30v-473h90q17 0 23 -8t6 -27v-90q0 -33 -29 -33h-90v-172q0 -21 -7.5 -28t-27.5 -7h-114q-19 0 -27 6.5t-8 26.5v174h-406q-34 0 -34 33zM1169 365h234v272h-2q-76 -92 -232 -272z"/>
<glyph unicode="¿" horiz-adv-x="796" d="M39 -68q0 42 11 79.5t26 63.5t40.5 53t44.5 42.5t48 36.5q63 46 98 81.5t58.5 88t23.5 119.5q0 75 -2 98q0 39 31 39h133q19 0 26.5 -7.5t10.5 -27.5q8 -47 8 -125q0 -56 -13 -105.5t-31.5 -85t-54 -75t-63.5 -65t-78 -66.5q-32 -25 -47 -40t-28 -38.5t-13 -50.5 q0 -76 48 -108t157 -32q93 0 211 15q26 3 36 -3.5t13 -25.5l10 -84q2 -14 1.5 -24t-7.5 -17t-24 -14q-107 -43 -264 -43q-200 0 -305 83t-105 238zM358 887q0 56 25.5 88.5t95.5 32.5q74 0 98.5 -32.5t24.5 -88.5q0 -55 -27.5 -87t-95.5 -32q-70 0 -95.5 30t-25.5 89z"/>
<glyph unicode="À" horiz-adv-x="1185" d="M25 9q-5 9 2 32l413 1274q8 23 20 33t38 10h178q27 0 37.5 -10t17.5 -33l422 -1278q10 -37 -20 -37h-181q-23 0 -33 9.5t-18 33.5l-86 295h-459l-92 -295q-7 -24 -20 -33.5t-35 -9.5h-160q-19 0 -24 9zM244 1645l84 106q23 27 45 8l280 -221q26 -18 9 -35l-58 -69 q-16 -18 -41 -7l-307 175q-35 20 -12 43zM414 530h346l-86 291l-84 295h-8l-82 -291z"/>
<glyph unicode="Á" horiz-adv-x="1185" d="M25 9q-5 9 2 32l413 1274q8 23 20 33t38 10h178q27 0 37.5 -10t17.5 -33l422 -1278q10 -37 -20 -37h-181q-23 0 -33 9.5t-18 33.5l-86 295h-459l-92 -295q-7 -24 -20 -33.5t-35 -9.5h-160q-19 0 -24 9zM414 530h346l-86 291l-84 295h-8l-82 -291zM492 1516q-14 20 10 36 l293 205q23 16 45 -10l78 -113q9 -14 4.5 -25t-19.5 -18l-317 -155q-25 -11 -41 8z"/>
<glyph unicode="Â" horiz-adv-x="1185" d="M25 9q-5 9 2 32l413 1274q8 23 20 33t38 10h178q27 0 37.5 -10t17.5 -33l422 -1278q10 -37 -20 -37h-181q-23 0 -33 9.5t-18 33.5l-86 295h-459l-92 -295q-7 -24 -20 -33.5t-35 -9.5h-160q-19 0 -24 9zM219.5 1497q-0.5 7 11.5 21l228 213q15 12 21 16t18 8t28 4h111 q40 0 70 -24l225 -211q23 -20 0 -43l-51 -51q-13 -11 -20.5 -10.5t-22.5 10.5l-258 174l-250 -177q-18 -12 -26 -13t-21 11l-52 54q-11 11 -11.5 18zM414 530h346l-86 291l-84 295h-8l-82 -291z"/>
<glyph unicode="Ã" horiz-adv-x="1185" d="M25 9q-5 9 2 32l413 1274q8 23 20 33t38 10h178q27 0 37.5 -10t17.5 -33l422 -1278q10 -37 -20 -37h-181q-23 0 -33 9.5t-18 33.5l-86 295h-459l-92 -295q-7 -24 -20 -33.5t-35 -9.5h-160q-19 0 -24 9zM200.5 1515q-3.5 11 0.5 25q38 101 99.5 148t125.5 47 q47 0 109 -25.5t118 -51.5t88 -26q35 0 60 18t47 58q15 24 45 12l57 -26q22 -9 15 -39q-74 -197 -222 -197q-47 0 -162 52.5t-155 52.5q-65 0 -113 -78q-8 -13 -15 -15t-28 7l-57 24q-9 3 -12.5 14zM414 530h346l-86 291l-84 295h-8l-82 -291z"/>
<glyph unicode="Ä" horiz-adv-x="1185" d="M25 9q-5 9 2 32l413 1274q8 23 20 33t38 10h178q27 0 37.5 -10t17.5 -33l422 -1278q10 -37 -20 -37h-181q-23 0 -33 9.5t-18 33.5l-86 295h-459l-92 -295q-7 -24 -20 -33.5t-35 -9.5h-160q-19 0 -24 9zM281 1559q0 52 23.5 80t88.5 28q67 0 90 -26.5t23 -81.5 q0 -53 -23.5 -83t-89.5 -30q-69 0 -90.5 29.5t-21.5 83.5zM414 530h346l-86 291l-84 295h-8l-82 -291zM662 1559q0 52 24.5 80t89.5 28q66 0 89.5 -26.5t23.5 -81.5q0 -53 -23.5 -83t-89.5 -30q-69 0 -91.5 29.5t-22.5 83.5z"/>
<glyph unicode="Å" horiz-adv-x="1185" d="M25 9q-5 9 2 32l413 1274q8 23 20 33t38 10h178q27 0 37.5 -10t17.5 -33l422 -1278q10 -37 -20 -37h-181q-23 0 -33 9.5t-18 33.5l-86 295h-459l-92 -295q-7 -24 -20 -33.5t-35 -9.5h-160q-19 0 -24 9zM358 1610q0 93 69 156t161 63q93 0 159 -65t66 -154q0 -91 -66 -156 t-159 -65q-92 0 -161 63.5t-69 157.5zM414 530h346l-86 291l-84 295h-8l-82 -291zM492 1610q0 -45 27 -74t69 -29q41 0 68.5 30t27.5 73q0 39 -28 69.5t-68 30.5q-38 0 -67 -30.5t-29 -69.5z"/>
<glyph unicode="Æ" horiz-adv-x="1847" d="M23 39l743 1280q12 24 26.5 32.5t43.5 8.5h868q41 0 41 -39v-127q0 -19 -9 -28t-32 -9h-559v-352h495q39 0 39 -37v-127q0 -37 -39 -37h-495v-403h573q37 0 37 -39v-125q0 -20 -8.5 -28.5t-30.5 -8.5h-764q-26 0 -33.5 8t-7.5 25v305h-460l-177 -299q-13 -22 -27.5 -30.5 t-37.5 -8.5h-168q-40 0 -18 39zM559 530h352v619h-6z"/>
<glyph unicode="Ç" horiz-adv-x="1150" d="M127 668q0 80 6 149.5t22 143t42.5 132.5t69 113t99.5 90t136.5 57t177.5 21q91 0 196 -14t179 -45q25 -11 34 -25.5t5 -38.5l-19 -84q-5 -20 -15.5 -26.5t-37.5 -3.5q-217 26 -330 26q-81 0 -140 -26.5t-93 -68.5t-54 -109t-26 -132.5t-6 -154.5q0 -87 7.5 -153.5 t28 -130t55 -104.5t92.5 -66t136 -25q124 0 330 26q28 3 38.5 -4t16.5 -29l17 -77q6 -25 -2 -40.5t-33 -25.5q-69 -30 -180 -45.5t-199 -15.5q-4 0 -11.5 1t-11.5 1l-28 -78q60 -1 100.5 -13.5t61 -34t28.5 -45.5t8 -55q0 -87 -62 -135.5t-181 -48.5q-82 0 -156 23 q-21 7 -16 24l14 57q3 15 23 13q85 -13 122 -13q54 0 84.5 16t30.5 62q0 39 -27.5 50t-111.5 16q-44 3 -29 47l43 123q-103 15 -181 61t-125 108.5t-76.5 148.5t-40.5 171.5t-11 186.5z"/>
<glyph unicode="È" horiz-adv-x="1081" d="M145 37v1282q0 41 41 41h754q39 0 39 -39v-127q0 -19 -9 -28t-32 -9h-559v-352h495q41 0 41 -37v-127q0 -19 -9 -28t-32 -9h-495v-403h573q37 0 37 -39v-125q0 -20 -8.5 -28.5t-30.5 -8.5h-764q-41 0 -41 37zM242 1645l84 106q23 27 45 8l280 -221q26 -17 8 -35l-57 -69 q-16 -18 -41 -7l-307 175q-35 20 -12 43z"/>
<glyph unicode="É" horiz-adv-x="1081" d="M145 37v1282q0 41 41 41h754q39 0 39 -39v-127q0 -19 -9 -28t-32 -9h-559v-352h495q41 0 41 -37v-127q0 -19 -9 -28t-32 -9h-495v-403h573q37 0 37 -39v-125q0 -20 -8.5 -28.5t-30.5 -8.5h-764q-41 0 -41 37zM426 1516q-14 20 10 36l293 205q23 16 45 -10l78 -113 q10 -14 5 -25.5t-19 -17.5l-318 -155q-25 -11 -41 8z"/>
<glyph unicode="Ê" horiz-adv-x="1081" d="M145 37v1282q0 41 41 41h754q39 0 39 -39v-127q0 -19 -9 -28t-32 -9h-559v-352h495q41 0 41 -37v-127q0 -19 -9 -28t-32 -9h-495v-403h573q37 0 37 -39v-125q0 -20 -8.5 -28.5t-30.5 -8.5h-764q-41 0 -41 37zM201.5 1497q-0.5 7 11.5 21l227 213q15 11 21.5 15.5 t18.5 8.5t28 4h110q40 0 70 -24l225 -211q23 -20 0 -43l-51 -51q-13 -11 -20.5 -10.5t-22.5 10.5l-258 174l-250 -177q-18 -12 -26 -13t-21 11l-51 54q-11 11 -11.5 18z"/>
<glyph unicode="Ë" horiz-adv-x="1081" d="M145 37v1282q0 41 41 41h754q39 0 39 -39v-127q0 -19 -9 -28t-32 -9h-559v-352h495q41 0 41 -37v-127q0 -19 -9 -28t-32 -9h-495v-403h573q37 0 37 -39v-125q0 -20 -8.5 -28.5t-30.5 -8.5h-764q-41 0 -41 37zM260 1559q0 52 24 80t89 28q67 0 89.5 -26.5t22.5 -81.5 q0 -54 -23 -83.5t-89 -29.5q-69 0 -91 29.5t-22 83.5zM641 1559q0 52 25 80t90 28q66 0 89 -26.5t23 -81.5q0 -54 -23 -83.5t-89 -29.5q-69 0 -92 29.5t-23 83.5z"/>
<glyph unicode="Ì" horiz-adv-x="565" d="M-63 1645l83 106q24 28 46 8l280 -221q26 -17 8 -35l-57 -69q-16 -18 -41 -7l-307 175q-35 20 -12 43zM164 39v1280q0 41 39 41h155q39 0 39 -41v-1280q0 -39 -39 -39h-155q-21 0 -30 9t-9 30z"/>
<glyph unicode="Í" horiz-adv-x="565" d="M164 39v1280q0 41 39 41h155q39 0 39 -41v-1280q0 -39 -39 -39h-155q-21 0 -30 9t-9 30zM193 1516q-14 20 10 36l293 205q23 16 45 -10l77 -113q10 -14 5 -25.5t-19 -17.5l-317 -155q-25 -11 -41 8z"/>
<glyph unicode="Î" horiz-adv-x="565" d="M-72.5 1497q-0.5 7 11.5 21l227 213q15 12 21 16t18 8t28 4h111q40 0 70 -24l225 -211q23 -20 0 -43l-51 -51q-13 -11 -20.5 -10.5t-22.5 10.5l-258 174l-250 -177q-18 -12 -26 -13t-21 11l-51 54q-11 11 -11.5 18zM164 39v1280q0 41 39 41h155q39 0 39 -41v-1280 q0 -39 -39 -39h-155q-21 0 -30 9t-9 30z"/>
<glyph unicode="Ï" horiz-adv-x="565" d="M-23 1559q0 52 24 80t89 28q67 0 90 -26.5t23 -81.5q0 -53 -23.5 -83t-89.5 -30q-69 0 -91 29.5t-22 83.5zM164 39v1280q0 41 39 41h155q39 0 39 -41v-1280q0 -39 -39 -39h-155q-21 0 -30 9t-9 30zM358 1559q0 52 25 80t90 28q66 0 89.5 -26.5t23.5 -81.5 q0 -53 -23.5 -83t-89.5 -30q-69 0 -92 29.5t-23 83.5z"/>
<glyph unicode="Ð" horiz-adv-x="1292" d="M-14 641v100q0 20 8 27.5t26 7.5h123v543q0 39 39 39h416q133 0 234 -35.5t164 -95.5t102.5 -148.5t55 -184t15.5 -212.5q0 -118 -15 -214t-54 -185.5t-101.5 -150t-164.5 -96.5t-236 -36h-410q-25 0 -35 9.5t-10 29.5v571h-123q-34 0 -34 31zM375 203h198q59 0 108 11 t96 42.5t79.5 82t52 134.5t19.5 195q0 140 -24.5 238t-72 151.5t-106.5 76.5t-137 23h-213v-381h205q19 0 26.5 -7t7.5 -26v-102q0 -31 -34 -31h-205v-407z"/>
<glyph unicode="Ñ" horiz-adv-x="1325" d="M141 39v1282q0 37 39 37h117q15 0 27 -3t19.5 -6t15.5 -12t11.5 -13.5t12 -17.5t12.5 -18l258 -401l295 -461h6v891q0 21 8.5 31t30.5 10h148q21 0 30 -9.5t9 -31.5v-1280q0 -37 -39 -37h-117q-27 0 -41 9t-27 30l-444 678l-137 219h-6v-897q0 -39 -39 -39h-148 q-41 0 -41 39zM276 1470q-4 11 0 25q38 101 100 148t126 47q47 0 109 -26t118 -51.5t88 -25.5q35 0 60 18t47 58q15 24 45 12l57 -26q22 -9 14 -39q-74 -197 -221 -197q-47 0 -162 52.5t-155 52.5q-65 0 -113 -78q-8 -13 -15 -15t-28 7l-57 24q-9 3 -13 14z"/>
<glyph unicode="Ò" horiz-adv-x="1351" d="M123 698q0 61 4.5 116.5t18.5 126t37.5 129t66 117t98.5 99t139 65.5t185 25t184 -21t139.5 -55.5t100 -87.5t67.5 -109t40.5 -127.5t20.5 -136t5 -141.5t-4 -140t-18 -140t-38 -136t-66 -117.5t-99.5 -97t-142.5 -62t-191 -23.5q-82 0 -151 14.5t-120.5 39t-93 62 t-70 78t-49.5 93.5t-33 102t-19 109t-9 109.5t-2 108.5zM365 678q0 -97 8 -170t29 -136t55.5 -103t88 -62.5t126.5 -22.5q179 0 250 121t71 373q0 128 -15 217t-51.5 154t-99 96t-155.5 31q-86 0 -146 -33t-95 -99t-50.5 -155t-15.5 -211zM446 1645l84 106q23 27 45 8 l281 -221q26 -17 8 -35l-57 -69q-16 -18 -41 -7l-307 175q-36 20 -13 43z"/>
<glyph unicode="Ó" horiz-adv-x="1351" d="M123 698q0 61 4.5 116.5t18.5 126t37.5 129t66 117t98.5 99t139 65.5t185 25t184 -21t139.5 -55.5t100 -87.5t67.5 -109t40.5 -127.5t20.5 -136t5 -141.5t-4 -140t-18 -140t-38 -136t-66 -117.5t-99.5 -97t-142.5 -62t-191 -23.5q-82 0 -151 14.5t-120.5 39t-93 62 t-70 78t-49.5 93.5t-33 102t-19 109t-9 109.5t-2 108.5zM365 678q0 -97 8 -170t29 -136t55.5 -103t88 -62.5t126.5 -22.5q179 0 250 121t71 373q0 128 -15 217t-51.5 154t-99 96t-155.5 31q-86 0 -146 -33t-95 -99t-50.5 -155t-15.5 -211zM547 1516q-14 20 10 36l293 205 q23 16 45 -10l78 -113q9 -14 4.5 -25t-19.5 -18l-317 -155q-25 -11 -41 8z"/>
<glyph unicode="Ô" horiz-adv-x="1351" d="M123 698q0 61 4.5 116.5t18.5 126t37.5 129t66 117t98.5 99t139 65.5t185 25t184 -21t139.5 -55.5t100 -87.5t67.5 -109t40.5 -127.5t20.5 -136t5 -141.5t-4 -140t-18 -140t-38 -136t-66 -117.5t-99.5 -97t-142.5 -62t-191 -23.5q-82 0 -151 14.5t-120.5 39t-93 62 t-70 78t-49.5 93.5t-33 102t-19 109t-9 109.5t-2 108.5zM320.5 1497q-0.5 7 11.5 21l227 213q15 11 21.5 15.5t18.5 8.5t28 4h110q40 0 70 -24l225 -211q23 -20 0 -43l-51 -51q-13 -11 -20.5 -10.5t-22.5 10.5l-258 174l-250 -177q-18 -12 -26 -13t-21 11l-51 54 q-11 11 -11.5 18zM365 678q0 -97 8 -170t29 -136t55.5 -103t88 -62.5t126.5 -22.5q179 0 250 121t71 373q0 128 -15 217t-51.5 154t-99 96t-155.5 31q-86 0 -146 -33t-95 -99t-50.5 -155t-15.5 -211z"/>
<glyph unicode="Õ" horiz-adv-x="1351" d="M123 698q0 61 4.5 116.5t18.5 126t37.5 129t66 117t98.5 99t139 65.5t185 25t184 -21t139.5 -55.5t100 -87.5t67.5 -109t40.5 -127.5t20.5 -136t5 -141.5t-4 -140t-18 -140t-38 -136t-66 -117.5t-99.5 -97t-142.5 -62t-191 -23.5q-82 0 -151 14.5t-120.5 39t-93 62 t-70 78t-49.5 93.5t-33 102t-19 109t-9 109.5t-2 108.5zM298.5 1507q-3.5 11 0.5 25q38 101 99.5 147.5t125.5 46.5q47 0 109 -25.5t118.5 -51t88.5 -25.5q35 0 59.5 18t46.5 58q15 24 45 12l58 -26q22 -9 14 -39q-74 -197 -221 -197q-47 0 -162.5 52t-155.5 52 q-65 0 -112 -77q-8 -14 -15 -16t-28 7l-58 25q-9 3 -12.5 14zM365 678q0 -97 8 -170t29 -136t55.5 -103t88 -62.5t126.5 -22.5q179 0 250 121t71 373q0 128 -15 217t-51.5 154t-99 96t-155.5 31q-86 0 -146 -33t-95 -99t-50.5 -155t-15.5 -211z"/>
<glyph unicode="Ö" horiz-adv-x="1351" d="M123 698q0 61 4.5 116.5t18.5 126t37.5 129t66 117t98.5 99t139 65.5t185 25t184 -21t139.5 -55.5t100 -87.5t67.5 -109t40.5 -127.5t20.5 -136t5 -141.5t-4 -140t-18 -140t-38 -136t-66 -117.5t-99.5 -97t-142.5 -62t-191 -23.5q-82 0 -151 14.5t-120.5 39t-93 62 t-70 78t-49.5 93.5t-33 102t-19 109t-9 109.5t-2 108.5zM365 678q0 -97 8 -170t29 -136t55.5 -103t88 -62.5t126.5 -22.5q179 0 250 121t71 373q0 128 -15 217t-51.5 154t-99 96t-155.5 31q-86 0 -146 -33t-95 -99t-50.5 -155t-15.5 -211zM377 1559q0 52 23.5 80t88.5 28 q67 0 90 -26.5t23 -81.5q0 -53 -23.5 -83t-89.5 -30q-69 0 -90.5 29.5t-21.5 83.5zM758 1559q0 52 24.5 80t89.5 28q66 0 89.5 -26.5t23.5 -81.5q0 -53 -23.5 -83t-89.5 -30q-69 0 -91.5 29.5t-22.5 83.5z"/>
<glyph unicode="×" d="M200 394q0 10 13 24l250 250l-246 247q-25 23 -2 43l80 82q15 13 25 13.5t22 -11.5l248 -247l239 239q26 26 50 2l86 -86q23 -24 0 -47l-242 -241l242 -242q14 -14 14.5 -24.5t-12.5 -24.5l-82 -82q-23 -23 -47 4l-242 244l-250 -252q-24 -25 -47 -2l-86 88 q-13 13 -13 23z"/>
<glyph unicode="Ø" horiz-adv-x="1351" d="M123 698q0 61 4.5 116.5t18.5 126t37.5 129t66 117t98.5 99t139 65.5t185 25q238 0 372 -112l62 82q1 1 5 5.5t5 5.5l4 4t4 3.5l4 2t4.5 1t4.5 -1t6 -2t6 -4.5l49 -37q16 -11 16 -18.5t-12 -22.5l-80 -106q107 -157 107 -478q0 -77 -4 -140t-18 -140t-38 -136t-66 -117.5 t-99.5 -97t-142.5 -62t-191 -23.5q-225 0 -357 106l-59 -80q-21 -28 -43 -12l-49 35q-13 10 -13 18.5t11 22.5l76 102q-46 68 -72.5 163t-33.5 176t-7 185zM365 678q0 -187 30 -289l512 688q-80 99 -235 99q-86 0 -146 -33t-95 -99t-50.5 -155t-15.5 -211zM453 274 q72 -90 219 -90q179 0 250 121t71 373q0 186 -30 283z"/>
<glyph unicode="Ù" horiz-adv-x="1286" d="M139 498v821q0 41 39 41h154q39 0 39 -41v-821q0 -152 69 -231t203 -79q277 0 277 310v821q0 41 41 41h153q37 0 37 -41l-2 -821q0 -147 -37 -242q-57 -139 -181 -205.5t-288 -66.5q-324 0 -442 227q-62 118 -62 287zM354 1645l84 106q23 27 45 8l281 -221q26 -17 8 -35 l-57 -69q-16 -18 -41 -7l-307 175q-36 20 -13 43z"/>
<glyph unicode="Ú" horiz-adv-x="1286" d="M139 498v821q0 41 39 41h154q39 0 39 -41v-821q0 -152 69 -231t203 -79q277 0 277 310v821q0 41 41 41h153q37 0 37 -41l-2 -821q0 -147 -37 -242q-57 -139 -181 -205.5t-288 -66.5q-324 0 -442 227q-62 118 -62 287zM526 1516q-13 20 11 36l292 205q23 16 45 -10 l78 -113q10 -14 5 -25.5t-19 -17.5l-317 -155q-25 -11 -41 8z"/>
<glyph unicode="Û" horiz-adv-x="1286" d="M139 498v821q0 41 39 41h154q39 0 39 -41v-821q0 -152 69 -231t203 -79q277 0 277 310v821q0 41 41 41h153q37 0 37 -41l-2 -821q0 -147 -37 -242q-57 -139 -181 -205.5t-288 -66.5q-324 0 -442 227q-62 118 -62 287zM287.5 1497q-0.5 7 11.5 21l227 213q15 11 21.5 15.5 t18.5 8.5t28 4h111q26 0 39 -5t30 -19l225 -211q23 -20 0 -43l-51 -51q-13 -11 -20.5 -10.5t-22.5 10.5l-258 174l-250 -177q-18 -12 -26 -13t-21 11l-51 54q-11 11 -11.5 18z"/>
<glyph unicode="Ü" horiz-adv-x="1286" d="M139 498v821q0 41 39 41h154q39 0 39 -41v-821q0 -152 69 -231t203 -79q277 0 277 310v821q0 41 41 41h153q37 0 37 -41l-2 -821q0 -147 -37 -242q-57 -139 -181 -205.5t-288 -66.5q-324 0 -442 227q-62 118 -62 287zM336 1559q0 52 24 80t89 28q67 0 89.5 -26.5 t22.5 -81.5q0 -54 -23 -83.5t-89 -29.5q-69 0 -91 29.5t-22 83.5zM717 1559q0 52 24.5 80t89.5 28q66 0 89.5 -26.5t23.5 -81.5q0 -53 -23.5 -83t-89.5 -30q-69 0 -91.5 29.5t-22.5 83.5z"/>
<glyph unicode="Ý" horiz-adv-x="1146" d="M29.5 1346q5.5 12 21.5 12h174q25 0 36 -7t22 -28l166 -319l116 -226h13l122 232l166 307q11 23 22.5 32t35.5 9h168q19 0 24.5 -11t-2.5 -26l-432 -762v-520q0 -39 -37 -39h-151q-41 0 -41 39v520l-422 762q-7 13 -1.5 25zM465 1516q-14 20 10 36l293 205q23 16 45 -10 l78 -113q10 -14 5 -25.5t-19 -17.5l-318 -155q-25 -11 -41 8z"/>
<glyph unicode="Þ" horiz-adv-x="1097" d="M133 39v1280q0 41 39 41h154q39 0 39 -41v-215h235q124 0 221.5 -43.5t158 -137.5t60.5 -225q0 -60 -12.5 -116.5t-44 -113.5t-80 -99t-126 -68.5t-175.5 -26.5h-237v-235q0 -39 -37 -39h-154q-41 0 -41 39zM365 469h221q116 0 167.5 61.5t51.5 163.5q0 104 -62 157.5 t-170 53.5h-208v-436z"/>
<glyph unicode="ß" horiz-adv-x="1075" d="M102 18v1024q0 87 25 159t66 118.5t94 78.5t106.5 46t106.5 14q183 0 291 -91t108 -265q0 -61 -32 -137t-95 -121q54 -17 93 -48.5t61 -68t35 -87.5t16.5 -97.5t3.5 -108.5q0 -221 -98 -337t-291 -115q-73 0 -113 12q-39 8 -37 45l11 98q2 18 10.5 23.5t36.5 5.5l61 6 q102 7 145.5 74t43.5 198q0 148 -50 209t-180 68q-14 0 -22.5 9t-8.5 20v84q0 33 35 40q72 21 114 82t42 136q0 80 -45.5 126t-128.5 46q-80 0 -129 -54t-49 -155v-1037q0 -38 -41 -38h-146q-21 0 -30 9t-9 29z"/>
<glyph unicode="à" horiz-adv-x="1105" d="M86 274q-1 178 94 260t291 82h262v54q0 94 -44.5 130t-168.5 36q-83 0 -278 -19q-31 -5 -42.5 -0.5t-15.5 25.5l-18 76q-3 22 6 35t41 26q61 21 162.5 33t183.5 12q87 0 152 -11.5t108.5 -35.5t71 -54t41.5 -75.5t19 -90.5t5 -108v-395q0 -60 12 -74t62 -20q23 -2 31 -8 t8 -23v-86q0 -35 -49 -43q-55 -10 -96 -10q-76 0 -119 28t-57 97l-5 2q-80 -61 -178.5 -97t-197.5 -36q-154 0 -217.5 75t-63.5 215zM313 285q0 -67 27.5 -93t99.5 -26q61 0 143 29t148 67v195h-250q-83 0 -125.5 -38t-42.5 -134zM336 1397q-24 28 6 43l115 71q31 14 45 -10 l180 -307q17 -26 -6 -37l-76 -49q-21 -13 -39 8z"/>
<glyph unicode="á" horiz-adv-x="1105" d="M86 274q-1 178 94 260t291 82h262v54q0 94 -44.5 130t-168.5 36q-83 0 -278 -19q-31 -5 -42.5 -0.5t-15.5 25.5l-18 76q-3 22 6 35t41 26q61 21 162.5 33t183.5 12q87 0 152 -11.5t108.5 -35.5t71 -54t41.5 -75.5t19 -90.5t5 -108v-395q0 -60 12 -74t62 -20q23 -2 31 -8 t8 -23v-86q0 -35 -49 -43q-55 -10 -96 -10q-76 0 -119 28t-57 97l-5 2q-80 -61 -178.5 -97t-197.5 -36q-154 0 -217.5 75t-63.5 215zM313 285q0 -67 27.5 -93t99.5 -26q61 0 143 29t148 67v195h-250q-83 0 -125.5 -38t-42.5 -134zM494 1184l163 317q13 26 45 12l121 -61 q30 -16 8 -45l-208 -287q-16 -22 -39 -12l-80 37q-23 13 -10 39z"/>
<glyph unicode="â" horiz-adv-x="1105" d="M86 274q-1 178 94 260t291 82h262v54q0 94 -44.5 130t-168.5 36q-83 0 -278 -19q-31 -5 -42.5 -0.5t-15.5 25.5l-18 76q-3 22 6 35t41 26q61 21 162.5 33t183.5 12q87 0 152 -11.5t108.5 -35.5t71 -54t41.5 -75.5t19 -90.5t5 -108v-395q0 -60 12 -74t62 -20q23 -2 31 -8 t8 -23v-86q0 -35 -49 -43q-55 -10 -96 -10q-76 0 -119 28t-57 97l-5 2q-80 -61 -178.5 -97t-197.5 -36q-154 0 -217.5 75t-63.5 215zM195 1167q0 7 12 21l217 256q13 16 26 22.5t39 6.5h113q31 0 44 -5.5t24 -19.5l215 -260q23 -23 2 -41l-56 -49q-24 -19 -45 0l-243 215 l-234 -211q-15 -14 -24 -15t-23 11l-55 51q-12 11 -12 18zM313 285q0 -67 27.5 -93t99.5 -26q61 0 143 29t148 67v195h-250q-83 0 -125.5 -38t-42.5 -134z"/>
<glyph unicode="ã" horiz-adv-x="1105" d="M86 274q-1 178 94 260t291 82h262v54q0 94 -44.5 130t-168.5 36q-83 0 -278 -19q-31 -5 -42.5 -0.5t-15.5 25.5l-18 76q-3 22 6 35t41 26q61 21 162.5 33t183.5 12q87 0 152 -11.5t108.5 -35.5t71 -54t41.5 -75.5t19 -90.5t5 -108v-395q0 -60 12 -74t62 -20q23 -2 31 -8 t8 -23v-86q0 -35 -49 -43q-55 -10 -96 -10q-76 0 -119 28t-57 97l-5 2q-80 -61 -178.5 -97t-197.5 -36q-154 0 -217.5 75t-63.5 215zM177.5 1179q-3.5 11 0.5 25q38 101 99.5 148t125.5 47q47 0 109 -25.5t118.5 -51.5t88.5 -26q35 0 59.5 18t46.5 58q15 24 45 12l58 -26 q22 -9 14 -39q-74 -197 -221 -197q-47 0 -162.5 52.5t-155.5 52.5q-64 0 -112 -78q-8 -13 -15 -15t-28 7l-58 24q-9 3 -12.5 14zM313 285q0 -67 27.5 -93t99.5 -26q61 0 143 29t148 67v195h-250q-83 0 -125.5 -38t-42.5 -134z"/>
<glyph unicode="ä" horiz-adv-x="1105" d="M86 274q-1 178 94 260t291 82h262v54q0 94 -44.5 130t-168.5 36q-83 0 -278 -19q-31 -5 -42.5 -0.5t-15.5 25.5l-18 76q-3 22 6 35t41 26q61 21 162.5 33t183.5 12q87 0 152 -11.5t108.5 -35.5t71 -54t41.5 -75.5t19 -90.5t5 -108v-395q0 -60 12 -74t62 -20q23 -2 31 -8 t8 -23v-86q0 -35 -49 -43q-55 -10 -96 -10q-76 0 -119 28t-57 97l-5 2q-80 -61 -178.5 -97t-197.5 -36q-154 0 -217.5 75t-63.5 215zM258 1255q0 52 25 80.5t90 28.5q66 0 89 -27t23 -82q0 -54 -23 -84t-89 -30q-69 0 -92 30t-23 84zM313 285q0 -67 27.5 -93t99.5 -26 q61 0 143 29t148 67v195h-250q-83 0 -125.5 -38t-42.5 -134zM657 1255q0 51 25 80t88 29q67 0 91 -27t24 -82q0 -54 -24 -84t-91 -30t-90 30.5t-23 83.5z"/>
<glyph unicode="å" horiz-adv-x="1105" d="M86 274q-1 178 94 260t291 82h262v54q0 94 -44.5 130t-168.5 36q-83 0 -278 -19q-31 -5 -42.5 -0.5t-15.5 25.5l-18 76q-3 22 6 35t41 26q61 21 162.5 33t183.5 12q87 0 152 -11.5t108.5 -35.5t71 -54t41.5 -75.5t19 -90.5t5 -108v-395q0 -60 12 -74t62 -20q23 -2 31 -8 t8 -23v-86q0 -35 -49 -43q-55 -10 -96 -10q-76 0 -119 28t-57 97l-5 2q-80 -61 -178.5 -97t-197.5 -36q-154 0 -217.5 75t-63.5 215zM313 285q0 -67 27.5 -93t99.5 -26q61 0 143 29t148 67v195h-250q-83 0 -125.5 -38t-42.5 -134zM336 1294q0 93 68.5 156t160.5 63 q93 0 159.5 -65.5t66.5 -153.5q0 -91 -66 -156t-160 -65q-92 0 -160.5 63.5t-68.5 157.5zM469 1294q0 -45 27 -73.5t69 -28.5q41 0 69 29.5t28 72.5q0 39 -28.5 70t-68.5 31q-38 0 -67 -31t-29 -70z"/>
<glyph unicode="æ" horiz-adv-x="1671" d="M90 272q0 168 94 245t291 77h262v76q0 94 -44.5 129t-168.5 35q-76 0 -280 -19q-18 -5 -34.5 -0.5t-21.5 27.5l-18 76q-5 22 4.5 34t42.5 25q60 23 160 34t186 11q239 0 318 -107q112 107 299 107q442 0 442 -469q0 -117 -100 -117h-551q6 -153 57 -206.5t184 -53.5 q102 0 281 23q23 8 36 3t19 -30l17 -78q10 -44 -39 -61q-57 -22 -159 -36.5t-181 -14.5q-268 0 -367 149q-29 -24 -69 -47q-169 -100 -373 -100q-159 0 -223 74t-64 214zM317 279q0 -61 28 -88t99 -27q58 0 151.5 33.5t162.5 72.5q-18 77 -21 166h-245q-91 0 -133 -35 t-42 -122zM975 592h407q-2 41 -6.5 71t-18 65t-34.5 57.5t-58 37.5t-87 15q-58 0 -97 -16.5t-60.5 -51t-31.5 -76t-14 -102.5z"/>
<glyph unicode="ç" horiz-adv-x="917" d="M88 508q0 59 4 109t16.5 104t32.5 97t53.5 82.5t78.5 66t109.5 42t143.5 15.5q199 0 316 -49q36 -16 30 -57l-14 -82q-6 -22 -18 -26.5t-45 -2.5q-189 18 -250 18q-124 0 -173.5 -71t-49.5 -242q0 -190 48.5 -261t172.5 -71q104 0 264 19q16 2 27 1.5t17 -8t9 -24.5 l12 -74q6 -24 -0.5 -37.5t-33.5 -25.5q-103 -43 -295 -47l-29 -78q114 -3 156.5 -42.5t42.5 -105.5q0 -87 -62.5 -135.5t-181.5 -48.5q-82 0 -156 23q-21 7 -16 24l14 57q3 15 23 13q84 -13 123 -13q54 0 84 15.5t30 62.5q0 39 -27.5 50t-111.5 16q-44 3 -29 47l41 119 q-90 10 -155.5 43t-103.5 79t-60.5 114t-29.5 133t-7 151z"/>
<glyph unicode="è" horiz-adv-x="1040" d="M90 498q0 50 3 92.5t14 98t29 100.5t51 90.5t77.5 76t111.5 49.5t150 19q106 0 185.5 -27.5t126 -70t75.5 -105.5t39.5 -122.5t12.5 -133.5q2 -60 -20.5 -92.5t-80.5 -32.5h-542q4 -151 60.5 -207.5t186.5 -56.5q43 0 267 23q30 3 40.5 -2t14.5 -33l12 -68 q5 -25 -1.5 -38.5t-33.5 -24.5q-58 -22 -154 -36.5t-175 -14.5q-82 0 -148 15t-112 40.5t-80.5 64.5t-55 81t-33 97t-16.5 105.5t-4 112.5zM295 1397q-24 28 6 43l115 71q31 14 45 -10l180 -307q17 -26 -6 -37l-76 -49q-21 -13 -39 8zM324 594h405q0 52 -8.5 92t-29 77 t-62.5 57t-103 20q-108 0 -151 -60.5t-51 -185.5z"/>
<glyph unicode="é" horiz-adv-x="1040" d="M90 498q0 50 3 92.5t14 98t29 100.5t51 90.5t77.5 76t111.5 49.5t150 19q106 0 185.5 -27.5t126 -70t75.5 -105.5t39.5 -122.5t12.5 -133.5q2 -60 -20.5 -92.5t-80.5 -32.5h-542q4 -151 60.5 -207.5t186.5 -56.5q43 0 267 23q30 3 40.5 -2t14.5 -33l12 -68 q5 -25 -1.5 -38.5t-33.5 -24.5q-58 -22 -154 -36.5t-175 -14.5q-82 0 -148 15t-112 40.5t-80.5 64.5t-55 81t-33 97t-16.5 105.5t-4 112.5zM324 594h405q0 52 -8.5 92t-29 77t-62.5 57t-103 20q-108 0 -151 -60.5t-51 -185.5zM469 1184l164 317q13 26 45 12l121 -61 q30 -16 8 -45l-209 -287q-16 -22 -39 -12l-80 37q-23 13 -10 39z"/>
<glyph unicode="ê" horiz-adv-x="1040" d="M90 498q0 50 3 92.5t14 98t29 100.5t51 90.5t77.5 76t111.5 49.5t150 19q106 0 185.5 -27.5t126 -70t75.5 -105.5t39.5 -122.5t12.5 -133.5q2 -60 -20.5 -92.5t-80.5 -32.5h-542q4 -151 60.5 -207.5t186.5 -56.5q43 0 267 23q30 3 40.5 -2t14.5 -33l12 -68 q5 -25 -1.5 -38.5t-33.5 -24.5q-58 -22 -154 -36.5t-175 -14.5q-82 0 -148 15t-112 40.5t-80.5 64.5t-55 81t-33 97t-16.5 105.5t-4 112.5zM183 1167q0 7 12 21l217 256q13 16 26 22.5t39 6.5h113q31 0 43.5 -5t23.5 -20l215 -260q23 -23 2 -41l-55 -49q-24 -19 -45 0 l-244 215l-233 -211q-15 -14 -24 -15t-23 11l-55 51q-12 11 -12 18zM324 594h405q0 52 -8.5 92t-29 77t-62.5 57t-103 20q-108 0 -151 -60.5t-51 -185.5z"/>
<glyph unicode="ë" horiz-adv-x="1040" d="M90 498q0 50 3 92.5t14 98t29 100.5t51 90.5t77.5 76t111.5 49.5t150 19q106 0 185.5 -27.5t126 -70t75.5 -105.5t39.5 -122.5t12.5 -133.5q2 -60 -20.5 -92.5t-80.5 -32.5h-542q4 -151 60.5 -207.5t186.5 -56.5q43 0 267 23q30 3 40.5 -2t14.5 -33l12 -68 q5 -25 -1.5 -38.5t-33.5 -24.5q-58 -22 -154 -36.5t-175 -14.5q-82 0 -148 15t-112 40.5t-80.5 64.5t-55 81t-33 97t-16.5 105.5t-4 112.5zM225 1255q0 52 25 80.5t90 28.5q66 0 89.5 -27t23.5 -82q0 -54 -23.5 -84t-89.5 -30q-69 0 -92 30t-23 84zM324 594h405 q0 52 -8.5 92t-29 77t-62.5 57t-103 20q-108 0 -151 -60.5t-51 -185.5zM625 1255q0 51 24.5 80t87.5 29q67 0 91 -27t24 -82q0 -54 -24 -84t-91 -30t-89.5 30.5t-22.5 83.5z"/>
<glyph unicode="ì" horiz-adv-x="497" d="M-25 1397q-23 27 7 43l114 71q31 14 45 -10l181 -307q17 -25 -7 -37l-75 -49q-21 -13 -39 8zM137 39v926q0 22 9 30.5t32 8.5h146q36 0 36 -39v-926q0 -39 -36 -39h-146q-23 0 -32 9t-9 30z"/>
<glyph unicode="í" horiz-adv-x="497" d="M137 39v926q0 22 9 30.5t32 8.5h146q36 0 36 -39v-926q0 -39 -36 -39h-146q-23 0 -32 9t-9 30zM195 1184l163 317q13 26 45 12l121 -61q30 -16 8 -45l-208 -287q-16 -22 -39 -12l-80 37q-23 13 -10 39z"/>
<glyph unicode="î" horiz-adv-x="663" d="M-20 1167q0 7 12 21l217 256q13 16 26 22.5t39 6.5h113q31 0 44 -5.5t24 -19.5l215 -260q23 -23 2 -41l-56 -49q-24 -19 -45 0l-243 215l-234 -211q-15 -14 -24 -15t-23 11l-55 51q-12 11 -12 18zM217 39v926q0 22 9 30.5t32 8.5h145q37 0 37 -39v-926q0 -39 -37 -39 h-145q-23 0 -32 9t-9 30z"/>
<glyph unicode="ï" horiz-adv-x="585" d="M-20 1255q0 52 24.5 80.5t89.5 28.5q66 0 89.5 -27t23.5 -82q0 -54 -23.5 -84t-89.5 -30q-69 0 -91.5 30t-22.5 84zM180 39v926q0 22 9 30.5t32 8.5h146q36 0 36 -39v-926q0 -39 -36 -39h-146q-23 0 -32 9t-9 30zM379 1255q0 51 25 80t88 29q67 0 90.5 -27t23.5 -82 q0 -54 -23.5 -84t-90.5 -30t-90 30.5t-23 83.5z"/>
<glyph unicode="ð" horiz-adv-x="1067" d="M86 483q0 72 11.5 139.5t42 138t77 122.5t124 85t175.5 33q141 0 215 -69l6 6q-16 53 -61 120t-92 116l-181 -72q-28 -14 -38 8l-21 51q-10 26 29 41l125 49q-107 77 -187 125q-28 17 -14 49l33 60q14 25 28 29t33 -5q156 -57 291 -176l152 64q31 14 45 -17l18 -39 q14 -29 -16 -41l-119 -47q111 -123 165 -273.5t60 -348.5q0 -76 -4.5 -139.5t-17.5 -131.5t-34.5 -121.5t-56.5 -102.5t-82.5 -81.5t-115 -51.5t-150.5 -19q-440 0 -440 499zM319 485q0 -55 4.5 -96t17.5 -81t35.5 -65.5t60.5 -41t91 -15.5q56 0 96 17t63 44t36 71 t16.5 85.5t3.5 100.5q0 39 -1 64.5t-5.5 60.5t-12.5 58t-23.5 47.5t-37 39t-54 24t-74.5 9.5q-122 0 -169 -82.5t-47 -239.5z"/>
<glyph unicode="ñ" horiz-adv-x="1081" d="M102 39v924q0 41 39 41h146q39 0 39 -41v-62q1 0 3 -1t3 -1q68 47 163.5 85t180.5 38q58 0 103.5 -11t77 -29.5t54 -48t35 -60t20 -73.5t9.5 -80t2 -87v-594q0 -20 -8.5 -29.5t-30.5 -9.5h-147q-39 0 -39 39l2 575q0 99 -32 150t-116 51q-93 0 -280 -92v-684 q0 -39 -39 -39h-146q-21 0 -30 9t-9 30zM149.5 1179q-3.5 11 0.5 25q38 101 99.5 148t125.5 47q47 0 109 -25.5t118 -51.5t88 -26q35 0 60 18t47 58q15 24 45 12l57 -26q22 -9 14 -39q-74 -197 -221 -197q-47 0 -162 52.5t-155 52.5q-65 0 -113 -78q-8 -13 -15 -15t-28 7 l-57 24q-9 3 -12.5 14z"/>
<glyph unicode="ò" horiz-adv-x="1071" d="M90 518q0 506 438 506q115 0 199.5 -30.5t132 -77t76 -117t37 -135t8.5 -146.5q0 -59 -2.5 -104t-13 -103.5t-29 -101.5t-52.5 -87.5t-80.5 -73t-117 -46.5t-158.5 -18q-86 0 -154 18t-113 46.5t-78 73t-50.5 87.5t-27.5 102t-12.5 103.5t-2.5 103.5zM291 1397 q-24 28 6 43l115 71q31 14 45 -10l180 -307q17 -26 -6 -37l-76 -49q-21 -13 -39 8zM317 504q0 -173 44 -248.5t167 -75.5q69 0 113.5 19t68.5 62t33 99.5t9 143.5t-8.5 143t-32.5 99t-68 62t-113 19q-124 0 -168.5 -76.5t-44.5 -246.5z"/>
<glyph unicode="ó" horiz-adv-x="1071" d="M90 518q0 506 438 506q115 0 199.5 -30.5t132 -77t76 -117t37 -135t8.5 -146.5q0 -59 -2.5 -104t-13 -103.5t-29 -101.5t-52.5 -87.5t-80.5 -73t-117 -46.5t-158.5 -18q-86 0 -154 18t-113 46.5t-78 73t-50.5 87.5t-27.5 102t-12.5 103.5t-2.5 103.5zM317 504 q0 -173 44 -248.5t167 -75.5q69 0 113.5 19t68.5 62t33 99.5t9 143.5t-8.5 143t-32.5 99t-68 62t-113 19q-124 0 -168.5 -76.5t-44.5 -246.5zM465 1184l164 317q13 26 45 12l121 -61q30 -16 8 -45l-209 -287q-16 -22 -39 -12l-80 37q-23 13 -10 39z"/>
<glyph unicode="ô" horiz-adv-x="1071" d="M90 518q0 506 438 506q115 0 199.5 -30.5t132 -77t76 -117t37 -135t8.5 -146.5q0 -59 -2.5 -104t-13 -103.5t-29 -101.5t-52.5 -87.5t-80.5 -73t-117 -46.5t-158.5 -18q-86 0 -154 18t-113 46.5t-78 73t-50.5 87.5t-27.5 102t-12.5 103.5t-2.5 103.5zM189 1167q0 7 12 21 l217 256q13 16 26 22.5t39 6.5h113q31 0 44 -5.5t24 -19.5l215 -260q23 -23 2 -41l-56 -49q-24 -19 -45 0l-243 215l-234 -211q-15 -14 -24 -15t-23 11l-55 51q-12 11 -12 18zM317 504q0 -173 44 -248.5t167 -75.5q69 0 113.5 19t68.5 62t33 99.5t9 143.5t-8.5 143t-32.5 99 t-68 62t-113 19q-124 0 -168.5 -76.5t-44.5 -246.5z"/>
<glyph unicode="õ" horiz-adv-x="1071" d="M90 518q0 506 438 506q115 0 199.5 -30.5t132 -77t76 -117t37 -135t8.5 -146.5q0 -59 -2.5 -104t-13 -103.5t-29 -101.5t-52.5 -87.5t-80.5 -73t-117 -46.5t-158.5 -18q-86 0 -154 18t-113 46.5t-78 73t-50.5 87.5t-27.5 102t-12.5 103.5t-2.5 103.5zM161.5 1179 q-3.5 11 0.5 25q38 101 99.5 148t125.5 47q47 0 109 -25.5t118 -51.5t88 -26q35 0 60 18t47 58q15 24 45 12l57 -26q22 -9 15 -39q-74 -197 -221 -197q-47 0 -162.5 52.5t-155.5 52.5q-65 0 -113 -78q-8 -13 -15 -15t-28 7l-57 24q-9 3 -12.5 14zM317 504q0 -173 44 -248.5 t167 -75.5q69 0 113.5 19t68.5 62t33 99.5t9 143.5t-8.5 143t-32.5 99t-68 62t-113 19q-124 0 -168.5 -76.5t-44.5 -246.5z"/>
<glyph unicode="ö" horiz-adv-x="1071" d="M90 518q0 506 438 506q115 0 199.5 -30.5t132 -77t76 -117t37 -135t8.5 -146.5q0 -59 -2.5 -104t-13 -103.5t-29 -101.5t-52.5 -87.5t-80.5 -73t-117 -46.5t-158.5 -18q-86 0 -154 18t-113 46.5t-78 73t-50.5 87.5t-27.5 102t-12.5 103.5t-2.5 103.5zM227 1255 q0 52 25 80.5t90 28.5q66 0 89.5 -27t23.5 -82q0 -54 -23.5 -84t-89.5 -30q-69 0 -92 30t-23 84zM317 504q0 -173 44 -248.5t167 -75.5q69 0 113.5 19t68.5 62t33 99.5t9 143.5t-8.5 143t-32.5 99t-68 62t-113 19q-124 0 -168.5 -76.5t-44.5 -246.5zM627 1255q0 51 24.5 80 t87.5 29q67 0 91 -27t24 -82q0 -54 -24 -84t-91 -30t-89.5 30.5t-22.5 83.5z"/>
<glyph unicode="÷" d="M160 614v105q0 33 35 33h786q20 0 27.5 -7t7.5 -26v-105q0 -19 -7.5 -25.5t-27.5 -6.5h-786q-35 0 -35 32zM461 332q0 57 26.5 88t96.5 31q72 0 97.5 -29t25.5 -90q0 -58 -25 -90.5t-98 -32.5q-74 0 -98.5 32.5t-24.5 90.5zM461 991q0 57 26.5 87t96.5 30q71 0 97 -29.5 t26 -87.5q0 -59 -25 -91t-98 -32q-74 0 -98.5 32t-24.5 91z"/>
<glyph unicode="ø" horiz-adv-x="1071" d="M90 518q0 506 438 506q174 0 281 -70l47 62q1 1 5 5.5t5 5.5l4 4t4 3.5l4 2t4.5 1t4.5 -1t6 -2t6 -4.5l49 -37q16 -11 16 -18.5t-12 -22.5l-59 -78q88 -120 88 -356q0 -59 -2.5 -104t-13 -103.5t-29 -101.5t-52.5 -87.5t-80.5 -73t-117 -46.5t-158.5 -18q-161 0 -258 59 l-32 -43q-21 -28 -43 -12l-50 35q-13 10 -13 18t11 22l41 56q-58 73 -76 171.5t-18 227.5zM317 504q0 -118 17 -185l348 463q-51 45 -152 45q-124 0 -168.5 -76.5t-44.5 -246.5zM399 213q44 -33 129 -33q69 0 113.5 19t68.5 62t33 99.5t9 143.5q0 91 -13 164z"/>
<glyph unicode="ù" horiz-adv-x="1087" d="M104 360v603q0 41 39 41h150q37 0 37 -41v-576q0 -102 30.5 -151.5t118.5 -49.5q94 0 277 93v684q0 41 39 41h145q39 0 39 -41v-924q0 -21 -9 -30t-30 -9h-145q-22 0 -30.5 9.5t-8.5 29.5v63l-4 2q-71 -49 -164.5 -85.5t-179.5 -36.5q-58 0 -103.5 10t-77.5 27 t-54.5 44.5t-35.5 57t-20.5 71t-10 79.5t-2.5 89zM311 1397q-24 28 6 43l115 71q31 14 45 -10l180 -307q17 -26 -6 -37l-76 -49q-21 -13 -38 8z"/>
<glyph unicode="ú" horiz-adv-x="1087" d="M104 360v603q0 41 39 41h150q37 0 37 -41v-576q0 -102 30.5 -151.5t118.5 -49.5q94 0 277 93v684q0 41 39 41h145q39 0 39 -41v-924q0 -21 -9 -30t-30 -9h-145q-22 0 -30.5 9.5t-8.5 29.5v63l-4 2q-71 -49 -164.5 -85.5t-179.5 -36.5q-58 0 -103.5 10t-77.5 27 t-54.5 44.5t-35.5 57t-20.5 71t-10 79.5t-2.5 89zM465 1184l164 317q13 26 45 12l121 -61q30 -16 8 -45l-209 -287q-16 -22 -39 -12l-80 37q-23 13 -10 39z"/>
<glyph unicode="û" horiz-adv-x="1087" d="M104 360v603q0 41 39 41h150q37 0 37 -41v-576q0 -102 30.5 -151.5t118.5 -49.5q94 0 277 93v684q0 41 39 41h145q39 0 39 -41v-924q0 -21 -9 -30t-30 -9h-145q-22 0 -30.5 9.5t-8.5 29.5v63l-4 2q-71 -49 -164.5 -85.5t-179.5 -36.5q-58 0 -103.5 10t-77.5 27 t-54.5 44.5t-35.5 57t-20.5 71t-10 79.5t-2.5 89zM193 1167q0 7 12 21l217 256q13 16 26 22.5t39 6.5h113q31 0 44 -5.5t24 -19.5l215 -260q23 -23 2 -41l-56 -49q-24 -19 -45 0l-243 215l-234 -211q-15 -14 -24 -15t-23 11l-55 51q-12 11 -12 18z"/>
<glyph unicode="ü" horiz-adv-x="1087" d="M104 360v603q0 41 39 41h150q37 0 37 -41v-576q0 -102 30.5 -151.5t118.5 -49.5q94 0 277 93v684q0 41 39 41h145q39 0 39 -41v-924q0 -21 -9 -30t-30 -9h-145q-22 0 -30.5 9.5t-8.5 29.5v63l-4 2q-71 -49 -164.5 -85.5t-179.5 -36.5q-58 0 -103.5 10t-77.5 27 t-54.5 44.5t-35.5 57t-20.5 71t-10 79.5t-2.5 89zM244 1255q0 52 24.5 80.5t89.5 28.5q66 0 89.5 -27t23.5 -82q0 -54 -23.5 -84t-89.5 -30q-69 0 -91.5 30t-22.5 84zM643 1255q0 51 25 80t88 29q67 0 90.5 -27t23.5 -82q0 -54 -23.5 -84t-90.5 -30t-90 30.5t-23 83.5z"/>
<glyph unicode="ý" horiz-adv-x="1005" d="M41 963q-16 41 22 41h158q21 0 29.5 -5t15.5 -26l133 -381l103 -305h8l106 305l127 377q6 19 16.5 27t33.5 8h151q23 0 27 -12t-4 -29l-478 -1303q-8 -21 -19 -29t-36 -8h-139q-39 0 -25 41l129 346zM424 1184l164 317q13 26 45 12l121 -61q30 -16 8 -45l-209 -287 q-16 -22 -39 -12l-80 37q-23 13 -10 39z"/>
<glyph unicode="þ" horiz-adv-x="1075" d="M115 -336v1655q0 39 41 39h145q21 0 29 -9.5t8 -29.5v-418l6 -4q71 49 157.5 86t166.5 37q98 0 165.5 -35.5t104.5 -106t52.5 -159.5t15.5 -211q0 -105 -11 -183.5t-39 -145.5t-74 -109t-117 -65t-167 -23q-128 0 -256 45l-2 -2v-361q0 -41 -39 -41h-145q-24 0 -32.5 9.5 t-8.5 31.5zM340 211q119 -35 235 -35q112 0 155.5 71.5t43.5 262.5q0 97 -9 157.5t-30.5 92.5t-49 43.5t-71.5 11.5q-56 0 -134 -29.5t-140 -62.5v-512z"/>
<glyph unicode="ÿ" horiz-adv-x="1005" d="M41 963q-16 41 22 41h158q21 0 29.5 -5t15.5 -26l133 -381l103 -305h8l106 305l127 377q6 19 16.5 27t33.5 8h151q23 0 27 -12t-4 -29l-478 -1303q-8 -21 -19 -29t-36 -8h-139q-39 0 -25 41l129 346zM197 1255q0 52 24.5 80.5t89.5 28.5q66 0 89.5 -27t23.5 -82 q0 -54 -23.5 -84t-89.5 -30q-69 0 -91.5 30t-22.5 84zM596 1255q0 51 25 80t88 29q67 0 90.5 -27t23.5 -82q0 -54 -23.5 -84t-90.5 -30t-90 30.5t-23 83.5z"/>
<glyph unicode="Ā" horiz-adv-x="1185" d="M25 9q-5 9 2 32l413 1274q8 23 20 33t38 10h178q27 0 37.5 -10t17.5 -33l422 -1278q10 -37 -20 -37h-181q-23 0 -33 9.5t-18 33.5l-86 295h-459l-92 -295q-7 -24 -20 -33.5t-35 -9.5h-160q-19 0 -24 9zM270 1524v106q0 19 8.5 26t26.5 7h563q20 0 27.5 -6.5t7.5 -26.5 v-106q0 -18 -8 -25.5t-27 -7.5h-563q-35 0 -35 33zM414 530h346l-86 291l-84 295h-8l-82 -291z"/>
<glyph unicode="ā" horiz-adv-x="1105" d="M86 274q-1 178 94 260t291 82h262v54q0 94 -44.5 130t-168.5 36q-83 0 -278 -19q-31 -5 -42.5 -0.5t-15.5 25.5l-18 76q-3 22 6 35t41 26q61 21 162.5 33t183.5 12q87 0 152 -11.5t108.5 -35.5t71 -54t41.5 -75.5t19 -90.5t5 -108v-395q0 -60 12 -74t62 -20q23 -2 31 -8 t8 -23v-86q0 -35 -49 -43q-55 -10 -96 -10q-76 0 -119 28t-57 97l-5 2q-80 -61 -178.5 -97t-197.5 -36q-154 0 -217.5 75t-63.5 215zM250 1219v106q0 20 8.5 27.5t26.5 7.5h563q19 0 27 -7.5t8 -25.5v-108q0 -33 -35 -33h-563q-35 0 -35 33zM313 285q0 -67 27.5 -93 t99.5 -26q61 0 143 29t148 67v195h-250q-83 0 -125.5 -38t-42.5 -134z"/>
<glyph unicode="Ă" horiz-adv-x="1185" d="M25 9q-5 9 2 32l413 1274q8 23 20 33t38 10h178q27 0 37.5 -10t17.5 -33l422 -1278q10 -37 -20 -37h-181q-23 0 -33 9.5t-18 33.5l-86 295h-459l-92 -295q-7 -24 -20 -33.5t-35 -9.5h-160q-19 0 -24 9zM229 1718l58 45q16 9 26 6t25 -18q62 -73 112.5 -104t122.5 -31 q69 0 119 30t111 105q23 29 51 10l55 -35q12 -8 12.5 -22t-2.5 -22.5t-12 -26.5q-54 -103 -141.5 -155t-192.5 -52q-107 0 -198.5 50.5t-141.5 152.5q-1 1 -2 4q-23 46 -2 63zM414 530h346l-86 291l-84 295h-8l-82 -291z"/>
<glyph unicode="ă" horiz-adv-x="1105" d="M86 274q-1 178 94 260t291 82h262v54q0 94 -44.5 130t-168.5 36q-83 0 -278 -19q-31 -5 -42.5 -0.5t-15.5 25.5l-18 76q-3 22 6 35t41 26q61 21 162.5 33t183.5 12q87 0 152 -11.5t108.5 -35.5t71 -54t41.5 -75.5t19 -90.5t5 -108v-395q0 -60 12 -74t62 -20q23 -2 31 -8 t8 -23v-86q0 -35 -49 -43q-55 -10 -96 -10q-76 0 -119 28t-57 97l-5 2q-80 -61 -178.5 -97t-197.5 -36q-154 0 -217.5 75t-63.5 215zM221 1399l55 45q21 10 29.5 7t24.5 -19q66 -79 116 -111.5t121 -32.5q65 0 111 31.5t117 112.5q25 28 51 10l55 -35q6 -4 9.5 -9.5 t4.5 -10.5t-1 -13t-4 -12.5t-6 -14t-5 -12.5q-54 -105 -142.5 -161t-191.5 -56q-106 0 -199.5 54.5t-140.5 158.5q-26 51 -4 68zM313 285q0 -67 27.5 -93t99.5 -26q61 0 143 29t148 67v195h-250q-83 0 -125.5 -38t-42.5 -134z"/>
<glyph unicode="Ą" horiz-adv-x="1185" d="M25 9q-5 9 2 32l413 1274q8 23 20 33t38 10h178q27 0 37.5 -10t17.5 -33l422 -1278q10 -37 -20 -37h-23q-72 -99 -72 -184q0 -82 95 -82q62 0 114 16q22 7 29 -10l18 -62q7 -21 -16 -32q-89 -44 -201 -41q-95 1 -146.5 54t-51.5 136q0 106 88 205h-15q-23 0 -33 9.5 t-18 33.5l-86 295h-459l-92 -295q-7 -24 -20 -33.5t-35 -9.5h-160q-19 0 -24 9zM414 530h346l-86 291l-84 295h-8l-82 -291z"/>
<glyph unicode="ą" horiz-adv-x="1105" d="M86 274q-1 178 94 260t291 82h262v54q0 94 -44.5 130t-168.5 36q-83 0 -278 -19q-31 -5 -42.5 -0.5t-15.5 25.5l-18 76q-3 22 6 35t41 26q61 21 162.5 33t183.5 12q87 0 152 -11.5t108.5 -35.5t71 -54t41.5 -75.5t19 -90.5t5 -108v-395q0 -60 12 -74t62 -20q23 -2 31 -8 t8 -23v-86q0 -35 -49 -43l-27 -4q-67 -94 -67 -180q0 -82 94 -82q63 0 115 16q22 7 28 -10l19 -62q7 -20 -17 -32q-89 -44 -200 -41q-95 1 -147 54t-52 136q0 102 86 203q-84 18 -104 117l-5 2q-80 -61 -178.5 -97t-197.5 -36q-154 0 -217.5 75t-63.5 215zM313 285 q0 -67 27.5 -93t99.5 -26q61 0 143 29t148 67v195h-250q-83 0 -125.5 -38t-42.5 -134z"/>
<glyph unicode="Ć" horiz-adv-x="1150" d="M127 668q0 80 6 149.5t22 143t42.5 132.5t69 113t99.5 90t136.5 57t177.5 21q91 0 196 -14t179 -45q25 -11 34 -25.5t5 -38.5l-19 -84q-5 -20 -15.5 -26.5t-37.5 -3.5q-217 26 -330 26q-81 0 -140 -26.5t-93 -68.5t-54 -109t-26 -132.5t-6 -154.5q0 -87 7.5 -153.5 t28 -130t55 -104.5t92.5 -66t136 -25q124 0 330 26q28 3 38.5 -4t16.5 -29l17 -77q6 -25 -2 -40.5t-33 -25.5q-69 -30 -180 -45.5t-199 -15.5q-133 0 -233 39t-159.5 101.5t-97 154.5t-50.5 185t-13 206zM561 1516q-14 20 10 36l293 205q23 16 45 -10l78 -113 q10 -14 5 -25.5t-19 -17.5l-318 -155q-25 -11 -41 8z"/>
<glyph unicode="ć" horiz-adv-x="917" d="M88 508q0 59 4 109t16.5 104t32.5 97t53.5 82.5t78.5 66t109.5 42t143.5 15.5q199 0 316 -49q36 -16 30 -57l-14 -82q-6 -22 -18 -26.5t-45 -2.5q-189 18 -250 18q-124 0 -173.5 -71t-49.5 -242q0 -190 48.5 -261t172.5 -71q104 0 264 19q16 2 27 1.5t17 -8t9 -24.5 l12 -74q6 -24 -0.5 -37.5t-33.5 -25.5q-111 -47 -312 -47q-80 0 -144.5 15t-110 40t-78.5 64t-53 81.5t-32 98t-16 108t-4 117.5zM412 1184l163 317q13 27 46 12l120 -61q31 -16 9 -45l-209 -287q-16 -22 -39 -12l-80 37q-23 13 -10 39z"/>
<glyph unicode="Ĉ" horiz-adv-x="1150" d="M127 668q0 80 6 149.5t22 143t42.5 132.5t69 113t99.5 90t136.5 57t177.5 21q91 0 196 -14t179 -45q25 -11 34 -25.5t5 -38.5l-19 -84q-5 -20 -15.5 -26.5t-37.5 -3.5q-217 26 -330 26q-81 0 -140 -26.5t-93 -68.5t-54 -109t-26 -132.5t-6 -154.5q0 -87 7.5 -153.5 t28 -130t55 -104.5t92.5 -66t136 -25q124 0 330 26q28 3 38.5 -4t16.5 -29l17 -77q6 -25 -2 -40.5t-33 -25.5q-69 -30 -180 -45.5t-199 -15.5q-133 0 -233 39t-159.5 101.5t-97 154.5t-50.5 185t-13 206zM307.5 1517q-0.5 7 11.5 21l228 213q1 1 7 5.5t7 5.5t6 4.5t6.5 4 t6 3t7.5 3t7.5 1.5t9.5 1.5t10 0.5h111q39 0 70 -25l225 -211q23 -20 0 -43l-51 -51q-13 -11 -20.5 -10.5t-22.5 10.5l-258 174l-250 -176q-18 -12 -26 -13t-21 11l-52 53q-11 11 -11.5 18z"/>
<glyph unicode="ĉ" horiz-adv-x="917" d="M88 508q0 59 4 109t16.5 104t32.5 97t53.5 82.5t78.5 66t109.5 42t143.5 15.5q199 0 316 -49q36 -16 30 -57l-14 -82q-6 -22 -18 -26.5t-45 -2.5q-189 18 -250 18q-124 0 -173.5 -71t-49.5 -242q0 -190 48.5 -261t172.5 -71q104 0 264 19q16 2 27 1.5t17 -8t9 -24.5 l12 -74q6 -24 -0.5 -37.5t-33.5 -25.5q-111 -47 -312 -47q-80 0 -144.5 15t-110 40t-78.5 64t-53 81.5t-32 98t-16 108t-4 117.5zM158 1167q0 7 12 21l217 256q13 16 26.5 22.5t39.5 6.5h112q31 0 44 -5.5t24 -19.5l215 -260q23 -23 2 -41l-55 -49q-24 -19 -45 0l-244 215 l-234 -211q-15 -14 -24 -15t-23 11l-55 51q-12 11 -12 18z"/>
<glyph unicode="Ċ" horiz-adv-x="1150" d="M127 668q0 80 6 149.5t22 143t42.5 132.5t69 113t99.5 90t136.5 57t177.5 21q91 0 196 -14t179 -45q25 -11 34 -25.5t5 -38.5l-19 -84q-5 -20 -15.5 -26.5t-37.5 -3.5q-217 26 -330 26q-81 0 -140 -26.5t-93 -68.5t-54 -109t-26 -132.5t-6 -154.5q0 -87 7.5 -153.5 t28 -130t55 -104.5t92.5 -66t136 -25q124 0 330 26q28 3 38.5 -4t16.5 -29l17 -77q6 -25 -2 -40.5t-33 -25.5q-69 -30 -180 -45.5t-199 -15.5q-133 0 -233 39t-159.5 101.5t-97 154.5t-50.5 185t-13 206zM580 1606q0 53 26 82.5t92 29.5q69 0 94 -28.5t25 -83.5 q0 -54 -25 -85.5t-94 -31.5q-70 0 -94 32t-24 85z"/>
<glyph unicode="ċ" horiz-adv-x="917" d="M88 508q0 59 4 109t16.5 104t32.5 97t53.5 82.5t78.5 66t109.5 42t143.5 15.5q199 0 316 -49q36 -16 30 -57l-14 -82q-6 -22 -18 -26.5t-45 -2.5q-189 18 -250 18q-124 0 -173.5 -71t-49.5 -242q0 -190 48.5 -261t172.5 -71q104 0 264 19q16 2 27 1.5t17 -8t9 -24.5 l12 -74q6 -24 -0.5 -37.5t-33.5 -25.5q-111 -47 -312 -47q-80 0 -144.5 15t-110 40t-78.5 64t-53 81.5t-32 98t-16 108t-4 117.5zM416 1264q0 53 26.5 82.5t92.5 29.5q68 0 93 -28.5t25 -83.5q0 -54 -25 -85.5t-93 -31.5q-70 0 -94.5 32t-24.5 85z"/>
<glyph unicode="Č" horiz-adv-x="1150" d="M127 668q0 80 6 149.5t22 143t42.5 132.5t69 113t99.5 90t136.5 57t177.5 21q91 0 196 -14t179 -45q25 -11 34 -25.5t5 -38.5l-19 -84q-5 -20 -15.5 -26.5t-37.5 -3.5q-217 26 -330 26q-81 0 -140 -26.5t-93 -68.5t-54 -109t-26 -132.5t-6 -154.5q0 -87 7.5 -153.5 t28 -130t55 -104.5t92.5 -66t136 -25q124 0 330 26q28 3 38.5 -4t16.5 -29l17 -77q6 -25 -2 -40.5t-33 -25.5q-69 -30 -180 -45.5t-199 -15.5q-133 0 -233 39t-159.5 101.5t-97 154.5t-50.5 185t-13 206zM322 1743l53 51q12 11 20 10.5t23 -10.5l258 -168l252 166 q19 12 25.5 12.5t21.5 -10.5l51 -49q11 -11 11.5 -18t-11.5 -21l-229 -215q-30 -27 -66 -27h-110q-41 0 -70 29l-227 207q-23 25 -2 43z"/>
<glyph unicode="č" horiz-adv-x="917" d="M88 508q0 59 4 109t16.5 104t32.5 97t53.5 82.5t78.5 66t109.5 42t143.5 15.5q199 0 316 -49q36 -16 30 -57l-14 -82q-6 -22 -18 -26.5t-45 -2.5q-189 18 -250 18q-124 0 -173.5 -71t-49.5 -242q0 -190 48.5 -261t172.5 -71q104 0 264 19q16 2 27 1.5t17 -8t9 -24.5 l12 -74q6 -24 -0.5 -37.5t-33.5 -25.5q-111 -47 -312 -47q-80 0 -144.5 15t-110 40t-78.5 64t-53 81.5t-32 98t-16 108t-4 117.5zM158.5 1418q0.5 7 11.5 18l55 51q14 12 23.5 11t23.5 -15l236 -211l242 215q22 20 45 0l55 -49q20 -18 0 -41l-215 -260q-13 -15 -25.5 -20 t-44.5 -5h-110q-29 0 -42.5 6t-25.5 23l-217 256q-12 14 -11.5 21z"/>
<glyph unicode="Ď" horiz-adv-x="1292" d="M143 39v1280q0 39 39 39h416q133 0 234 -35.5t164 -95.5t102.5 -148.5t55 -184t15.5 -212.5q0 -118 -15 -214t-54 -185.5t-101.5 -150t-164.5 -96.5t-236 -36h-410q-25 0 -35 9.5t-10 29.5zM236 1731l53 51q12 11 20 10.5t23 -10.5l258 -168l252 166q19 12 25.5 12.5 t21.5 -10.5l51 -49q11 -11 11.5 -18t-11.5 -21l-229 -215q-30 -27 -66 -27h-110q-41 0 -70 29l-227 207q-23 25 -2 43zM375 203h198q59 0 108 11t96 42.5t79.5 82t52 134.5t19.5 195q0 140 -24.5 238t-72 151.5t-106.5 76.5t-137 23h-213v-954z"/>
<glyph unicode="ď" horiz-adv-x="1347" d="M86 489q0 106 10.5 185t37.5 147.5t72.5 111.5t117.5 67t170 24q129 0 254 -47q1 0 2 1t2 1v424q0 22 8 31.5t31 9.5h145q23 0 30 -10t7 -31v-1364q0 -20 -8 -29.5t-29 -9.5h-148q-20 0 -28 8.5t-8 28.5v65q-1 0 -3.5 1t-3.5 1q-67 -47 -154 -83.5t-169 -36.5 q-98 0 -164.5 34.5t-103.5 103.5t-52.5 157t-15.5 210zM315 492q0 -97 9 -158t30.5 -93.5t48.5 -43.5t70 -11q100 0 277 93v514q-118 34 -236 34q-113 0 -156 -71.5t-43 -263.5zM1081.5 1070q1.5 9 16.5 26q61 56 61 139q0 55 -51 117q-32 32 6 65l103 74q24 15 37.5 12 t33.5 -20q34 -31 52 -74t18 -82q0 -110 -49.5 -192t-126.5 -129q-34 -19 -52 2l-40 39q-10 14 -8.5 23z"/>
<glyph unicode="Đ" horiz-adv-x="1292" d="M-8 637v100q0 20 8.5 27.5t26.5 7.5h116v547q0 39 39 39h416q133 0 234 -35.5t164 -95.5t102.5 -148.5t55 -184t15.5 -212.5q0 -118 -15 -214t-54 -185.5t-101.5 -150t-164.5 -96.5t-236 -36h-410q-25 0 -35 9.5t-10 29.5v567h-116q-35 0 -35 31zM375 203h198 q59 0 108 11t96 42.5t79.5 82t52 134.5t19.5 195q0 140 -24.5 238t-72 151.5t-106.5 76.5t-137 23h-213v-385h211q19 0 27 -7.5t8 -25.5v-102q0 -31 -35 -31h-211v-403z"/>
<glyph unicode="đ" horiz-adv-x="1095" d="M86 477q0 106 10.5 184t37.5 144.5t73 107.5t117.5 63.5t169.5 22.5q128 0 254 -47q1 0 2 1t2 1v156h-293q-31 0 -31 27v90q0 18 6.5 23t24.5 5h293v148q0 22 8 31.5t31 9.5h145q23 0 30 -10t7 -31v-148h104q18 0 24.5 -5t6.5 -23v-90q0 -27 -29 -27h-106v-1071 q0 -20 -8 -29.5t-29 -9.5h-145q-21 0 -30 9t-9 30v63q-1 0 -3.5 1t-3.5 1q-60 -42 -141 -77.5t-158 -38.5q-14 -2 -36 -2q-18 0 -50 4q-80 10 -134 47t-84.5 102t-43 146t-12.5 192zM315 479q0 -122 18.5 -187t50 -85.5t89.5 -20.5q100 0 277 93v489q-122 35 -236 35 q-112 0 -155.5 -71t-43.5 -253z"/>
<glyph unicode="Ē" horiz-adv-x="1081" d="M145 37v1282q0 41 41 41h754q39 0 39 -39v-127q0 -19 -9 -28t-32 -9h-559v-352h495q41 0 41 -37v-127q0 -19 -9 -28t-32 -9h-495v-403h573q37 0 37 -39v-125q0 -20 -8.5 -28.5t-30.5 -8.5h-764q-41 0 -41 37zM256 1524v106q0 19 8.5 26t26.5 7h563q20 0 27.5 -6.5 t7.5 -26.5v-106q0 -18 -8 -25.5t-27 -7.5h-563q-35 0 -35 33z"/>
<glyph unicode="ē" horiz-adv-x="1040" d="M90 498q0 50 3 92.5t14 98t29 100.5t51 90.5t77.5 76t111.5 49.5t150 19q106 0 185.5 -27.5t126 -70t75.5 -105.5t39.5 -122.5t12.5 -133.5q2 -60 -20.5 -92.5t-80.5 -32.5h-542q4 -151 60.5 -207.5t186.5 -56.5q43 0 267 23q30 3 40.5 -2t14.5 -33l12 -68 q5 -25 -1.5 -38.5t-33.5 -24.5q-58 -22 -154 -36.5t-175 -14.5q-82 0 -148 15t-112 40.5t-80.5 64.5t-55 81t-33 97t-16.5 105.5t-4 112.5zM221 1198v107q0 19 8.5 26.5t26.5 7.5h563q19 0 27 -7t8 -25v-109q0 -33 -35 -33h-563q-35 0 -35 33zM324 594h405q0 52 -8.5 92 t-29 77t-62.5 57t-103 20q-108 0 -151 -60.5t-51 -185.5z"/>
<glyph unicode="Ĕ" horiz-adv-x="1081" d="M145 37v1282q0 41 41 41h754q39 0 39 -39v-127q0 -19 -9 -28t-32 -9h-559v-352h495q41 0 41 -37v-127q0 -19 -9 -28t-32 -9h-495v-403h573q37 0 37 -39v-125q0 -20 -8.5 -28.5t-30.5 -8.5h-764q-41 0 -41 37zM205 1718l57 45q16 9 26 6t25 -18q62 -73 113 -104t123 -31 q69 0 118.5 30t110.5 105q23 29 51 10l56 -35q12 -8 12.5 -22t-2.5 -22.5t-12 -26.5q-54 -103 -141.5 -155t-192.5 -52q-107 0 -198.5 50.5t-141.5 152.5q-1 1 -2 4q-23 46 -2 63z"/>
<glyph unicode="ĕ" horiz-adv-x="1040" d="M90 498q0 50 3 92.5t14 98t29 100.5t51 90.5t77.5 76t111.5 49.5t150 19q106 0 185.5 -27.5t126 -70t75.5 -105.5t39.5 -122.5t12.5 -133.5q2 -60 -20.5 -92.5t-80.5 -32.5h-542q4 -151 60.5 -207.5t186.5 -56.5q43 0 267 23q30 3 40.5 -2t14.5 -33l12 -68 q5 -25 -1.5 -38.5t-33.5 -24.5q-58 -22 -154 -36.5t-175 -14.5q-82 0 -148 15t-112 40.5t-80.5 64.5t-55 81t-33 97t-16.5 105.5t-4 112.5zM176.5 1357.5q0.5 3.5 1.5 7t3.5 7t6.5 6.5l56 45q12 8 21.5 7.5t15 -4.5t16.5 -15q66 -78 116.5 -110.5t121.5 -32.5q65 0 110.5 31 t116.5 112q25 28 51 10l55 -35q8 -5 11.5 -10.5t2 -15t-2.5 -14t-6.5 -17t-6.5 -14.5q-54 -105 -142.5 -161t-191.5 -56q-106 0 -199 54.5t-140 158.5q-1 1 -3.5 6.5t-3.5 8t-3.5 7.5t-3 8t-2 8t-1 8.5zM324 594h405q0 52 -8.5 92t-29 77t-62.5 57t-103 20 q-108 0 -151 -60.5t-51 -185.5z"/>
<glyph unicode="Ė" horiz-adv-x="1081" d="M145 37v1282q0 41 41 41h754q39 0 39 -39v-127q0 -19 -9 -28t-32 -9h-559v-352h495q41 0 41 -37v-127q0 -19 -9 -28t-32 -9h-495v-403h573q37 0 37 -39v-125q0 -20 -8.5 -28.5t-30.5 -8.5h-764q-41 0 -41 37zM469 1571q0 53 26.5 82.5t92.5 29.5q69 0 94 -28.5t25 -83.5 q0 -54 -25 -85.5t-94 -31.5q-70 0 -94.5 32t-24.5 85z"/>
<glyph unicode="ė" horiz-adv-x="1040" d="M90 498q0 50 3 92.5t14 98t29 100.5t51 90.5t77.5 76t111.5 49.5t150 19q106 0 185.5 -27.5t126 -70t75.5 -105.5t39.5 -122.5t12.5 -133.5q2 -60 -20.5 -92.5t-80.5 -32.5h-542q4 -151 60.5 -207.5t186.5 -56.5q43 0 267 23q30 3 40.5 -2t14.5 -33l12 -68 q5 -25 -1.5 -38.5t-33.5 -24.5q-58 -22 -154 -36.5t-175 -14.5q-82 0 -148 15t-112 40.5t-80.5 64.5t-55 81t-33 97t-16.5 105.5t-4 112.5zM324 594h405q0 52 -8.5 92t-29 77t-62.5 57t-103 20q-108 0 -151 -60.5t-51 -185.5zM428 1264q0 53 26.5 82.5t92.5 29.5 q69 0 94 -28.5t25 -83.5q0 -54 -25 -85.5t-94 -31.5q-70 0 -94.5 32t-24.5 85z"/>
<glyph unicode="Ę" horiz-adv-x="1081" d="M145 37v1282q0 41 41 41h754q39 0 39 -39v-127q0 -19 -9 -28t-32 -9h-559v-352h495q41 0 41 -37v-127q0 -19 -9 -28t-32 -9h-495v-403h573q37 0 37 -39v-125q0 -20 -8.5 -28.5t-30.5 -8.5h-6q-72 -99 -72 -184q0 -82 95 -82q62 0 114 16q22 7 29 -10l18 -62 q7 -21 -16 -32q-89 -44 -201 -41q-95 1 -146.5 54t-51.5 136q0 106 88 205h-615q-41 0 -41 37z"/>
<glyph unicode="ę" horiz-adv-x="1040" d="M90 498q0 50 3 92.5t14 98t29 100.5t51 90.5t77.5 76t111.5 49.5t150 19q106 0 185.5 -27.5t126 -70t75.5 -105.5t39.5 -122.5t12.5 -133.5q2 -60 -20.5 -92.5t-80.5 -32.5h-542q4 -151 60.5 -207.5t186.5 -56.5q43 0 267 23q30 3 40.5 -2t14.5 -33l12 -68 q5 -25 -1.5 -38.5t-33.5 -24.5q-53 -18 -75 -23q-80 -102 -80 -194q0 -82 94 -82q63 0 115 16q22 7 28 -10l19 -62q7 -20 -17 -32q-89 -44 -200 -41q-95 1 -147 54t-52 136q0 98 76 191q-66 -4 -90 -4q-82 0 -148 15t-112 40.5t-80.5 64.5t-55 81t-33 97t-16.5 105.5 t-4 112.5zM324 594h405q0 52 -8.5 92t-29 77t-62.5 57t-103 20q-108 0 -151 -60.5t-51 -185.5z"/>
<glyph unicode="Ě" horiz-adv-x="1081" d="M145 37v1282q0 41 41 41h754q39 0 39 -39v-127q0 -19 -9 -28t-32 -9h-559v-352h495q41 0 41 -37v-127q0 -19 -9 -28t-32 -9h-495v-403h573q37 0 37 -39v-125q0 -20 -8.5 -28.5t-30.5 -8.5h-764q-41 0 -41 37zM203 1731l53 51q12 11 20 10.5t23 -10.5l258 -168l252 166 q19 12 25.5 12.5t21.5 -10.5l51 -49q11 -11 11.5 -18t-11.5 -21l-229 -215q-30 -27 -66 -27h-110q-41 0 -70 29l-227 207q-23 25 -2 43z"/>
<glyph unicode="ě" horiz-adv-x="1040" d="M90 498q0 50 3 92.5t14 98t29 100.5t51 90.5t77.5 76t111.5 49.5t150 19q106 0 185.5 -27.5t126 -70t75.5 -105.5t39.5 -122.5t12.5 -133.5q2 -60 -20.5 -92.5t-80.5 -32.5h-542q4 -151 60.5 -207.5t186.5 -56.5q43 0 267 23q30 3 40.5 -2t14.5 -33l12 -68 q5 -25 -1.5 -38.5t-33.5 -24.5q-58 -22 -154 -36.5t-175 -14.5q-82 0 -148 15t-112 40.5t-80.5 64.5t-55 81t-33 97t-16.5 105.5t-4 112.5zM181.5 1418q0.5 7 11.5 18l55 51q14 12 23.5 11t23.5 -15l235 -211l242 215q22 20 45 0l55 -49q20 -18 0 -41l-215 -260 q-13 -15 -25 -20t-44 -5h-111q-29 0 -42 6t-25 23l-217 256q-12 14 -11.5 21zM324 594h405q0 52 -8.5 92t-29 77t-62.5 57t-103 20q-108 0 -151 -60.5t-51 -185.5z"/>
<glyph unicode="Ĝ" horiz-adv-x="1273" d="M129 670q0 79 6.5 148.5t23 142.5t43 132.5t69.5 113t99.5 89.5t136 57t175.5 21q91 0 196 -14t179 -45q25 -9 34 -23.5t5 -40.5l-21 -86q-3 -20 -13.5 -26t-37.5 -2q-217 26 -326 26q-80 0 -139 -26.5t-93.5 -69t-55 -108.5t-27 -132.5t-6.5 -154.5q0 -84 7 -150 t28 -131t56 -107.5t93 -69t137 -26.5q128 0 211 25v342h-166q-23 0 -32 9t-9 30v121q0 19 9 28t32 9h355q21 0 32 -12.5t11 -26.5q0 -478 -2 -584q0 -34 -12.5 -55.5t-45.5 -32.5q-171 -59 -389 -59q-107 0 -193.5 23t-147.5 68t-104.5 104.5t-69 139t-37 165.5t-11.5 188z M334.5 1521q-0.5 7 11.5 21l227 213q16 12 21.5 16t18 8.5t28.5 4.5h111q25 0 38 -5.5t31 -19.5l226 -211q23 -20 0 -43l-52 -51q-13 -11 -20.5 -10.5t-22.5 10.5l-258 174l-250 -176q-18 -12 -26 -13t-21 11l-51 53q-11 11 -11.5 18z"/>
<glyph unicode="ĝ" horiz-adv-x="1083" d="M94 498q0 127 21.5 219t71.5 163.5t139 107.5t217 36q99 0 206 -14.5t181 -38.5q55 -18 55 -92v-867q0 -56 -3.5 -97.5t-14 -87t-29.5 -77t-51 -61.5t-77 -48t-110 -29t-147 -11q-217 0 -330 47q-29 11 -37 25t-4 34l17 76q4 24 17 29.5t42 -0.5q138 -21 283 -21 q126 0 171.5 40.5t45.5 139.5v68q-138 -49 -252 -49q-98 0 -170.5 24.5t-118 66.5t-73.5 107.5t-39 139.5t-11 170zM226 1167q0 7 12 21l217 256q13 16 26 22.5t39 6.5h113q31 0 43.5 -5t23.5 -20l215 -260q23 -23 3 -41l-56 -49q-24 -19 -45 0l-244 215l-233 -211 q-15 -14 -24 -15t-23 11l-55 51q-12 11 -12 18zM328 516q0 -185 44.5 -257.5t153.5 -72.5q112 0 232 35v584q-113 18 -205 18q-54 0 -90 -10.5t-69 -41t-49.5 -94t-16.5 -161.5z"/>
<glyph unicode="Ğ" horiz-adv-x="1273" d="M129 670q0 79 6.5 148.5t23 142.5t43 132.5t69.5 113t99.5 89.5t136 57t175.5 21q91 0 196 -14t179 -45q25 -9 34 -23.5t5 -40.5l-21 -86q-3 -20 -13.5 -26t-37.5 -2q-217 26 -326 26q-80 0 -139 -26.5t-93.5 -69t-55 -108.5t-27 -132.5t-6.5 -154.5q0 -84 7 -150 t28 -131t56 -107.5t93 -69t137 -26.5q128 0 211 25v342h-166q-23 0 -32 9t-9 30v121q0 19 9 28t32 9h355q21 0 32 -12.5t11 -26.5q0 -478 -2 -584q0 -34 -12.5 -55.5t-45.5 -32.5q-171 -59 -389 -59q-107 0 -193.5 23t-147.5 68t-104.5 104.5t-69 139t-37 165.5t-11.5 188z M350 1724l58 45q16 9 26 6t25 -18q62 -73 112.5 -104t122.5 -31q69 0 119 30t111 105q23 29 51 10l55 -34q12 -8 13 -22t-2.5 -23t-12.5 -27q-54 -103 -141.5 -155t-192.5 -52q-107 0 -198.5 50.5t-141.5 152.5q-1 1 -2 4q-23 46 -2 63z"/>
<glyph unicode="ğ" horiz-adv-x="1083" d="M94 498q0 127 21.5 219t71.5 163.5t139 107.5t217 36q99 0 206 -14.5t181 -38.5q55 -18 55 -92v-867q0 -56 -3.5 -97.5t-14 -87t-29.5 -77t-51 -61.5t-77 -48t-110 -29t-147 -11q-217 0 -330 47q-29 11 -37 25t-4 34l17 76q4 24 17 29.5t42 -0.5q138 -21 283 -21 q126 0 171.5 40.5t45.5 139.5v68q-138 -49 -252 -49q-98 0 -170.5 24.5t-118 66.5t-73.5 107.5t-39 139.5t-11 170zM221 1399l55 45q21 10 29.5 7t24.5 -19q66 -79 116 -111.5t121 -32.5q65 0 111 31.5t117 112.5q25 28 51 10l55 -35q6 -4 9.5 -9.5t4.5 -10.5t-1 -13 t-4 -12.5t-6 -14t-5 -12.5q-54 -105 -142.5 -161t-191.5 -56q-106 0 -199.5 54.5t-140.5 158.5q-26 51 -4 68zM328 516q0 -185 44.5 -257.5t153.5 -72.5q112 0 232 35v584q-113 18 -205 18q-54 0 -90 -10.5t-69 -41t-49.5 -94t-16.5 -161.5z"/>
<glyph unicode="Ġ" horiz-adv-x="1273" d="M129 670q0 79 6.5 148.5t23 142.5t43 132.5t69.5 113t99.5 89.5t136 57t175.5 21q91 0 196 -14t179 -45q25 -9 34 -23.5t5 -40.5l-21 -86q-3 -20 -13.5 -26t-37.5 -2q-217 26 -326 26q-80 0 -139 -26.5t-93.5 -69t-55 -108.5t-27 -132.5t-6.5 -154.5q0 -84 7 -150 t28 -131t56 -107.5t93 -69t137 -26.5q128 0 211 25v342h-166q-23 0 -32 9t-9 30v121q0 19 9 28t32 9h355q21 0 32 -12.5t11 -26.5q0 -478 -2 -584q0 -34 -12.5 -55.5t-45.5 -32.5q-171 -59 -389 -59q-107 0 -193.5 23t-147.5 68t-104.5 104.5t-69 139t-37 165.5t-11.5 188z M582 1591q0 53 26 83t92 30q68 0 93.5 -29t25.5 -84q0 -54 -25 -85t-94 -31q-70 0 -94 31.5t-24 84.5z"/>
<glyph unicode="ġ" horiz-adv-x="1083" d="M94 498q0 127 21.5 219t71.5 163.5t139 107.5t217 36q99 0 206 -14.5t181 -38.5q55 -18 55 -92v-867q0 -56 -3.5 -97.5t-14 -87t-29.5 -77t-51 -61.5t-77 -48t-110 -29t-147 -11q-217 0 -330 47q-29 11 -37 25t-4 34l17 76q4 24 17 29.5t42 -0.5q138 -21 283 -21 q126 0 171.5 40.5t45.5 139.5v68q-138 -49 -252 -49q-98 0 -170.5 24.5t-118 66.5t-73.5 107.5t-39 139.5t-11 170zM328 516q0 -185 44.5 -257.5t153.5 -72.5q112 0 232 35v584q-113 18 -205 18q-54 0 -90 -10.5t-69 -41t-49.5 -94t-16.5 -161.5zM463 1264q0 53 26.5 82.5 t92.5 29.5q68 0 93 -28.5t25 -83.5q0 -54 -25 -85.5t-93 -31.5q-70 0 -94.5 32t-24.5 85z"/>
<glyph unicode="Ģ" horiz-adv-x="1273" d="M129 670q0 79 6.5 148.5t23 142.5t43 132.5t69.5 113t99.5 89.5t136 57t175.5 21q91 0 196 -14t179 -45q25 -9 34 -23.5t5 -40.5l-21 -86q-3 -20 -13.5 -26t-37.5 -2q-217 26 -326 26q-80 0 -139 -26.5t-93.5 -69t-55 -108.5t-27 -132.5t-6.5 -154.5q0 -84 7 -150 t28 -131t56 -107.5t93 -69t137 -26.5q128 0 211 25v342h-166q-23 0 -32 9t-9 30v121q0 19 9 28t32 9h355q21 0 32 -12.5t11 -26.5q0 -478 -2 -584q0 -34 -12.5 -55.5t-45.5 -32.5q-171 -59 -389 -59q-107 0 -193.5 23t-147.5 68t-104.5 104.5t-69 139t-37 165.5t-11.5 188z M558.5 -532q1.5 9 16.5 26q62 57 62 139q0 55 -51 117q-16 14 -16 30.5t22 35.5l102 73q24 15 38 12t34 -20q34 -31 52 -73.5t18 -81.5q0 -110 -50 -192.5t-127 -129.5q-33 -19 -51 2l-41 39q-10 14 -8.5 23z"/>
<glyph unicode="ģ" horiz-adv-x="1083" d="M94 498q0 127 21.5 219t71.5 163.5t139 107.5t217 36q99 0 206 -14.5t181 -38.5q55 -18 55 -92v-867q0 -56 -3.5 -97.5t-14 -87t-29.5 -77t-51 -61.5t-77 -48t-110 -29t-147 -11q-217 0 -330 47q-29 11 -37 25t-4 34l17 76q4 24 17 29.5t42 -0.5q138 -21 283 -21 q126 0 171.5 40.5t45.5 139.5v68q-138 -49 -252 -49q-98 0 -170.5 24.5t-118 66.5t-73.5 107.5t-39 139.5t-11 170zM328 516q0 -185 44.5 -257.5t153.5 -72.5q112 0 232 35v584q-113 18 -205 18q-54 0 -90 -10.5t-69 -41t-49.5 -94t-16.5 -161.5zM457 1276q0 113 53.5 199.5 t130.5 130.5q32 18 55 -2l35 -35q13 -14 11.5 -22.5t-19.5 -26.5q-66 -58 -66 -138q0 -63 48 -122q36 -36 -5 -62l-102 -76q-33 -23 -72 8q-32 30 -50.5 70.5t-18.5 75.5z"/>
<glyph unicode="Ĥ" horiz-adv-x="1265" d="M143 39v1280q0 41 41 41h154q37 0 37 -41v-504h516v504q0 41 41 41h153q37 0 37 -41v-1280q0 -39 -37 -39h-153q-41 0 -41 39v573h-516v-573q0 -39 -37 -39h-154q-41 0 -41 39zM269.5 1519q-0.5 7 11.5 21l227 213q1 1 7 5.5t7 5.5t6 4.5t6.5 4t6 3t7.5 3t7.5 1.5 t9.5 1.5t10 0.5h111q39 0 70 -25l225 -211q23 -20 0 -43l-51 -51q-13 -11 -20.5 -10.5t-22.5 10.5l-258 174l-250 -176q-18 -12 -26 -13t-21 11l-51 53q-11 11 -11.5 18z"/>
<glyph unicode="ĥ" horiz-adv-x="1089" d="M-132.5 1529q-0.5 7 11.5 21l227 213q16 12 21.5 16t18 8.5t28.5 4.5h111q25 0 38 -5.5t31 -19.5l226 -211q23 -20 0 -43l-52 -51q-13 -11 -20.5 -10.5t-22.5 10.5l-258 174l-250 -176q-18 -12 -26 -13t-21 11l-51 53q-11 11 -11.5 18zM106 39v1366q0 39 37 39h146 q41 0 41 -39v-496q186 113 340 113q59 0 106 -11t79.5 -29.5t55.5 -48t36.5 -60t21 -73t10 -80t2.5 -87.5v-594q0 -39 -41 -39h-145q-41 0 -41 39q0 99 1 296t1 296q0 94 -31 142t-117 48q-78 0 -280 -92v-690q0 -20 -8.5 -29.5t-30.5 -9.5h-146q-37 0 -37 39z"/>
<glyph unicode="Ħ" horiz-adv-x="1265" d="M16 1034v78q0 37 37 37h90v170q0 41 41 41h154q37 0 37 -41v-170h516v170q0 41 41 41h153q37 0 37 -41v-170h95q21 0 28.5 -8.5t7.5 -28.5v-78q0 -18 -7.5 -26.5t-26.5 -8.5h-97v-960q0 -39 -37 -39h-153q-41 0 -41 39v573h-516v-573q0 -39 -37 -39h-154q-41 0 -41 39 v960h-92q-35 0 -35 35zM375 815h516v184h-516v-184z"/>
<glyph unicode="ħ" horiz-adv-x="1110" d="M-4 1135v75q0 21 7 28t28 7h94v160q0 39 37 39h145q41 0 41 -39v-160h402q21 0 27.5 -7.5t6.5 -27.5v-75q0 -20 -6.5 -27.5t-27.5 -7.5h-402v-242l2 -2q71 44 162 79.5t176 35.5q59 0 106 -11t79.5 -29.5t55.5 -48.5t36.5 -61t21 -73.5t10 -80t2.5 -87.5v-541 q0 -39 -41 -39h-145q-39 0 -39 39v541q0 95 -31 141.5t-116 46.5q-54 0 -136 -30.5t-143 -61.5v-637q0 -39 -41 -39h-145q-37 0 -37 39v1061h-94q-21 0 -28 7t-7 28z"/>
<glyph unicode="Ĩ" horiz-adv-x="565" d="M-102.5 1527q-3.5 11 0.5 25q38 101 99.5 148t125.5 47q47 0 109 -25.5t118 -51t88 -25.5q66 0 107 75q15 25 45 13l57 -27q23 -9 15 -39q-74 -197 -222 -197q-47 0 -162 52.5t-155 52.5q-65 0 -113 -78q-8 -13 -15 -15t-28 7l-57 24q-9 3 -12.5 14zM164 39v1280 q0 41 39 41h155q39 0 39 -41v-1280q0 -39 -39 -39h-155q-21 0 -30 9t-9 30z"/>
<glyph unicode="ĩ" horiz-adv-x="731" d="M-16.5 1179q-3.5 11 0.5 25q38 101 99.5 148t125.5 47q47 0 109 -25.5t118 -51.5t88 -26q35 0 60 18t47 58q15 24 45 12l57 -26q22 -9 15 -39q-74 -197 -222 -197q-47 0 -162 52.5t-155 52.5q-65 0 -113 -78q-8 -13 -15 -15t-28 7l-57 24q-9 3 -12.5 14zM252 39v926 q0 22 9 30.5t32 8.5h145q37 0 37 -39v-926q0 -39 -37 -39h-145q-23 0 -32 9t-9 30z"/>
<glyph unicode="Ī" horiz-adv-x="591" d="M-20 1524v106q0 19 8 26t26 7h564q19 0 26.5 -6.5t7.5 -26.5v-106q0 -19 -7.5 -26t-26.5 -7h-564q-34 0 -34 33zM180 39v1280q0 41 39 41h156q39 0 39 -41v-1280q0 -39 -39 -39h-156q-21 0 -30 9t-9 30z"/>
<glyph unicode="ī" horiz-adv-x="591" d="M-20 1198v107q0 19 8 26.5t26 7.5h564q19 0 26.5 -7t7.5 -25v-109q0 -18 -8 -25.5t-26 -7.5h-564q-34 0 -34 33zM182 39v926q0 22 9 30.5t32 8.5h146q37 0 37 -39v-926q0 -39 -37 -39h-146q-23 0 -32 9t-9 30z"/>
<glyph unicode="Ĭ" horiz-adv-x="665" d="M-8 1720l57 45q16 9 26 6t25 -18q62 -73 113 -104t123 -31q69 0 118.5 30t110.5 105q23 29 51 10l56 -34q12 -8 13 -22t-2.5 -23t-12.5 -27q-54 -103 -141.5 -155t-192.5 -52q-107 0 -198.5 50.5t-141.5 152.5q-1 1 -2 4q-23 46 -2 63zM215 39v1280q0 41 39 41h156 q39 0 39 -41v-1280q0 -39 -39 -39h-156q-21 0 -30 9t-9 30z"/>
<glyph unicode="ĭ" horiz-adv-x="665" d="M-8 1391l55 45q12 8 21.5 7.5t14.5 -4.5t17 -16q66 -78 116.5 -110.5t121.5 -32.5q65 0 110.5 31t116.5 112q26 29 51 11l56 -35q6 -4 9.5 -9.5t4.5 -10.5t-1 -13t-4 -12.5t-6 -14t-5 -12.5q-54 -105 -142.5 -161t-191.5 -56q-106 0 -199.5 54.5t-140.5 158.5 q-26 51 -4 68zM219 39v926q0 22 9 30.5t32 8.5h146q36 0 36 -39v-926q0 -39 -36 -39h-146q-23 0 -32 9t-9 30z"/>
<glyph unicode="Į" horiz-adv-x="565" d="M111 -205q0 106 88 205q-20 0 -27.5 9t-7.5 30v1280q0 41 39 41h155q39 0 39 -41v-1280q0 -39 -39 -39h-16q-72 -99 -72 -184q0 -82 95 -82q62 0 114 16q22 7 29 -10l18 -62q7 -21 -16 -32q-89 -44 -201 -41q-95 1 -146.5 54t-51.5 136z"/>
<glyph unicode="į" horiz-adv-x="505" d="M84 -205q0 106 88 205q-33 3 -33 39v926q0 21 9.5 30t31.5 9h146q36 0 36 -39v-926q0 -39 -36 -39h-11q-71 -98 -71 -184q0 -82 94 -82q63 0 115 16q22 7 28 -10l19 -62q7 -20 -17 -32q-89 -44 -200 -41q-95 1 -147 54t-52 136zM133 1270q0 55 26.5 85.5t94.5 30.5 q70 0 95.5 -29t25.5 -87q0 -55 -25.5 -87t-95.5 -32q-72 0 -96.5 32.5t-24.5 86.5z"/>
<glyph unicode="İ" horiz-adv-x="565" d="M164 39v1280q0 41 39 41h155q39 0 39 -41v-1280q0 -39 -39 -39h-155q-21 0 -30 9t-9 30zM166 1612q0 53 26.5 82.5t92.5 29.5q68 0 93 -28.5t25 -83.5q0 -54 -25 -85.5t-93 -31.5q-70 0 -94.5 32t-24.5 85z"/>
<glyph unicode="ı" horiz-adv-x="497" d="M137 39v926q0 22 9 30.5t32 8.5h146q36 0 36 -39v-926q0 -39 -36 -39h-146q-23 0 -32 9t-9 30z"/>
<glyph unicode="Ĳ" horiz-adv-x="1357" d="M164 39v1280q0 41 39 41h155q39 0 39 -41v-1280q0 -39 -39 -39h-155q-21 0 -30 9t-9 30zM471 90l21 92q6 21 14 26t31 1q126 -16 208 -16q123 0 167 44.5t44 141.5v940q0 41 41 41h154q39 0 39 -41v-975q0 -362 -412 -362q-151 0 -260 43q-36 13 -45.5 26.5t-1.5 38.5z "/>
<glyph unicode="ĳ" horiz-adv-x="954" d="M133 1270q0 55 26.5 85.5t94.5 30.5q70 0 95.5 -29t25.5 -87q0 -55 -25.5 -87t-95.5 -32q-72 0 -96.5 32.5t-24.5 86.5zM139 39v926q0 21 9.5 30t31.5 9h146q36 0 36 -39v-926q0 -39 -36 -39h-146q-41 0 -41 39zM299 -289q-3 24 3.5 32t29.5 13q56 11 86.5 18.5t64 19.5 t48.5 25t29.5 35t19 50t4.5 69v992q0 21 9.5 30t31.5 9h143q41 0 41 -39v-988q0 -103 -23.5 -177.5t-76 -128t-141.5 -77.5t-216 -20q-15 0 -29.5 9.5t-15.5 31.5zM575 1270q0 55 27 85.5t94 30.5q70 0 95.5 -29t25.5 -87q0 -55 -25.5 -87t-95.5 -32q-72 0 -96.5 32.5 t-24.5 86.5z"/>
<glyph unicode="Ĵ" horiz-adv-x="905" d="M18 92l21 92q6 21 14 26t31 1q126 -16 209 -16q123 0 167 44.5t44 141.5v940q0 41 41 41h153q39 0 39 -41v-975q0 -362 -411 -362q-151 0 -260 43q-36 13 -46 26.5t-2 38.5zM260.5 1501q-0.5 7 11.5 21l228 213q15 12 21 16t18 8t28 4h111q40 0 70 -24l225 -211 q23 -20 0 -43l-51 -51q-13 -11 -20.5 -10.5t-22.5 10.5l-258 174l-250 -176q-18 -12 -26 -13t-21 11l-52 53q-11 11 -11.5 18z"/>
<glyph unicode="ĵ" horiz-adv-x="708" d="M-18 -289q-3 21 4 30.5t28 14.5q56 11 86.5 18.5t64 19.5t48.5 25t29.5 35t19 50t4.5 69v992q0 21 9.5 30t31.5 9h144q41 0 41 -39v-988q0 -103 -23.5 -177.5t-76 -128t-141.5 -77.5t-216 -20q-15 0 -29.5 9.5t-15.5 31.5zM25 1167q0 7 12 21l217 256q13 16 26 22.5 t39 6.5h113q31 0 44 -5.5t24 -19.5l215 -260q23 -23 2 -41l-55 -49q-24 -19 -46 0l-243 215l-234 -211q-15 -14 -24 -15t-23 11l-55 51q-12 11 -12 18z"/>
<glyph unicode="Ķ" horiz-adv-x="1187" d="M135 39v1280q0 41 41 41h154q37 0 37 -41v-614h4l155 200l344 424q28 31 68 31h186q21 0 27 -13t-8 -28l-445 -541l459 -735q11 -20 4.5 -31.5t-24.5 -11.5h-189q-25 0 -38.5 9t-26.5 30l-336 557l-180 -223v-334q0 -39 -37 -39h-154q-41 0 -41 39zM446.5 -491 q1.5 9 16.5 26q61 56 61 139q0 55 -51 117q-16 14 -16 30.5t22 35.5l103 73q24 15 37.5 12t33.5 -20q34 -31 52 -73.5t18 -81.5q0 -110 -49.5 -192.5t-126.5 -129.5q-33 -19 -51 2l-41 39q-10 14 -8.5 23z"/>
<glyph unicode="ķ" horiz-adv-x="989" d="M115 39v1366q0 41 39 41h145q39 0 39 -41v-770l6 -2l158 166l170 172q13 13 19.5 18.5t21 11t32.5 5.5h164q29 0 35 -14.5t-12 -33.5l-328 -333l369 -578q11 -19 3 -33t-30 -14h-158q-30 0 -44.5 9t-26.5 30l-262 420l-117 -119v-301q0 -39 -39 -39h-145q-21 0 -30 9 t-9 30zM364.5 -532q1.5 9 16.5 26q61 56 61 139q0 55 -51 117q-16 14 -16 30.5t22 35.5l103 73q24 15 37.5 12t33.5 -20q34 -31 52 -73.5t18 -81.5q0 -110 -49.5 -192.5t-126.5 -129.5q-33 -19 -51 2l-41 39q-10 14 -8.5 23z"/>
<glyph unicode="ĸ" horiz-adv-x="989" d="M115 39v924q0 41 39 41h145q39 0 39 -41v-328l6 -2l154 166l170 172q13 13 19.5 18.5t21 11t32.5 5.5h164q29 0 35 -14.5t-12 -33.5l-328 -333l369 -578q11 -19 3 -33t-30 -14h-162q-30 0 -44.5 9t-26.5 30l-258 420l-113 -119v-301q0 -39 -39 -39h-145q-21 0 -30 9 t-9 30z"/>
<glyph unicode="Ĺ" horiz-adv-x="1028" d="M147 37v1282q0 41 39 41h154q39 0 39 -41v-1118h586q19 0 27.5 -7.5t8.5 -27.5v-129q0 -19 -8.5 -28t-29.5 -9h-775q-23 0 -32 9t-9 28zM178 1516q-14 20 10 36l293 205q23 16 45 -10l78 -113q10 -14 5 -25.5t-19 -17.5l-318 -155q-25 -11 -41 8z"/>
<glyph unicode="ĺ" horiz-adv-x="542" d="M135 199v1206q0 39 39 39h145q39 0 39 -39v-1151q0 -45 20.5 -57.5t76.5 -12.5q24 -2 31 -5.5t10 -20.5l8 -105q3 -26 -27 -39q-52 -24 -133 -24q-112 0 -160.5 51.5t-48.5 157.5zM176 1591q-14 21 10 37l293 205q23 16 45 -10l78 -113q10 -14 5 -25.5t-19 -17.5 l-318 -156q-24 -10 -41 9z"/>
<glyph unicode="Ļ" horiz-adv-x="1028" d="M147 37v1282q0 41 39 41h154q39 0 39 -41v-1118h586q19 0 27.5 -7.5t8.5 -27.5v-129q0 -19 -8.5 -28t-29.5 -9h-775q-23 0 -32 9t-9 28zM425.5 -532q1.5 9 16.5 26q62 57 62 139q0 55 -51 117q-16 14 -16 30.5t22 35.5l102 73q24 15 38 12t34 -20q34 -31 51.5 -73.5 t17.5 -81.5q0 -110 -49.5 -192.5t-126.5 -129.5q-33 -19 -51 2l-41 39q-10 14 -8.5 23z"/>
<glyph unicode="ļ" horiz-adv-x="542" d="M135 199v1206q0 39 39 39h145q39 0 39 -39v-1151q0 -45 20.5 -57.5t76.5 -12.5q24 -2 31 -5.5t10 -20.5l8 -105q3 -26 -27 -39q-52 -24 -133 -24q-112 0 -160.5 51.5t-48.5 157.5zM135 -532.5q2 8.5 17 26.5q61 56 61 139q0 55 -51 117q-16 14 -16 30.5t22 35.5l102 73 q24 15 38 12t34 -20q34 -31 52 -73.5t18 -81.5q0 -110 -49.5 -192.5t-126.5 -129.5q-34 -19 -52 2l-41 39q-10 14 -8 22.5z"/>
<glyph unicode="Ľ" horiz-adv-x="1028" d="M147 37v1282q0 41 39 41h154q39 0 39 -41v-1118h586q19 0 27.5 -7.5t8.5 -27.5v-129q0 -19 -8.5 -28t-29.5 -9h-775q-23 0 -32 9t-9 28zM575.5 928q1.5 9 16.5 26q61 56 61 140q0 54 -51 116q-16 14 -16 30.5t22 35.5l103 74q25 15 38 12t33 -21q34 -31 52 -73.5 t18 -81.5q0 -110 -49.5 -192.5t-126.5 -129.5q-33 -19 -51 2l-41 39q-10 14 -8.5 23z"/>
<glyph unicode="ľ" horiz-adv-x="722" d="M135 199v1206q0 39 39 39h145q39 0 39 -39v-1151q0 -45 20.5 -57.5t76.5 -12.5q24 -2 31 -5.5t10 -20.5l8 -105q3 -26 -27 -39q-52 -24 -133 -24q-112 0 -160.5 51.5t-48.5 157.5zM454.5 1029q1.5 9 16.5 26q61 56 61 139q0 55 -51 117q-32 32 6 65l103 74q24 15 38 12 t34 -20q33 -31 51 -74t18 -82q0 -110 -49.5 -192t-126.5 -129q-33 -19 -51 2l-41 39q-10 14 -8.5 23z"/>
<glyph unicode="Ŀ" horiz-adv-x="1028" d="M147 37v1282q0 41 39 41h154q39 0 39 -41v-1118h586q19 0 27.5 -7.5t8.5 -27.5v-129q0 -19 -8.5 -28t-29.5 -9h-775q-23 0 -32 9t-9 28zM590 711q0 53 26.5 82.5t92.5 29.5q68 0 93 -28.5t25 -83.5q0 -54 -25 -85.5t-93 -31.5q-70 0 -94.5 32t-24.5 85z"/>
<glyph unicode="ŀ" horiz-adv-x="677" d="M135 199v1206q0 39 39 39h145q39 0 39 -39v-1151q0 -45 20.5 -57.5t76.5 -12.5q24 -2 31 -5.5t10 -20.5l8 -105q3 -26 -27 -39q-52 -24 -133 -24q-112 0 -160.5 51.5t-48.5 157.5zM453 752q0 53 26 82.5t92 29.5q69 0 94 -28.5t25 -83.5q0 -54 -25 -85.5t-94 -31.5 q-70 0 -94 32t-24 85z"/>
<glyph unicode="Ł" horiz-adv-x="1081" d="M-2 479q-18 29 12 47l154 86v707q0 41 39 41h153q39 0 39 -41v-576l217 125q17 9 27.5 7t19.5 -19l41 -72q18 -30 -12 -45l-293 -166v-372h586q19 0 28 -7.5t9 -27.5v-129q0 -37 -39 -37h-774q-23 0 -32 9t-9 28v405l-80 -45q-29 -16 -45 11z"/>
<glyph unicode="ł" horiz-adv-x="598" d="M-2 575q-19 31 12 46l160 90v694q0 39 39 39h145q39 0 39 -39v-567l119 67q17 9 27.5 7t19.5 -19l41 -72q18 -30 -12 -45l-195 -110v-412q0 -45 20 -57.5t76 -12.5q24 -2 31 -5.5t10 -20.5l9 -105q3 -26 -27 -39q-52 -24 -133 -24q-112 0 -160.5 51.5t-48.5 157.5v342 l-86 -47q-28 -19 -45 10z"/>
<glyph unicode="Ń" horiz-adv-x="1325" d="M141 39v1282q0 37 39 37h117q15 0 27 -3t19.5 -6t15.5 -12t11.5 -13.5t12 -17.5t12.5 -18l258 -401l295 -461h6v891q0 21 8.5 31t30.5 10h148q21 0 30 -9.5t9 -31.5v-1280q0 -37 -39 -37h-117q-27 0 -41 9t-27 30l-444 678l-137 219h-6v-897q0 -39 -39 -39h-148 q-41 0 -41 39zM539 1516q-14 20 10 36l293 205q23 16 45 -10l78 -113q9 -14 4.5 -25t-19.5 -18l-317 -155q-25 -11 -41 8z"/>
<glyph unicode="ń" horiz-adv-x="1081" d="M102 39v924q0 41 39 41h146q39 0 39 -41v-62q1 0 3 -1t3 -1q68 47 163.5 85t180.5 38q58 0 103.5 -11t77 -29.5t54 -48t35 -60t20 -73.5t9.5 -80t2 -87v-594q0 -20 -8.5 -29.5t-30.5 -9.5h-147q-39 0 -39 39l2 575q0 99 -32 150t-116 51q-93 0 -280 -92v-684 q0 -39 -39 -39h-146q-21 0 -30 9t-9 30zM406 1184l163 317q13 26 45 12l121 -61q30 -16 8 -45l-208 -287q-16 -22 -39 -12l-80 37q-23 13 -10 39z"/>
<glyph unicode="Ņ" horiz-adv-x="1325" d="M141 39v1282q0 37 39 37h117q15 0 27 -3t19.5 -6t15.5 -12t11.5 -13.5t12 -17.5t12.5 -18l258 -401l295 -461h6v891q0 21 8.5 31t30.5 10h148q21 0 30 -9.5t9 -31.5v-1280q0 -37 -39 -37h-117q-27 0 -41 9t-27 30l-444 678l-137 219h-6v-897q0 -39 -39 -39h-148 q-41 0 -41 39zM515.5 -491q1.5 9 16.5 26q62 57 62 139q0 55 -51 117q-16 14 -16 30.5t22 35.5l102 73q24 15 38 12t34 -20q34 -31 52 -73.5t18 -81.5q0 -110 -50 -192.5t-127 -129.5q-33 -19 -51 2l-41 39q-10 14 -8.5 23z"/>
<glyph unicode="ņ" horiz-adv-x="1081" d="M102 39v924q0 41 39 41h146q39 0 39 -41v-62q1 0 3 -1t3 -1q68 47 163.5 85t180.5 38q58 0 103.5 -11t77 -29.5t54 -48t35 -60t20 -73.5t9.5 -80t2 -87v-594q0 -20 -8.5 -29.5t-30.5 -9.5h-147q-39 0 -39 39l2 575q0 99 -32 150t-116 51q-93 0 -280 -92v-684 q0 -39 -39 -39h-146q-21 0 -30 9t-9 30zM389 -532.5q2 8.5 17 26.5q61 56 61 139q0 55 -51 117q-16 14 -16 30.5t22 35.5l102 73q24 15 38 12t34 -20q34 -31 52 -73.5t18 -81.5q0 -110 -50 -192.5t-127 -129.5q-33 -19 -51 2l-41 39q-10 14 -8 22.5z"/>
<glyph unicode="Ň" horiz-adv-x="1325" d="M141 39v1282q0 37 39 37h117q15 0 27 -3t19.5 -6t15.5 -12t11.5 -13.5t12 -17.5t12.5 -18l258 -401l295 -461h6v891q0 21 8.5 31t30.5 10h148q21 0 30 -9.5t9 -31.5v-1280q0 -37 -39 -37h-117q-27 0 -41 9t-27 30l-444 678l-137 219h-6v-897q0 -39 -39 -39h-148 q-41 0 -41 39zM311 1710l54 51q12 11 20 10.5t23 -10.5l258 -168l252 166q19 12 25.5 12.5t21.5 -10.5l51 -49q11 -11 11.5 -18t-11.5 -21l-230 -215q-29 -26 -65 -26h-111q-41 0 -69 28l-228 207q-23 25 -2 43z"/>
<glyph unicode="ň" horiz-adv-x="1081" d="M102 39v924q0 41 39 41h146q39 0 39 -41v-62q1 0 3 -1t3 -1q68 47 163.5 85t180.5 38q58 0 103.5 -11t77 -29.5t54 -48t35 -60t20 -73.5t9.5 -80t2 -87v-594q0 -20 -8.5 -29.5t-30.5 -9.5h-147q-39 0 -39 39l2 575q0 99 -32 150t-116 51q-93 0 -280 -92v-684 q0 -39 -39 -39h-146q-21 0 -30 9t-9 30zM160.5 1397q0.5 7 11.5 18l55 51q14 12 23.5 11t23.5 -15l236 -211l242 215q22 20 45 0l55 -49q20 -18 0 -41l-215 -260q-13 -14 -25.5 -19t-44.5 -5h-110q-29 0 -42.5 5.5t-25.5 22.5l-217 256q-12 14 -11.5 21z"/>
<glyph unicode="ŉ" horiz-adv-x="1253" d="M-8.5 994q1.5 9 16.5 26q62 57 62 139q0 54 -52 117q-16 14 -15.5 30t22.5 35l102 74q24 15 38 12t34 -20q33 -31 51 -74t18 -82q0 -110 -49.5 -192t-126.5 -129q-33 -19 -51 2l-41 39q-10 14 -8.5 23zM274 39v924q0 41 39 41h146q39 0 39 -41v-62q1 0 3 -1t3 -1 q68 47 163.5 85t180.5 38q58 0 103.5 -11t77 -29.5t54 -48t35 -60t20 -73.5t9.5 -80t2 -87v-594q0 -20 -8.5 -29.5t-30.5 -9.5h-147q-39 0 -39 39l2 575q0 99 -32 150t-116 51q-93 0 -280 -92v-684q0 -39 -39 -39h-146q-21 0 -30 9t-9 30z"/>
<glyph unicode="Ŋ" horiz-adv-x="1325" d="M141 39v1282q0 37 39 37h117q15 0 27 -3t19.5 -6t15.5 -12t11.5 -13.5t12 -17.5t12.5 -18q1 -2 90 -140t187 -290.5t184.5 -287t91.5 -144.5h6v891q0 21 8.5 31t30.5 10h148q21 0 30 -9.5t9 -31.5v-1358q0 -65 -6 -113t-25 -96t-52 -78t-88.5 -48.5t-131.5 -18.5 q-77 0 -125 18q-9 4 -12.5 8.5t-3.5 10.5t1 14l15 123q2 22 30 22h29q85 0 114 24t29 93v123q-31 50 -226.5 347.5t-215.5 328.5l-137 219h-6v-897q0 -39 -39 -39h-148q-41 0 -41 39z"/>
<glyph unicode="ŋ" horiz-adv-x="1081" d="M102 39v924q0 41 39 41h146q39 0 39 -41v-62q1 0 3 -1t3 -1q68 47 163.5 85t180.5 38q58 0 103.5 -11t77 -29.5t54 -48t35 -60t20 -73.5t9.5 -80t2 -87v-674q0 -65 -6 -113t-25 -96t-52 -78t-88.5 -48.5t-131.5 -18.5q-77 0 -125 18q-12 5 -14.5 13.5t0.5 19.5l14 123 q2 22 31 22h28q85 0 114.5 24t29.5 93l2 696q0 99 -32 150t-116 51q-93 0 -280 -92v-684q0 -39 -39 -39h-146q-21 0 -30 9t-9 30z"/>
<glyph unicode="Ō" horiz-adv-x="1351" d="M123 698q0 61 4.5 116.5t18.5 126t37.5 129t66 117t98.5 99t139 65.5t185 25t184 -21t139.5 -55.5t100 -87.5t67.5 -109t40.5 -127.5t20.5 -136t5 -141.5t-4 -140t-18 -140t-38 -136t-66 -117.5t-99.5 -97t-142.5 -62t-191 -23.5q-82 0 -151 14.5t-120.5 39t-93 62 t-70 78t-49.5 93.5t-33 102t-19 109t-9 109.5t-2 108.5zM350 1524v106q0 19 8.5 26t26.5 7h563q20 0 27.5 -6.5t7.5 -26.5v-106q0 -18 -8 -25.5t-27 -7.5h-563q-35 0 -35 33zM365 678q0 -97 8 -170t29 -136t55.5 -103t88 -62.5t126.5 -22.5q179 0 250 121t71 373 q0 128 -15 217t-51.5 154t-99 96t-155.5 31q-86 0 -146 -33t-95 -99t-50.5 -155t-15.5 -211z"/>
<glyph unicode="ō" horiz-adv-x="1071" d="M90 518q0 506 438 506q115 0 199.5 -30.5t132 -77t76 -117t37 -135t8.5 -146.5q0 -59 -2.5 -104t-13 -103.5t-29 -101.5t-52.5 -87.5t-80.5 -73t-117 -46.5t-158.5 -18q-86 0 -154 18t-113 46.5t-78 73t-50.5 87.5t-27.5 102t-12.5 103.5t-2.5 103.5zM221 1198v107 q0 19 8.5 26.5t26.5 7.5h563q19 0 27 -7t8 -25v-109q0 -33 -35 -33h-563q-35 0 -35 33zM317 504q0 -173 44 -248.5t167 -75.5q69 0 113.5 19t68.5 62t33 99.5t9 143.5t-8.5 143t-32.5 99t-68 62t-113 19q-124 0 -168.5 -76.5t-44.5 -246.5z"/>
<glyph unicode="Ŏ" horiz-adv-x="1351" d="M123 698q0 61 4.5 116.5t18.5 126t37.5 129t66 117t98.5 99t139 65.5t185 25t184 -21t139.5 -55.5t100 -87.5t67.5 -109t40.5 -127.5t20.5 -136t5 -141.5t-4 -140t-18 -140t-38 -136t-66 -117.5t-99.5 -97t-142.5 -62t-191 -23.5q-82 0 -151 14.5t-120.5 39t-93 62 t-70 78t-49.5 93.5t-33 102t-19 109t-9 109.5t-2 108.5zM334 1722l57 45q16 9 26 6t25 -18q62 -73 113 -104t123 -31q69 0 118.5 30t110.5 105q23 29 51 10l56 -34q12 -8 13 -22t-2.5 -23t-12.5 -27q-54 -103 -141.5 -155t-192.5 -52q-107 0 -198.5 50.5t-141.5 152.5 q-1 1 -2 4q-23 46 -2 63zM365 678q0 -97 8 -170t29 -136t55.5 -103t88 -62.5t126.5 -22.5q179 0 250 121t71 373q0 128 -15 217t-51.5 154t-99 96t-155.5 31q-86 0 -146 -33t-95 -99t-50.5 -155t-15.5 -211z"/>
<glyph unicode="ŏ" horiz-adv-x="1071" d="M90 518q0 506 438 506q115 0 199.5 -30.5t132 -77t76 -117t37 -135t8.5 -146.5q0 -59 -2.5 -104t-13 -103.5t-29 -101.5t-52.5 -87.5t-80.5 -73t-117 -46.5t-158.5 -18q-86 0 -154 18t-113 46.5t-78 73t-50.5 87.5t-27.5 102t-12.5 103.5t-2.5 103.5zM184 1378l56 45 q12 8 21.5 7.5t15 -4.5t16.5 -15q66 -79 116 -111t121 -32q65 0 111 31.5t117 111.5q25 28 51 10l55 -35q8 -5 11.5 -10.5t2 -15t-2.5 -14t-6.5 -17t-6.5 -14.5q-54 -105 -142.5 -161t-191.5 -56q-106 0 -199.5 54.5t-140.5 158.5q-1 1 -2 4q-23 46 -2 63zM317 504 q0 -173 44 -248.5t167 -75.5q69 0 113.5 19t68.5 62t33 99.5t9 143.5t-8.5 143t-32.5 99t-68 62t-113 19q-124 0 -168.5 -76.5t-44.5 -246.5z"/>
<glyph unicode="Ő" horiz-adv-x="1351" d="M123 698q0 61 4.5 116.5t18.5 126t37.5 129t66 117t98.5 99t139 65.5t185 25t184 -21t139.5 -55.5t100 -87.5t67.5 -109t40.5 -127.5t20.5 -136t5 -141.5t-4 -140t-18 -140t-38 -136t-66 -117.5t-99.5 -97t-142.5 -62t-191 -23.5q-82 0 -151 14.5t-120.5 39t-93 62 t-70 78t-49.5 93.5t-33 102t-19 109t-9 109.5t-2 108.5zM346 1503q-18 18 8 35l283 219q23 20 45 -6l86 -109q9 -14 5 -25t-17 -18l-312 -169q-24 -13 -41 4zM365 678q0 -97 8 -170t29 -136t55.5 -103t88 -62.5t126.5 -22.5q179 0 250 121t71 373q0 128 -15 217t-51.5 154 t-99 96t-155.5 31q-86 0 -146 -33t-95 -99t-50.5 -155t-15.5 -211zM725 1503q-18 18 8 35l283 219q23 20 45 -6l86 -109q9 -14 5 -25t-17 -18l-312 -169q-24 -13 -41 4z"/>
<glyph unicode="ő" horiz-adv-x="1071" d="M90 518q0 506 438 506q115 0 199.5 -30.5t132 -77t76 -117t37 -135t8.5 -146.5q0 -59 -2.5 -104t-13 -103.5t-29 -101.5t-52.5 -87.5t-80.5 -73t-117 -46.5t-158.5 -18q-86 0 -154 18t-113 46.5t-78 73t-50.5 87.5t-27.5 102t-12.5 103.5t-2.5 103.5zM299 1184l162 317 q16 27 45 12l123 -61q26 -16 8 -45l-209 -287q-16 -22 -39 -12l-82 37q-23 13 -8 39zM317 504q0 -173 44 -248.5t167 -75.5q69 0 113.5 19t68.5 62t33 99.5t9 143.5t-8.5 143t-32.5 99t-68 62t-113 19q-124 0 -168.5 -76.5t-44.5 -246.5zM600 1184l164 317q13 27 43 12 l123 -61q26 -16 8 -45l-209 -287q-15 -21 -39 -12l-80 37q-23 13 -10 39z"/>
<glyph unicode="Œ" horiz-adv-x="1660" d="M92 698q0 61 4.5 116.5t18.5 125.5t37.5 128.5t66 117t98.5 98.5t139 65t185 25q88 0 166 -16h711q38 0 38 -37v-127q0 -20 -9 -29.5t-31 -9.5q-92 0 -276 1t-275 1v-352h487q39 0 39 -39v-125q0 -37 -39 -37h-487v-403h565q37 0 37 -41v-125q0 -19 -8.5 -27t-30.5 -8 h-713q-79 -18 -174 -18q-105 0 -189 24t-140.5 62t-98 97t-64.5 117.5t-36.5 135.5t-17 139.5t-3.5 140.5zM336 676q0 -120 14.5 -207t49 -153t94.5 -99t147 -33q53 0 90 11v968q-50 11 -90 11q-166 0 -235.5 -124t-69.5 -374z"/>
<glyph unicode="œ" horiz-adv-x="1718" d="M90 518q0 506 438 506q241 0 346 -143q107 129 324 129q77 0 140 -14t107.5 -37.5t78.5 -59t55 -74t34.5 -86.5t19.5 -92t7 -96q2 -60 -19.5 -90.5t-78.5 -30.5h-551q4 -156 55.5 -211t184.5 -55q104 0 280 22q30 3 41 -2.5t17 -31.5l12 -66q5 -26 -3 -40t-36 -26 q-56 -22 -157.5 -36.5t-180.5 -14.5q-243 0 -344 142q-102 -127 -332 -127q-86 0 -154 18t-113 46.5t-78 73t-50.5 87.5t-27.5 102t-12.5 103.5t-2.5 103.5zM317 504q0 -173 44 -248.5t167 -75.5q69 0 113.5 19t68.5 62t33 99.5t9 143.5t-8.5 143t-32.5 99t-68 62t-113 19 q-124 0 -168.5 -76.5t-44.5 -246.5zM993 586h406q-1 39 -6 69.5t-18 64t-34 55t-58 36t-87 14.5q-57 0 -96 -16t-60.5 -49t-32 -74t-14.5 -100z"/>
<glyph unicode="Ŕ" horiz-adv-x="1142" d="M135 39v1282q0 39 41 39h455q65 0 124.5 -14t113.5 -45t93.5 -77t63 -113.5t23.5 -149.5q0 -77 -23 -147t-79.5 -133t-141.5 -95l268 -543q8 -19 1.5 -31t-23.5 -12h-177q-25 0 -37.5 7t-21.5 28l-240 514h-208v-508q0 -41 -39 -41h-152q-23 0 -32 9t-9 30zM367 743h213 q229 0 229 218q0 196 -225 196h-217v-414zM432 1516q-14 20 10 36l293 205q23 16 45 -10l78 -113q10 -14 5 -25.5t-19 -17.5l-318 -155q-25 -11 -41 8z"/>
<glyph unicode="ŕ" horiz-adv-x="745" d="M147 39v924q0 41 39 41h146q41 0 41 -41v-91l4 -4q46 43 138.5 88t164.5 58q44 10 49 -35l14 -137q1 -14 0.5 -23.5t-9 -15.5t-29.5 -10q-208 -42 -332 -95v-659q0 -39 -39 -39h-148q-21 0 -30 9t-9 30zM293 1184l164 317q13 26 45 12l121 -61q30 -16 8 -45l-209 -287 q-16 -22 -39 -12l-80 37q-23 13 -10 39z"/>
<glyph unicode="Ŗ" horiz-adv-x="1142" d="M135 39v1282q0 39 41 39h455q65 0 124.5 -14t113.5 -45t93.5 -77t63 -113.5t23.5 -149.5q0 -77 -23 -147t-79.5 -133t-141.5 -95l268 -543q8 -19 1.5 -31t-23.5 -12h-177q-25 0 -37.5 7t-21.5 28l-240 514h-208v-508q0 -41 -39 -41h-152q-23 0 -32 9t-9 30zM367 743h213 q229 0 229 218q0 196 -225 196h-217v-414zM425.5 -491q1.5 9 16.5 26q62 57 62 139q0 55 -51 117q-16 14 -16 30.5t22 35.5l102 73q24 15 38 12t34 -20q34 -31 51.5 -73.5t17.5 -81.5q0 -110 -49.5 -192.5t-126.5 -129.5q-33 -19 -51 2l-41 39q-10 14 -8.5 23z"/>
<glyph unicode="ŗ" horiz-adv-x="745" d="M116.5 -532q1.5 9 16.5 26q62 57 62 139q0 54 -52 117q-32 32 7 66l102 73q24 15 38 12t34 -20q34 -31 51.5 -73.5t17.5 -81.5q0 -110 -49.5 -192.5t-126.5 -129.5q-33 -19 -51 2l-41 39q-10 14 -8.5 23zM147 39v924q0 41 39 41h146q41 0 41 -41v-91l4 -4q46 43 138.5 88 t164.5 58q44 10 49 -35l14 -137q1 -14 0.5 -23.5t-9 -15.5t-29.5 -10q-208 -42 -332 -95v-659q0 -39 -39 -39h-148q-21 0 -30 9t-9 30z"/>
<glyph unicode="Ř" horiz-adv-x="1142" d="M135 39v1282q0 39 41 39h455q65 0 124.5 -14t113.5 -45t93.5 -77t63 -113.5t23.5 -149.5q0 -77 -23 -147t-79.5 -133t-141.5 -95l268 -543q8 -19 1.5 -31t-23.5 -12h-177q-25 0 -37.5 7t-21.5 28l-240 514h-208v-508q0 -41 -39 -41h-152q-23 0 -32 9t-9 30zM197 1731 l53 51q12 11 20 10.5t23 -10.5l258 -168l252 166q19 12 25.5 12.5t21.5 -10.5l51 -49q11 -11 11.5 -18t-11.5 -21l-229 -215q-30 -27 -66 -27h-110q-41 0 -70 29l-227 207q-23 25 -2 43zM367 743h213q229 0 229 218q0 196 -225 196h-217v-414z"/>
<glyph unicode="ř" horiz-adv-x="745" d="M6.5 1397q0.5 7 11.5 18l56 51q14 12 23.5 11t23.5 -15l235 -211l242 215q22 20 45 0l55 -49q20 -18 0 -41l-215 -260q-13 -15 -25 -19.5t-44 -4.5h-111q-29 0 -42 5.5t-25 22.5l-218 256q-12 14 -11.5 21zM147 39v924q0 41 39 41h146q41 0 41 -41v-91l4 -4 q46 43 138.5 88t164.5 58q44 10 49 -35l14 -137q1 -14 0.5 -23.5t-9 -15.5t-29.5 -10q-208 -42 -332 -95v-659q0 -39 -39 -39h-148q-21 0 -30 9t-9 30z"/>
<glyph unicode="Ś" horiz-adv-x="1126" d="M97.5 79.5q-0.5 10.5 2.5 24.5l19 84q6 25 16 29.5t39 1.5q256 -29 363 -29q130 0 196 46.5t66 134.5q0 56 -11.5 91.5t-42 60t-74 38.5t-116.5 27q-61 12 -102 21.5t-93.5 26t-87 35t-70.5 47.5t-56.5 64t-34 83.5t-13.5 107.5q0 192 123 295.5t342 103.5q243 0 377 -55 q31 -12 38 -26t3 -38l-20 -84q-6 -23 -17 -28.5t-43 -3.5q-199 26 -328 26q-126 0 -180.5 -46t-54.5 -136q0 -32 5 -55.5t19.5 -41.5t30 -29t48 -21.5t61 -16.5t80.5 -16q62 -12 100 -21t91.5 -26.5t86.5 -36t69.5 -49.5t57 -68.5t34 -90.5t13.5 -118q0 -112 -40 -193.5 t-111 -127.5t-157 -67t-189 -21q-92 0 -208 15t-188 44q-23 9 -33 18.5t-10.5 20zM399 1516q-13 20 11 36l292 205q23 16 46 -10l77 -113q10 -14 5 -25.5t-19 -17.5l-317 -155q-25 -11 -41 8z"/>
<glyph unicode="ś" horiz-adv-x="940" d="M86 96l14 68q4 23 15.5 28.5t38.5 2.5q161 -25 290 -25q98 0 141.5 27.5t43.5 89.5q0 69 -32.5 94t-131.5 39q-70 10 -117.5 20.5t-101 32t-85 51t-52.5 78t-21 113.5q0 149 104.5 229t280.5 80q74 0 163 -11t148 -34q51 -20 43 -61l-16 -74q-4 -21 -15 -26.5t-40 -2.5 q-202 23 -279 23q-94 0 -128 -26.5t-34 -88.5q0 -56 35 -75t139 -36q50 -7 83 -13.5t75.5 -18.5t70 -26t57 -37t46.5 -52.5t28 -71t11 -92.5q0 -87 -34.5 -150.5t-94.5 -98.5t-130.5 -51.5t-154.5 -16.5q-204 0 -317 45q-30 12 -39 26.5t-4 40.5zM383 1184l164 317 q13 26 45 12l121 -61q30 -16 8 -45l-209 -287q-16 -22 -39 -12l-80 37q-23 13 -10 39z"/>
<glyph unicode="Ŝ" horiz-adv-x="1126" d="M97.5 79.5q-0.5 10.5 2.5 24.5l19 84q6 25 16 29.5t39 1.5q256 -29 363 -29q130 0 196 46.5t66 134.5q0 56 -11.5 91.5t-42 60t-74 38.5t-116.5 27q-61 12 -102 21.5t-93.5 26t-87 35t-70.5 47.5t-56.5 64t-34 83.5t-13.5 107.5q0 192 123 295.5t342 103.5q243 0 377 -55 q31 -12 38 -26t3 -38l-20 -84q-6 -23 -17 -28.5t-43 -3.5q-199 26 -328 26q-126 0 -180.5 -46t-54.5 -136q0 -32 5 -55.5t19.5 -41.5t30 -29t48 -21.5t61 -16.5t80.5 -16q62 -12 100 -21t91.5 -26.5t86.5 -36t69.5 -49.5t57 -68.5t34 -90.5t13.5 -118q0 -112 -40 -193.5 t-111 -127.5t-157 -67t-189 -21q-92 0 -208 15t-188 44q-23 9 -33 18.5t-10.5 20zM193.5 1519q-0.5 7 11.5 21l227 213q16 12 21.5 16t18 8.5t28.5 4.5h110q39 0 70 -25l225 -211q23 -20 0 -43l-51 -51q-13 -11 -20.5 -10.5t-22.5 10.5l-258 174l-250 -176q-18 -12 -26 -13 t-21 11l-51 53q-11 11 -11.5 18z"/>
<glyph unicode="ŝ" horiz-adv-x="940" d="M86 96l14 68q4 23 15.5 28.5t38.5 2.5q161 -25 290 -25q98 0 141.5 27.5t43.5 89.5q0 69 -32.5 94t-131.5 39q-70 10 -117.5 20.5t-101 32t-85 51t-52.5 78t-21 113.5q0 149 104.5 229t280.5 80q74 0 163 -11t148 -34q51 -20 43 -61l-16 -74q-4 -21 -15 -26.5t-40 -2.5 q-202 23 -279 23q-94 0 -128 -26.5t-34 -88.5q0 -56 35 -75t139 -36q50 -7 83 -13.5t75.5 -18.5t70 -26t57 -37t46.5 -52.5t28 -71t11 -92.5q0 -87 -34.5 -150.5t-94.5 -98.5t-130.5 -51.5t-154.5 -16.5q-204 0 -317 45q-30 12 -39 26.5t-4 40.5zM115 1167q0 7 12 21 l217 256q13 16 26.5 22.5t39.5 6.5h112q31 0 44 -5.5t24 -19.5l215 -260q23 -23 2 -41l-55 -49q-24 -19 -45 0l-244 215l-234 -211q-15 -14 -24 -15t-23 11l-55 51q-12 11 -12 18z"/>
<glyph unicode="Ş" horiz-adv-x="1126" d="M97.5 79.5q-0.5 10.5 2.5 24.5l19 84q6 25 16 29.5t39 1.5q256 -29 363 -29q130 0 196 46.5t66 134.5q0 56 -11.5 91.5t-42 60t-74 38.5t-116.5 27q-61 12 -102 21.5t-93.5 26t-87 35t-70.5 47.5t-56.5 64t-34 83.5t-13.5 107.5q0 192 123 295.5t342 103.5q243 0 377 -55 q31 -12 38 -26t3 -38l-20 -84q-6 -23 -17 -28.5t-43 -3.5q-199 26 -328 26q-126 0 -180.5 -46t-54.5 -136q0 -32 5 -55.5t19.5 -41.5t30 -29t48 -21.5t61 -16.5t80.5 -16q62 -12 100 -21t91.5 -26.5t86.5 -36t69.5 -49.5t57 -68.5t34 -90.5t13.5 -118q0 -107 -37 -187 t-103.5 -125.5t-146.5 -68.5t-178 -26l-28 -78q60 -1 100.5 -13.5t61 -34t28.5 -45.5t8 -55q0 -87 -62 -135.5t-181 -48.5q-82 0 -156 23q-21 7 -16 24l14 57q3 15 22 13q84 -13 123 -13q54 0 84.5 16t30.5 62q0 39 -27.5 50t-111.5 16q-44 3 -29 47l39 115q-219 13 -328 57 q-23 9 -33 18.5t-10.5 20z"/>
<glyph unicode="ş" horiz-adv-x="940" d="M86 96l14 68q4 23 15.5 28.5t38.5 2.5q161 -25 290 -25q98 0 141.5 27.5t43.5 89.5q0 69 -32.5 94t-131.5 39q-70 10 -117.5 20.5t-101 32t-85 51t-52.5 78t-21 113.5q0 149 104.5 229t280.5 80q74 0 163 -11t148 -34q51 -20 43 -61l-16 -74q-4 -21 -15 -26.5t-40 -2.5 q-202 23 -279 23q-94 0 -128 -26.5t-34 -88.5q0 -56 35 -75t139 -36q50 -7 83 -13.5t75.5 -18.5t70 -26t57 -37t46.5 -52.5t28 -71t11 -92.5q0 -64 -19.5 -116t-53 -87t-80.5 -59.5t-99 -36.5t-112 -16l-29 -80q114 -3 156.5 -42.5t42.5 -105.5q0 -87 -62.5 -135.5 t-181.5 -48.5q-82 0 -156 23q-21 7 -16 24l14 57q3 15 23 13q84 -13 123 -13q54 0 84 15.5t30 62.5q0 39 -27.5 50t-111.5 16q-44 3 -29 47l41 117q-182 8 -268 43q-30 12 -39 26.5t-4 40.5z"/>
<glyph unicode="Š" horiz-adv-x="1126" d="M97.5 79.5q-0.5 10.5 2.5 24.5l19 84q6 25 16 29.5t39 1.5q256 -29 363 -29q130 0 196 46.5t66 134.5q0 56 -11.5 91.5t-42 60t-74 38.5t-116.5 27q-61 12 -102 21.5t-93.5 26t-87 35t-70.5 47.5t-56.5 64t-34 83.5t-13.5 107.5q0 192 123 295.5t342 103.5q243 0 377 -55 q31 -12 38 -26t3 -38l-20 -84q-6 -23 -17 -28.5t-43 -3.5q-199 26 -328 26q-126 0 -180.5 -46t-54.5 -136q0 -32 5 -55.5t19.5 -41.5t30 -29t48 -21.5t61 -16.5t80.5 -16q62 -12 100 -21t91.5 -26.5t86.5 -36t69.5 -49.5t57 -68.5t34 -90.5t13.5 -118q0 -112 -40 -193.5 t-111 -127.5t-157 -67t-189 -21q-92 0 -208 15t-188 44q-23 9 -33 18.5t-10.5 20zM205 1733l53 51q12 11 20 10.5t23 -10.5l258 -168l252 166q19 12 25.5 12.5t21.5 -10.5l51 -49q11 -11 11.5 -18t-11.5 -21l-229 -215q-30 -27 -66 -27h-110q-41 0 -70 29l-227 207 q-23 25 -2 43z"/>
<glyph unicode="š" horiz-adv-x="940" d="M86 96l14 68q4 23 15.5 28.5t38.5 2.5q161 -25 290 -25q98 0 141.5 27.5t43.5 89.5q0 69 -32.5 94t-131.5 39q-70 10 -117.5 20.5t-101 32t-85 51t-52.5 78t-21 113.5q0 149 104.5 229t280.5 80q74 0 163 -11t148 -34q51 -20 43 -61l-16 -74q-4 -21 -15 -26.5t-40 -2.5 q-202 23 -279 23q-94 0 -128 -26.5t-34 -88.5q0 -56 35 -75t139 -36q50 -7 83 -13.5t75.5 -18.5t70 -26t57 -37t46.5 -52.5t28 -71t11 -92.5q0 -87 -34.5 -150.5t-94.5 -98.5t-130.5 -51.5t-154.5 -16.5q-204 0 -317 45q-30 12 -39 26.5t-4 40.5zM125.5 1418q0.5 7 11.5 18 l56 51q14 12 23.5 11t23.5 -15l235 -211l242 215q23 20 45 0l55 -49q21 -18 0 -41l-215 -260q-13 -15 -25.5 -20t-44.5 -5h-110q-29 0 -42.5 6t-25.5 23l-217 256q-12 14 -11.5 21z"/>
<glyph unicode="Ţ" horiz-adv-x="1019" d="M31 1194v127q0 20 8.5 29.5t30.5 9.5h882q39 0 39 -39v-127q0 -19 -9 -28t-32 -9h-325v-1118q0 -39 -37 -39h-154q-21 0 -30 9t-9 30v1118h-323q-24 0 -32.5 8.5t-8.5 28.5zM358.5 -532q1.5 9 16.5 26q61 56 61 139q0 55 -51 117q-16 14 -16 30.5t22 35.5l103 73 q24 15 37.5 12t33.5 -20q34 -31 52 -73.5t18 -81.5q0 -110 -49.5 -192.5t-126.5 -129.5q-33 -19 -51 2l-41 39q-10 14 -8.5 23z"/>
<glyph unicode="ţ" horiz-adv-x="739" d="M49 862v101q0 21 8.5 31t30.5 10h105v210q0 36 38 46l138 36q41 10 41 -24v-268h219q23 0 31 -9.5t8 -29.5v-103q0 -22 -7.5 -30.5t-31.5 -8.5h-219v-510q0 -42 5 -64t24 -33t39.5 -13t68.5 -2q55 0 137 8q18 2 26 -4.5t11 -24.5l14 -102q5 -35 -26 -51q-49 -21 -129 -32 t-138 -11q-44 0 -79.5 6.5t-61 20t-44.5 29.5t-31 41t-19.5 47.5t-11 56t-4.5 59.5t-1 65v514h-102q-22 0 -30.5 9t-8.5 30zM229.5 -532q1.5 9 16.5 26q61 56 61 139q0 55 -51 117q-16 14 -16 30.5t22 35.5l103 73q24 15 37.5 12t33.5 -20q34 -31 52 -73.5t18 -81.5 q0 -110 -49.5 -192.5t-126.5 -129.5q-33 -19 -51 2l-41 39q-10 14 -8.5 23z"/>
<glyph unicode="Ť" horiz-adv-x="1019" d="M31 1194v127q0 20 8.5 29.5t30.5 9.5h882q39 0 39 -39v-127q0 -19 -9 -28t-32 -9h-325v-1118q0 -39 -37 -39h-154q-21 0 -30 9t-9 30v1118h-323q-24 0 -32.5 8.5t-8.5 28.5zM156 1710l53 51q12 11 20 10.5t23 -10.5l258 -168l252 166q19 12 25.5 12.5t21.5 -10.5l51 -49 q11 -11 11.5 -18t-11.5 -21l-229 -215q-29 -26 -66 -26h-110q-42 0 -70 28l-227 207q-23 25 -2 43z"/>
<glyph unicode="ť" horiz-adv-x="788" d="M49 862v101q0 21 8.5 31t30.5 10h105v210q0 36 38 46l138 36q41 10 41 -24v-268h219q23 0 31 -9.5t8 -29.5v-103q0 -22 -7.5 -30.5t-31.5 -8.5h-219v-510q0 -42 5 -64t24 -33t39.5 -13t68.5 -2q55 0 137 8q18 2 26 -4.5t11 -24.5l14 -102q5 -35 -26 -51q-49 -21 -129 -32 t-138 -11q-44 0 -79.5 6.5t-61 20t-44.5 29.5t-31 41t-19.5 47.5t-11 56t-4.5 59.5t-1 65v514h-102q-22 0 -30.5 9t-8.5 30zM532.5 1153.5q1.5 9.5 16.5 26.5q61 56 61 139q0 55 -51 117q-32 32 6 65l103 74q24 15 37.5 12t33.5 -20q34 -31 52 -74t18 -82q0 -110 -49.5 -192 t-126.5 -129q-33 -19 -51 2l-41 38q-10 14 -8.5 23.5z"/>
<glyph unicode="Ŧ" horiz-adv-x="1019" d="M31 1194v127q0 20 8.5 29.5t30.5 9.5h882q39 0 39 -39v-127q0 -19 -9 -28t-32 -9h-325v-336h258q21 0 29 -8.5t8 -28.5v-77q0 -19 -7.5 -27t-27.5 -8h-260v-633q0 -39 -37 -39h-154q-21 0 -30 9t-9 30v633h-250q-20 0 -27 8t-7 27v77q0 37 36 37h248v336h-323 q-24 0 -32.5 8.5t-8.5 28.5z"/>
<glyph unicode="ŧ" horiz-adv-x="739" d="M49 862v101q0 21 8.5 31t30.5 10h105v210q0 36 38 46l138 36q41 10 41 -24v-268h219q23 0 31 -9.5t8 -29.5v-103q0 -22 -7.5 -30.5t-31.5 -8.5h-219v-178h190q21 0 28 -8t7 -27v-80q0 -18 -7 -26t-26 -8h-192v-183q0 -42 5 -64t24 -33t39.5 -13t68.5 -2q55 0 137 8 q18 2 26 -4.5t11 -24.5l14 -102q5 -35 -26 -51q-49 -21 -129 -32t-138 -11q-44 0 -79.5 6.5t-61 20t-44.5 29.5t-31 41t-19.5 47.5t-11 56t-4.5 59.5t-1 65v187h-96q-20 0 -27.5 8t-7.5 26v78q0 19 7.5 28t27.5 9h96v178h-102q-22 0 -30.5 9t-8.5 30z"/>
<glyph unicode="Ũ" horiz-adv-x="1286" d="M139 498v821q0 41 39 41h154q39 0 39 -41v-821q0 -152 69 -231t203 -79q277 0 277 310v821q0 41 41 41h153q37 0 37 -41l-2 -821q0 -147 -37 -242q-57 -139 -181 -205.5t-288 -66.5q-324 0 -442 227q-62 118 -62 287zM276 1509q-4 11 0 25q38 101 100 148t126 47 q47 0 109 -25.5t118 -51.5t88 -26q35 0 60 18t47 58q15 24 45 12l57 -26q22 -9 14 -39q-74 -197 -221 -197q-47 0 -162 52t-155 52q-66 0 -113 -77q-8 -14 -15 -16t-28 7l-57 25q-9 3 -13 14z"/>
<glyph unicode="ũ" horiz-adv-x="1087" d="M104 360v603q0 41 39 41h150q37 0 37 -41v-576q0 -102 30.5 -151.5t118.5 -49.5q94 0 277 93v684q0 41 39 41h145q39 0 39 -41v-924q0 -21 -9 -30t-30 -9h-145q-22 0 -30.5 9.5t-8.5 29.5v63l-4 2q-71 -49 -164.5 -85.5t-179.5 -36.5q-58 0 -103.5 10t-77.5 27 t-54.5 44.5t-35.5 57t-20.5 71t-10 79.5t-2.5 89zM169.5 1179q-3.5 11 0.5 25q38 101 99.5 148t125.5 47q47 0 109 -25.5t118.5 -51.5t88.5 -26q35 0 59.5 18t46.5 58q15 24 45 12l58 -26q22 -9 14 -39q-74 -197 -221 -197q-47 0 -162.5 52.5t-155.5 52.5q-64 0 -112 -78 q-8 -13 -15 -15t-28 7l-58 24q-9 3 -12.5 14z"/>
<glyph unicode="Ū" horiz-adv-x="1286" d="M139 498v821q0 41 39 41h154q39 0 39 -41v-821q0 -152 69 -231t203 -79q277 0 277 310v821q0 41 41 41h153q37 0 37 -41l-2 -821q0 -147 -37 -242q-57 -139 -181 -205.5t-288 -66.5q-324 0 -442 227q-62 118 -62 287zM334 1503v107q0 19 8 25.5t27 6.5h563 q20 0 27.5 -6.5t7.5 -25.5v-107q0 -18 -8 -25.5t-27 -7.5h-563q-35 0 -35 33z"/>
<glyph unicode="ū" horiz-adv-x="1087" d="M104 360v603q0 41 39 41h150q37 0 37 -41v-576q0 -102 30.5 -151.5t118.5 -49.5q94 0 277 93v684q0 41 39 41h145q39 0 39 -41v-924q0 -21 -9 -30t-30 -9h-145q-22 0 -30.5 9.5t-8.5 29.5v63l-4 2q-71 -49 -164.5 -85.5t-179.5 -36.5q-58 0 -103.5 10t-77.5 27 t-54.5 44.5t-35.5 57t-20.5 71t-10 79.5t-2.5 89zM227 1198v107q0 19 8.5 26.5t26.5 7.5h563q19 0 27 -7t8 -25v-109q0 -33 -35 -33h-563q-35 0 -35 33z"/>
<glyph unicode="Ŭ" horiz-adv-x="1286" d="M139 498v821q0 41 39 41h154q39 0 39 -41v-821q0 -152 69 -231t203 -79q277 0 277 310v821q0 41 41 41h153q37 0 37 -41l-2 -821q0 -147 -37 -242q-57 -139 -181 -205.5t-288 -66.5q-324 0 -442 227q-62 118 -62 287zM307 1686l55 45q12 8 21.5 7.5t15.5 -5t17 -15.5 q66 -79 116 -111t121 -32q65 0 111 31.5t117 111.5q26 29 51 11l55 -35q6 -4 9.5 -9.5t4.5 -10.5t-1 -13t-4 -12.5t-6 -14t-5 -12.5q-54 -105 -142.5 -161t-191.5 -56q-106 0 -199.5 54.5t-140.5 158.5q-26 51 -4 68z"/>
<glyph unicode="ŭ" horiz-adv-x="1087" d="M104 360v603q0 41 39 41h150q37 0 37 -41v-576q0 -102 30.5 -151.5t118.5 -49.5q94 0 277 93v684q0 41 39 41h145q39 0 39 -41v-924q0 -21 -9 -30t-30 -9h-145q-22 0 -30.5 9.5t-8.5 29.5v63l-4 2q-71 -49 -164.5 -85.5t-179.5 -36.5q-58 0 -103.5 10t-77.5 27 t-54.5 44.5t-35.5 57t-20.5 71t-10 79.5t-2.5 89zM197 1378l55 45q12 8 21.5 7.5t15 -4.5t16.5 -15q66 -78 116.5 -110.5t121.5 -32.5q65 0 110.5 31t116.5 112q25 28 51 10l56 -35q8 -5 11.5 -11t2 -14.5t-3 -14t-7 -17t-6.5 -14.5q-55 -105 -142.5 -161t-190.5 -56 q-106 0 -199.5 54.5t-140.5 158.5q-1 1 -2 4q-23 46 -2 63z"/>
<glyph unicode="Ů" horiz-adv-x="1286" d="M139 498v821q0 41 39 41h154q39 0 39 -41v-821q0 -152 69 -231t203 -79q277 0 277 310v821q0 41 41 41h153q37 0 37 -41l-2 -821q0 -147 -37 -242q-57 -139 -181 -205.5t-288 -66.5q-324 0 -442 227q-62 118 -62 287zM428 1610q0 93 68.5 156t160.5 63q93 0 159.5 -65.5 t66.5 -153.5q0 -91 -66 -156t-160 -65q-92 0 -160.5 63.5t-68.5 157.5zM561 1610q0 -45 27 -74t69 -29q41 0 69 30t28 73q0 39 -28.5 69.5t-68.5 30.5q-38 0 -67 -30.5t-29 -69.5z"/>
<glyph unicode="ů" horiz-adv-x="1087" d="M104 360v603q0 41 39 41h150q37 0 37 -41v-576q0 -102 30.5 -151.5t118.5 -49.5q94 0 277 93v684q0 41 39 41h145q39 0 39 -41v-924q0 -21 -9 -30t-30 -9h-145q-22 0 -30.5 9.5t-8.5 29.5v63l-4 2q-71 -49 -164.5 -85.5t-179.5 -36.5q-58 0 -103.5 10t-77.5 27 t-54.5 44.5t-35.5 57t-20.5 71t-10 79.5t-2.5 89zM319 1294q0 93 69 156t161 63q93 0 159 -65t66 -154q0 -91 -66 -156t-159 -65q-92 0 -161 63.5t-69 157.5zM453 1294q0 -45 27 -73.5t69 -28.5q41 0 68.5 29.5t27.5 72.5q0 39 -28 70t-68 31q-38 0 -67 -31t-29 -70z"/>
<glyph unicode="Ű" horiz-adv-x="1286" d="M139 498v821q0 41 39 41h154q39 0 39 -41v-821q0 -152 69 -231t203 -79q277 0 277 310v821q0 41 41 41h153q37 0 37 -41l-2 -821q0 -147 -37 -242q-57 -139 -181 -205.5t-288 -66.5q-324 0 -442 227q-62 118 -62 287zM326 1503q-18 18 8 35l282 219q23 21 46 -6l86 -109 q20 -26 -13 -43l-311 -169q-24 -13 -41 4zM705 1503q-18 18 8 35l282 219q23 20 45 -6l86 -109q9 -14 5 -25t-17 -18l-311 -169q-24 -13 -41 4z"/>
<glyph unicode="ű" horiz-adv-x="1087" d="M104 360v603q0 41 39 41h150q37 0 37 -41v-576q0 -102 30.5 -151.5t118.5 -49.5q94 0 277 93v684q0 41 39 41h145q39 0 39 -41v-924q0 -21 -9 -30t-30 -9h-145q-22 0 -30.5 9.5t-8.5 29.5v63l-4 2q-71 -49 -164.5 -85.5t-179.5 -36.5q-58 0 -103.5 10t-77.5 27 t-54.5 44.5t-35.5 57t-20.5 71t-10 79.5t-2.5 89zM311 1184l162 317q16 27 45 12l123 -61q26 -16 8 -45l-209 -287q-16 -22 -39 -12l-82 37q-23 13 -8 39zM612 1184l164 317q13 27 43 12l123 -61q26 -16 8 -45l-209 -287q-15 -21 -39 -12l-79 37q-24 14 -11 39z"/>
<glyph unicode="Ų" horiz-adv-x="1286" d="M139 498v821q0 41 39 41h154q39 0 39 -41v-821q0 -152 69 -231t203 -79q277 0 277 310v821q0 41 41 41h153q37 0 37 -41l-2 -821q0 -147 -37 -242q-53 -126 -161 -192.5t-251 -77.5q-61 -87 -61 -170q0 -82 94 -82q63 0 115 16q22 7 29 -10l18 -62q7 -21 -16 -32 q-89 -44 -201 -41q-95 1 -147 54t-52 136q0 97 78 193q-253 27 -356 223q-62 118 -62 287z"/>
<glyph unicode="ų" horiz-adv-x="1087" d="M104 360v603q0 41 39 41h150q37 0 37 -41v-576q0 -102 30.5 -151.5t118.5 -49.5q94 0 277 93v684q0 41 39 41h145q39 0 39 -41v-924q0 -21 -9 -30t-30 -9h-6q-72 -99 -72 -184q0 -82 94 -82q63 0 115 16q22 7 29 -10l18 -62q7 -21 -16 -32q-89 -44 -201 -41 q-95 1 -147 54t-52 136q0 105 89 205q-35 0 -35 39v63l-4 2q-71 -49 -164.5 -85.5t-179.5 -36.5q-58 0 -103.5 10t-77.5 27t-54.5 44.5t-35.5 57t-20.5 71t-10 79.5t-2.5 89z"/>
<glyph unicode="Ŵ" horiz-adv-x="1724" d="M37 1319q-10 41 26 41h162q25 0 36.5 -9t17.5 -32q182 -661 202 -731l66 -256h6l59 211q5 23 69 243.5t75 255.5l-84 277q-11 41 22 41h154q25 0 38 -9t19 -32q191 -680 209 -750l62 -237h8l57 243l199 744q6 23 18.5 32t38.5 9h156q35 0 22 -45l-354 -1272 q-6 -23 -19.5 -33t-41.5 -10h-142q-30 0 -42 10t-19 33l-150 506l-41 143l-8 -2l-43 -145l-149 -502q-6 -23 -18 -33t-40 -10h-147q-49 0 -58 41zM467.5 1497q-0.5 7 11.5 21l228 213q15 12 21 16t18 8t28 4h111q26 0 39 -5t30 -19l226 -211q23 -20 0 -43l-52 -51 q-13 -11 -20.5 -10.5t-22.5 10.5l-258 174l-249 -177q-18 -12 -26.5 -13t-21.5 11l-51 54q-11 11 -11.5 18z"/>
<glyph unicode="ŵ" horiz-adv-x="1472" d="M36.5 991q5.5 13 22.5 13h164q20 0 29.5 -8t15.5 -29l105 -346l102 -355h6l99 309l63 189l-63 201q-5 15 0.5 27t21.5 12h152q23 0 31 -7.5t14 -31.5l114 -377l95 -316l2 2l4 -2l96 340l102 355q5 22 12.5 29.5t26.5 7.5h164q33 0 21 -37l-301 -924q-6 -21 -18.5 -31 t-20 -11t-21.5 -1h-117q-44 0 -55 41l-72 215l-86 260h-4l-86 -262l-69 -207q-14 -47 -66 -47h-106q-35 0 -47.5 11.5t-22.5 43.5l-307 910q-6 13 -0.5 26zM361 1167q0 7 12 21l217 256q13 16 26 22.5t39 6.5h113q31 0 44 -5.5t24 -19.5l215 -260q23 -23 2 -41l-56 -49 q-24 -19 -45 0l-243 215l-234 -211q-15 -14 -24 -15t-23 11l-55 51q-12 11 -12 18z"/>
<glyph unicode="Ŷ" horiz-adv-x="1146" d="M29.5 1346q5.5 12 21.5 12h174q25 0 36 -7t22 -28l166 -319l116 -226h13l122 232l166 307q11 23 22.5 32t35.5 9h168q19 0 24.5 -11t-2.5 -26l-432 -762v-520q0 -39 -37 -39h-151q-41 0 -41 39v520l-422 762q-7 13 -1.5 25zM209.5 1497q-0.5 7 11.5 21l228 213 q15 12 21 16t18 8t28 4h111q26 0 39 -5t30 -19l226 -211q23 -20 0 -43l-52 -51q-13 -11 -20.5 -10.5t-22.5 10.5l-258 174l-250 -177q-18 -12 -26 -13t-21 11l-51 54q-11 11 -11.5 18z"/>
<glyph unicode="ŷ" horiz-adv-x="1005" d="M41 963q-16 41 22 41h158q21 0 29.5 -5t15.5 -26l133 -381l103 -305h8l106 305l127 377q6 19 16.5 27t33.5 8h151q23 0 27 -12t-4 -29l-478 -1303q-8 -21 -19 -29t-36 -8h-139q-39 0 -25 41l129 346zM160 1167q0 7 12 21l217 256q13 16 26.5 22.5t39.5 6.5h112 q31 0 44 -5.5t24 -19.5l215 -260q23 -23 2 -41l-55 -49q-24 -19 -45 0l-244 215l-234 -211q-15 -14 -24 -15t-23 11l-55 51q-12 11 -12 18z"/>
<glyph unicode="Ÿ" horiz-adv-x="1146" d="M29.5 1346q5.5 12 21.5 12h174q25 0 36 -7t22 -28l166 -319l116 -226h13l122 232l166 307q11 23 22.5 32t35.5 9h168q19 0 24.5 -11t-2.5 -26l-432 -762v-520q0 -39 -37 -39h-151q-41 0 -41 39v520l-422 762q-7 13 -1.5 25zM266 1559q0 52 24 80t89 28q67 0 90 -26.5 t23 -81.5q0 -53 -23.5 -83t-89.5 -30q-69 0 -91 29.5t-22 83.5zM647 1559q0 52 25 80t90 28q66 0 89 -26.5t23 -81.5q0 -54 -23 -83.5t-89 -29.5q-69 0 -92 29.5t-23 83.5z"/>
<glyph unicode="Ź" horiz-adv-x="1054" d="M80 37v113q0 42 20 71l611 936h-551q-22 0 -30.5 8.5t-8.5 28.5v127q0 20 8 29.5t29 9.5h778q39 0 39 -35l-2 -113q0 -34 -21 -71l-608 -940h596q22 0 30.5 -8.5t8.5 -28.5v-125q0 -20 -8 -29.5t-29 -9.5h-825q-37 0 -37 37zM375 1516q-14 20 10 36l293 205q23 16 45 -10 l78 -113q9 -14 4.5 -25t-19.5 -18l-317 -155q-25 -11 -41 8z"/>
<glyph unicode="ź" horiz-adv-x="921" d="M63 35v90q0 39 23 68l492 624h-447q-22 0 -30.5 8.5t-8.5 30.5v111q0 20 8.5 28.5t30.5 8.5h672q21 0 30 -7t9 -28v-101q0 -35 -25 -67l-479 -611h473q22 0 31.5 -8t9.5 -28v-115q0 -39 -39 -39h-715q-20 0 -27.5 8t-7.5 27zM369 1184l163 317q13 27 46 12l120 -61 q31 -16 9 -45l-209 -287q-16 -22 -39 -12l-80 37q-23 13 -10 39z"/>
<glyph unicode="Ż" horiz-adv-x="1054" d="M80 37v113q0 42 20 71l611 936h-551q-22 0 -30.5 8.5t-8.5 28.5v127q0 20 8 29.5t29 9.5h778q39 0 39 -35l-2 -113q0 -34 -21 -71l-608 -940h596q22 0 30.5 -8.5t8.5 -28.5v-125q0 -20 -8 -29.5t-29 -9.5h-825q-37 0 -37 37zM453 1589q0 53 26 83t92 30q68 0 93.5 -29 t25.5 -84q0 -54 -25 -85t-94 -31q-70 0 -94 31.5t-24 84.5z"/>
<glyph unicode="ż" horiz-adv-x="921" d="M63 35v90q0 39 23 68l492 624h-447q-22 0 -30.5 8.5t-8.5 30.5v111q0 20 8.5 28.5t30.5 8.5h672q21 0 30 -7t9 -28v-101q0 -35 -25 -67l-479 -611h473q22 0 31.5 -8t9.5 -28v-115q0 -39 -39 -39h-715q-20 0 -27.5 8t-7.5 27zM373 1264q0 53 26.5 82.5t92.5 29.5 q68 0 93 -28.5t25 -83.5q0 -54 -25 -85.5t-93 -31.5q-70 0 -94.5 32t-24.5 85z"/>
<glyph unicode="Ž" horiz-adv-x="1054" d="M80 37v113q0 42 20 71l611 936h-551q-22 0 -30.5 8.5t-8.5 28.5v127q0 20 8 29.5t29 9.5h778q39 0 39 -35l-2 -113q0 -34 -21 -71l-608 -940h596q22 0 30.5 -8.5t8.5 -28.5v-125q0 -20 -8 -29.5t-29 -9.5h-825q-37 0 -37 37zM209 1731l53 51q12 11 20 10.5t23 -10.5 l258 -168l252 166q19 12 25.5 12.5t21.5 -10.5l51 -49q11 -11 11.5 -18t-11.5 -21l-229 -215q-30 -27 -66 -27h-110q-41 0 -70 29l-227 207q-23 25 -2 43z"/>
<glyph unicode="ž" horiz-adv-x="921" d="M63 35v90q0 39 23 68l492 624h-447q-22 0 -30.5 8.5t-8.5 30.5v111q0 20 8.5 28.5t30.5 8.5h672q21 0 30 -7t9 -28v-101q0 -35 -25 -67l-479 -611h473q22 0 31.5 -8t9.5 -28v-115q0 -39 -39 -39h-715q-20 0 -27.5 8t-7.5 27zM119.5 1418q0.5 7 11.5 18l55 51 q14 12 23.5 11t23.5 -15l236 -211l242 215q23 20 45 0l55 -49q20 -18 0 -41l-215 -260q-13 -15 -25.5 -20t-44.5 -5h-110q-29 0 -42.5 6t-25.5 23l-217 256q-12 14 -11.5 21z"/>
<glyph unicode="ƒ" d="M82 -96l16 78q7 22 18 27.5t34 2.5q58 -8 106 -8q34 0 59.5 11t41 28t27 49.5t18 61.5t14.5 79l69 433h-139q-24 0 -32.5 7.5t-8.5 28.5v95q0 24 7 32.5t30 8.5h164l37 217q9 49 19 87t34.5 88.5t58 83t91 56t131.5 23.5q111 0 204 -35q21 -11 11 -43l-23 -86 q-6 -20 -16.5 -25t-34.5 0q-12 1 -50.5 5.5t-45.5 4.5q-47 0 -77.5 -12.5t-48 -42.5t-25.5 -60t-17 -85l-29 -176h166q22 0 31.5 -7.5t9.5 -27.5v-101q0 -24 -7 -30t-32 -6h-191l-86 -545q-8 -53 -28.5 -101.5t-56 -94.5t-94.5 -73.5t-134 -27.5q-50 0 -109.5 10t-95.5 25 q-27 10 -16 45z"/>
<glyph unicode="Ơ" horiz-adv-x="1351" d="M123 698q0 61 4.5 116.5t18.5 126t37.5 129t66 117t98.5 99t139 65.5t185 25q217 0 350 -96q70 5 100.5 48t30.5 147v73q0 18 7.5 23.5t23.5 5.5h114q16 0 22.5 -6t6.5 -23v-108q0 -239 -182 -301q84 -154 84 -441q0 -77 -4 -140t-18 -140t-38 -136t-66 -117.5t-99.5 -97 t-142.5 -62t-191 -23.5q-82 0 -151 14.5t-120.5 39t-93 62t-70 78t-49.5 93.5t-33 102t-19 109t-9 109.5t-2 108.5zM365 678q0 -97 8 -170t29 -136t55.5 -103t88 -62.5t126.5 -22.5q179 0 250 121t71 373q0 128 -15 217t-51.5 154t-99 96t-155.5 31q-86 0 -146 -33t-95 -99 t-50.5 -155t-15.5 -211z"/>
<glyph unicode="ơ" horiz-adv-x="1142" d="M90 518q0 506 438 506q193 0 306 -88q69 6 98 49t29 145v74q0 18 7 23.5t23 5.5h115q16 0 22.5 -6t6.5 -23v-108q0 -247 -195 -305q41 -102 41 -273q0 -59 -2.5 -104t-13 -103.5t-29 -101.5t-52.5 -87.5t-80.5 -73t-117 -46.5t-158.5 -18q-86 0 -154 18t-113 46.5t-78 73 t-50.5 87.5t-27.5 102t-12.5 103.5t-2.5 103.5zM317 504q0 -173 44 -248.5t167 -75.5q69 0 113.5 19t68.5 62t33 99.5t9 143.5t-8.5 143t-32.5 99t-68 62t-113 19q-124 0 -168.5 -76.5t-44.5 -246.5z"/>
<glyph unicode="Ư" horiz-adv-x="1382" d="M139 498v821q0 41 39 41h154q39 0 39 -41v-821q0 -152 69 -231t203 -79q277 0 277 310v821q0 41 41 41h153q37 0 37 -41v-37q77 2 109 41.5t32 142.5v82q0 18 7.5 23.5t23.5 5.5h115q15 0 21.5 -6t6.5 -23v-108q0 -165 -80 -242t-235 -80l-2 -620q0 -147 -37 -242 q-57 -139 -181 -205.5t-288 -66.5q-324 0 -442 227q-62 118 -62 287z"/>
<glyph unicode="ư" horiz-adv-x="1255" d="M104 360v603q0 41 39 41h150q37 0 37 -41v-576q0 -102 30.5 -151.5t118.5 -49.5q94 0 277 93v684q0 41 39 41h145q39 0 39 -41v-25q63 8 90 50.5t27 141.5v74q0 18 7 23.5t23 5.5h115q16 0 22.5 -6t6.5 -23v-108q0 -306 -291 -322v-735q0 -21 -9 -30t-30 -9h-145 q-22 0 -30.5 9.5t-8.5 29.5v63l-4 2q-71 -49 -164.5 -85.5t-179.5 -36.5q-58 0 -103.5 10t-77.5 27t-54.5 44.5t-35.5 57t-20.5 71t-10 79.5t-2.5 89z"/>
<glyph unicode="Ǻ" horiz-adv-x="1185" d="M25 9q-5 9 2 32l413 1274q8 23 20 33t38 10h178q27 0 37.5 -10t17.5 -33l422 -1278q10 -37 -20 -37h-181q-23 0 -33 9.5t-18 33.5l-86 295h-459l-92 -295q-7 -24 -20 -33.5t-35 -9.5h-160q-19 0 -24 9zM358 1610q0 93 69 156t161 63q93 0 159 -65t66 -154q0 -91 -66 -156 t-159 -65q-92 0 -161 63.5t-69 157.5zM414 530h346l-86 291l-84 295h-8l-82 -291zM436 1950q-14 21 10 37l293 204q23 16 45 -10l78 -113q10 -14 5 -25.5t-19 -17.5l-318 -155q-25 -11 -41 8zM492 1610q0 -45 27 -74t69 -29q41 0 68.5 30t27.5 73q0 39 -28 69.5t-68 30.5 q-38 0 -67 -30.5t-29 -69.5z"/>
<glyph unicode="ǻ" horiz-adv-x="1105" d="M86 274q-1 178 94 260t291 82h262v54q0 94 -44.5 130t-168.5 36q-83 0 -278 -19q-31 -5 -42.5 -0.5t-15.5 25.5l-18 76q-3 22 6 35t41 26q61 21 162.5 33t183.5 12q87 0 152 -11.5t108.5 -35.5t71 -54t41.5 -75.5t19 -90.5t5 -108v-395q0 -60 12 -74t62 -20q23 -2 31 -8 t8 -23v-86q0 -35 -49 -43q-55 -10 -96 -10q-76 0 -119 28t-57 97l-5 2q-80 -61 -178.5 -97t-197.5 -36q-154 0 -217.5 75t-63.5 215zM313 285q0 -67 27.5 -93t99.5 -26q61 0 143 29t148 67v195h-250q-83 0 -125.5 -38t-42.5 -134zM336 1294q0 93 68.5 156t160.5 63 q93 0 159.5 -65.5t66.5 -153.5q0 -91 -66 -156t-160 -65q-92 0 -160.5 63.5t-68.5 157.5zM467 1655l164 317q13 27 45 13l121 -62q30 -16 8 -45l-209 -287q-16 -22 -39 -12l-80 37q-23 13 -10 39zM469 1294q0 -45 27 -73.5t69 -28.5q41 0 69 29.5t28 72.5q0 39 -28.5 70 t-68.5 31q-38 0 -67 -31t-29 -70z"/>
<glyph unicode="Ǽ" horiz-adv-x="1847" d="M23 39l743 1280q12 24 26.5 32.5t43.5 8.5h868q41 0 41 -39v-127q0 -19 -9 -28t-32 -9h-559v-352h495q39 0 39 -37v-127q0 -37 -39 -37h-495v-403h573q37 0 37 -39v-125q0 -20 -8.5 -28.5t-30.5 -8.5h-764q-26 0 -33.5 8t-7.5 25v305h-460l-177 -299q-13 -22 -27.5 -30.5 t-37.5 -8.5h-168q-40 0 -18 39zM559 530h352v619h-6zM1001 1516q-13 20 11 36l293 205q23 16 45 -10l77 -113q10 -14 5 -25.5t-19 -17.5l-317 -155q-25 -11 -41 8z"/>
<glyph unicode="ǽ" horiz-adv-x="1671" d="M90 272q0 168 94 245t291 77h262v76q0 94 -44.5 129t-168.5 35q-76 0 -280 -19q-18 -5 -34.5 -0.5t-21.5 27.5l-18 76q-5 22 4.5 34t42.5 25q60 23 160 34t186 11q239 0 318 -107q112 107 299 107q442 0 442 -469q0 -117 -100 -117h-551q6 -153 57 -206.5t184 -53.5 q102 0 281 23q23 8 36 3t19 -30l17 -78q10 -44 -39 -61q-57 -22 -159 -36.5t-181 -14.5q-268 0 -367 149q-29 -24 -69 -47q-169 -100 -373 -100q-159 0 -223 74t-64 214zM317 279q0 -61 28 -88t99 -27q58 0 151.5 33.5t162.5 72.5q-18 77 -21 166h-245q-91 0 -133 -35 t-42 -122zM825 1184l164 317q13 26 45 12l121 -61q30 -16 8 -45l-209 -287q-16 -22 -39 -12l-79 37q-24 14 -11 39zM975 592h407q-2 41 -6.5 71t-18 65t-34.5 57.5t-58 37.5t-87 15q-58 0 -97 -16.5t-60.5 -51t-31.5 -76t-14 -102.5z"/>
<glyph unicode="Ǿ" horiz-adv-x="1351" d="M123 698q0 61 4.5 116.5t18.5 126t37.5 129t66 117t98.5 99t139 65.5t185 25q238 0 372 -112l62 82q1 1 5 5.5t5 5.5l4 4t4 3.5l4 2t4.5 1t4.5 -1t6 -2t6 -4.5l49 -37q16 -11 16 -18.5t-12 -22.5l-80 -106q107 -157 107 -478q0 -77 -4 -140t-18 -140t-38 -136t-66 -117.5 t-99.5 -97t-142.5 -62t-191 -23.5q-225 0 -357 106l-59 -80q-21 -28 -43 -12l-49 35q-13 10 -13 18.5t11 22.5l76 102q-46 68 -72.5 163t-33.5 176t-7 185zM365 678q0 -187 30 -289l512 688q-80 99 -235 99q-86 0 -146 -33t-95 -99t-50.5 -155t-15.5 -211zM453 274 q72 -90 219 -90q179 0 250 121t71 373q0 186 -30 283zM549 1516q-14 20 10 36l293 205q23 16 45 -10l78 -113q10 -14 5 -25.5t-19 -17.5l-318 -155q-25 -11 -41 8z"/>
<glyph unicode="ǿ" horiz-adv-x="1071" d="M90 518q0 506 438 506q174 0 281 -70l47 62q1 1 5 5.5t5 5.5l4 4t4 3.5l4 2t4.5 1t4.5 -1t6 -2t6 -4.5l49 -37q16 -11 16 -18.5t-12 -22.5l-59 -78q88 -120 88 -356q0 -59 -2.5 -104t-13 -103.5t-29 -101.5t-52.5 -87.5t-80.5 -73t-117 -46.5t-158.5 -18q-161 0 -258 59 l-32 -43q-21 -28 -43 -12l-50 35q-13 10 -13 18t11 22l41 56q-58 73 -76 171.5t-18 227.5zM317 504q0 -118 17 -185l348 463q-51 45 -152 45q-124 0 -168.5 -76.5t-44.5 -246.5zM399 213q44 -33 129 -33q69 0 113.5 19t68.5 62t33 99.5t9 143.5q0 91 -13 164zM465 1184 l164 317q13 26 45 12l121 -61q30 -16 8 -45l-209 -287q-16 -22 -39 -12l-80 37q-23 13 -10 39z"/>
<glyph unicode="Ș" horiz-adv-x="1126" d="M97.5 79.5q-0.5 10.5 2.5 24.5l19 84q6 25 16 29.5t39 1.5q256 -29 363 -29q130 0 196 46.5t66 134.5q0 56 -11.5 91.5t-42 60t-74 38.5t-116.5 27q-61 12 -102 21.5t-93.5 26t-87 35t-70.5 47.5t-56.5 64t-34 83.5t-13.5 107.5q0 192 123 295.5t342 103.5q243 0 377 -55 q31 -12 38 -26t3 -38l-20 -84q-6 -23 -17 -28.5t-43 -3.5q-199 26 -328 26q-126 0 -180.5 -46t-54.5 -136q0 -32 5 -55.5t19.5 -41.5t30 -29t48 -21.5t61 -16.5t80.5 -16q62 -12 100 -21t91.5 -26.5t86.5 -36t69.5 -49.5t57 -68.5t34 -90.5t13.5 -118q0 -112 -40 -193.5 t-111 -127.5t-157 -67t-189 -21q-92 0 -208 15t-188 44q-23 9 -33 18.5t-10.5 20zM425.5 -532q1.5 9 16.5 26q62 57 62 139q0 55 -51 117q-16 14 -16 30.5t22 35.5l102 73q24 15 38 12t34 -20q34 -31 51.5 -73.5t17.5 -81.5q0 -110 -49.5 -192.5t-126.5 -129.5 q-33 -19 -51 2l-41 39q-10 14 -8.5 23z"/>
<glyph unicode="ș" horiz-adv-x="940" d="M86 96l14 68q4 23 15.5 28.5t38.5 2.5q161 -25 290 -25q98 0 141.5 27.5t43.5 89.5q0 69 -32.5 94t-131.5 39q-70 10 -117.5 20.5t-101 32t-85 51t-52.5 78t-21 113.5q0 149 104.5 229t280.5 80q74 0 163 -11t148 -34q51 -20 43 -61l-16 -74q-4 -21 -15 -26.5t-40 -2.5 q-202 23 -279 23q-94 0 -128 -26.5t-34 -88.5q0 -56 35 -75t139 -36q50 -7 83 -13.5t75.5 -18.5t70 -26t57 -37t46.5 -52.5t28 -71t11 -92.5q0 -87 -34.5 -150.5t-94.5 -98.5t-130.5 -51.5t-154.5 -16.5q-204 0 -317 45q-30 12 -39 26.5t-4 40.5zM337.5 -532q1.5 9 16.5 26 q62 57 62 139q0 55 -51 117q-16 14 -16 30.5t22 35.5l102 73q24 15 38 12t34 -20q34 -31 51.5 -73.5t17.5 -81.5q0 -110 -49.5 -192.5t-126.5 -129.5q-33 -19 -51 2l-41 39q-10 14 -8.5 23z"/>
<glyph unicode="Ț" horiz-adv-x="1019" d="M31 1194v127q0 20 8.5 29.5t30.5 9.5h882q39 0 39 -39v-127q0 -19 -9 -28t-32 -9h-325v-1118q0 -39 -37 -39h-154q-21 0 -30 9t-9 30v1118h-323q-24 0 -32.5 8.5t-8.5 28.5zM358.5 -532q1.5 9 16.5 26q61 56 61 139q0 55 -51 117q-16 14 -16 30.5t22 35.5l103 73 q24 15 37.5 12t33.5 -20q34 -31 52 -73.5t18 -81.5q0 -110 -49.5 -192.5t-126.5 -129.5q-33 -19 -51 2l-41 39q-10 14 -8.5 23z"/>
<glyph unicode="ț" horiz-adv-x="739" d="M49 862v101q0 21 8.5 31t30.5 10h105v210q0 36 38 46l138 36q41 10 41 -24v-268h219q23 0 31 -9.5t8 -29.5v-103q0 -22 -7.5 -30.5t-31.5 -8.5h-219v-510q0 -42 5 -64t24 -33t39.5 -13t68.5 -2q55 0 137 8q18 2 26 -4.5t11 -24.5l14 -102q5 -35 -26 -51q-49 -21 -129 -32 t-138 -11q-44 0 -79.5 6.5t-61 20t-44.5 29.5t-31 41t-19.5 47.5t-11 56t-4.5 59.5t-1 65v514h-102q-22 0 -30.5 9t-8.5 30zM229.5 -532q1.5 9 16.5 26q61 56 61 139q0 55 -51 117q-16 14 -16 30.5t22 35.5l103 73q24 15 37.5 12t33.5 -20q34 -31 52 -73.5t18 -81.5 q0 -110 -49.5 -192.5t-126.5 -129.5q-33 -19 -51 2l-41 39q-10 14 -8.5 23z"/>
<glyph unicode="ə" horiz-adv-x="1044" d="M82 440q-2 60 20.5 92.5t79.5 32.5h543q-4 151 -59 207.5t-185 56.5q-53 0 -268 -22q-29 -3 -40 3t-17 32l-11 67q-6 24 1 38t34 26q57 22 155.5 36.5t176.5 14.5q82 0 147.5 -15t111 -40.5t79.5 -64.5t53.5 -81t31 -97t15.5 -105t4 -113q0 -48 -3.5 -92t-15.5 -99 t-31 -100t-53 -90t-79.5 -76t-113 -50t-150.5 -19q-77 0 -139.5 14.5t-105.5 37.5t-75.5 59.5t-51.5 73.5t-31 86.5t-16.5 91.5t-6.5 95zM315 412q1 -42 4.5 -74t16 -66t33 -56t56.5 -36t85 -14q108 0 156.5 62t56.5 184h-408z"/>
<glyph unicode="ʹ" horiz-adv-x="557" d="M72 889l258 528q14 32 49 17l133 -60q29 -12 8 -43l-307 -512q-15 -19 -37 -10l-96 43q-21 9 -8 37z"/>
<glyph unicode="ˆ" horiz-adv-x="1067" d="M174 1167q0 7 12 21l217 256q13 16 26.5 22.5t39.5 6.5h113q31 0 43.5 -5t23.5 -20l215 -260q23 -23 2 -41l-55 -49q-24 -19 -45 0l-244 215l-233 -211q-15 -14 -24 -15t-23 11l-56 51q-12 11 -12 18z"/>
<glyph unicode="ˇ" horiz-adv-x="964" d="M138.5 1397q0.5 7 11.5 18l55 51q14 12 23.5 11t23.5 -15l235 -211l242 215q23 20 45 0l55 -49q20 -18 0 -41l-215 -260q-13 -15 -25 -19.5t-44 -4.5h-111q-29 0 -42 5.5t-25 22.5l-217 256q-12 14 -11.5 21z"/>
<glyph unicode="˘" horiz-adv-x="1073" d="M217 1378l55 45q21 10 29.5 7t24.5 -19q66 -79 116 -111t121 -32q65 0 111 31.5t117 111.5q25 28 51 10l55 -35q8 -5 11.5 -10.5t2 -15t-2.5 -14t-6.5 -17t-6.5 -14.5q-54 -105 -142.5 -161t-191.5 -56q-106 0 -199.5 54.5t-140.5 158.5q-1 1 -2 4q-23 46 -2 63z"/>
<glyph unicode="˙" horiz-adv-x="825" d="M295 1264q0 53 26.5 82.5t92.5 29.5q68 0 93 -28.5t25 -83.5q0 -54 -25 -85.5t-93 -31.5q-70 0 -94.5 32t-24.5 85z"/>
<glyph unicode="˚" horiz-adv-x="1044" d="M336 1294q0 93 68.5 156t160.5 63q93 0 159.5 -65.5t66.5 -153.5q0 -91 -66 -156t-160 -65q-92 0 -160.5 63.5t-68.5 157.5zM469 1294q0 -45 27 -73.5t69 -28.5q41 0 69 29.5t28 72.5q0 39 -28.5 70t-68.5 31q-38 0 -67 -31t-29 -70z"/>
<glyph unicode="˛" horiz-adv-x="950" d="M324 -205q0 131 135 250h131v-2q-107 -122 -107 -227q0 -82 95 -82q62 0 114 16q22 7 29 -10l18 -62q7 -21 -16 -32q-89 -44 -201 -41q-95 1 -146.5 54t-51.5 136z"/>
<glyph unicode="˜" horiz-adv-x="1069" d="M154 1167q27 99 79 147.5t111 53.5q53 5 159 -39.5t140 -40.5q30 1 50.5 18.5t39.5 55.5q12 26 37 18l55 -20q23 -7 19 -35q-51 -190 -187 -199q-43 -5 -154 40t-147 42q-55 -4 -96 -78q-6 -14 -13 -17.5t-22 1.5l-55 21q-9 0 -14 10t-2 22z"/>
<glyph unicode="˝" horiz-adv-x="1114" d="M311 1184l162 317q16 27 45 12l123 -61q26 -16 8 -45l-209 -287q-16 -22 -39 -12l-82 37q-23 13 -8 39zM612 1184l164 317q13 27 43 12l123 -61q26 -16 8 -45l-209 -287q-15 -21 -39 -12l-79 37q-24 14 -11 39z"/>
<glyph unicode="̉" horiz-adv-x="829" d="M196 1365q-1 5 9 21q82 115 207 115q95 0 149.5 -56t52.5 -132q-3 -139 -149 -254q-21 -16 -45 4l-39 39q-11 8 -10.5 16.5t14.5 22.5q55 67 55 123q0 59 -50.5 75t-94.5 -22q-2 -2 -7 -5t-6 -4t-4.5 -3t-5 -2.5t-4 -1t-4 0.5t-4 1.5t-5 2.5t-5.5 5l-39 37q-14 12 -15 17 z"/>
<glyph unicode="̣" horiz-adv-x="843" d="M303 -258q0 57 27.5 89t97.5 32q71 0 98 -31t27 -90q0 -56 -27 -89.5t-98 -33.5q-75 0 -100 32.5t-25 90.5z"/>
<glyph unicode="΄" horiz-adv-x="1052" d="M436 1184l164 317q13 26 45 12l121 -61q30 -16 8 -45l-207 -287q-18 -21 -41 -12l-80 37q-21 12 -10 39z"/>
<glyph unicode="΅" horiz-adv-x="843" d="M39 1255q0 52 25 80.5t90 28.5q66 0 89 -27t23 -82q0 -54 -23 -84t-89 -30q-69 0 -92 30t-23 84zM272 1184l164 317q13 26 45 12l121 -61q30 -16 8 -45l-207 -287q-18 -21 -41 -12l-79 37q-22 12 -11 39zM573 1255q0 51 25 80t88 29q67 0 91 -27t24 -82q0 -54 -24 -84 t-91 -30t-90 30.5t-23 83.5z"/>
<glyph unicode="Ά" horiz-adv-x="1185" d="M-133 1044l164 318q13 26 45 12l121 -61q30 -16 8 -45l-207 -287q-18 -21 -41 -12l-80 37q-21 12 -10 38zM25 9q-5 9 2 32l413 1274q8 23 20 33t38 10h178q27 0 37.5 -10t17.5 -33l422 -1278q10 -37 -20 -37h-181q-23 0 -33 9.5t-18 33.5l-86 295h-459l-92 -295 q-7 -24 -20 -33.5t-35 -9.5h-160q-19 0 -24 9zM414 530h346l-86 291l-84 295h-8l-82 -291z"/>
<glyph unicode="·" horiz-adv-x="434" d="M92 793q0 57 27.5 88.5t97.5 31.5q72 0 98.5 -30.5t26.5 -89.5q0 -56 -27 -89.5t-98 -33.5q-75 0 -100 33t-25 90z"/>
<glyph unicode="Έ" horiz-adv-x="1081" d="M-307 1044l164 318q13 26 45 12l121 -61q30 -16 8 -45l-207 -287q-18 -21 -41 -12l-80 37q-21 12 -10 38zM145 37v1282q0 41 41 41h754q39 0 39 -39v-127q0 -19 -9 -28t-32 -9h-559v-352h495q41 0 41 -37v-127q0 -19 -9 -28t-32 -9h-495v-403h573q37 0 37 -39v-125 q0 -20 -8.5 -28.5t-30.5 -8.5h-764q-41 0 -41 37z"/>
<glyph unicode="Ή" horiz-adv-x="1265" d="M-311 1044l164 318q13 26 45 12l120 -61q31 -16 9 -45l-207 -287q-18 -21 -41 -12l-80 37q-21 12 -10 38zM143 39v1280q0 41 41 41h154q37 0 37 -41v-504h516v504q0 41 41 41h153q37 0 37 -41v-1280q0 -39 -37 -39h-153q-41 0 -41 39v573h-516v-573q0 -39 -37 -39h-154 q-41 0 -41 39z"/>
<glyph unicode="Ί" horiz-adv-x="565" d="M-270 1044l164 318q13 26 45 12l120 -61q31 -16 9 -45l-207 -287q-18 -21 -41 -12l-80 37q-21 12 -10 38zM164 39v1280q0 41 39 41h155q39 0 39 -41v-1280q0 -39 -39 -39h-155q-21 0 -30 9t-9 30z"/>
<glyph unicode="Ό" horiz-adv-x="1351" d="M-227 1044l164 318q13 26 45 12l120 -61q31 -16 9 -45l-207 -287q-18 -21 -41 -12l-80 37q-21 12 -10 38zM123 698q0 61 4.5 116.5t18.5 126t37.5 129t66 117t98.5 99t139 65.5t185 25t184 -21t139.5 -55.5t100 -87.5t67.5 -109t40.5 -127.5t20.5 -136t5 -141.5t-4 -140 t-18 -140t-38 -136t-66 -117.5t-99.5 -97t-142.5 -62t-191 -23.5q-82 0 -151 14.5t-120.5 39t-93 62t-70 78t-49.5 93.5t-33 102t-19 109t-9 109.5t-2 108.5zM365 678q0 -97 8 -170t29 -136t55.5 -103t88 -62.5t126.5 -22.5q179 0 250 121t71 373q0 128 -15 217t-51.5 154 t-99 96t-155.5 31q-86 0 -146 -33t-95 -99t-50.5 -155t-15.5 -211z"/>
<glyph unicode="Ύ" horiz-adv-x="1146" d="M-362 1044l163 318q13 26 45 12l121 -61q30 -16 8 -45l-206 -287q-18 -21 -41 -12l-80 37q-21 12 -10 38zM29.5 1346q5.5 12 21.5 12h174q25 0 36 -7t22 -28l166 -319l116 -226h13l122 232l166 307q11 23 22.5 32t35.5 9h168q19 0 24.5 -11t-2.5 -26l-432 -762v-520 q0 -39 -37 -39h-151q-41 0 -41 39v520l-422 762q-7 13 -1.5 25z"/>
<glyph unicode="Ώ" horiz-adv-x="1372" d="M-215 1044l164 318q13 26 45 12l121 -61q30 -16 8 -45l-207 -287q-18 -21 -41 -12l-80 37q-21 12 -10 38zM84 39v123q0 19 8 27t31 8h141l6 4q-83 64 -117 202t-34 299q0 65 6.5 126.5t24.5 130t45 127t72 112.5t102.5 92.5t138.5 61t178 22.5q135 0 237.5 -39.5 t164 -102.5t100.5 -153.5t53 -180.5t14 -196q0 -148 -37 -284.5t-120 -214.5l2 -6h137q23 0 32 -8t9 -27v-123q0 -21 -8.5 -30t-30.5 -9h-428q-37 0 -37 37v149q0 17 8 27t25 18q31 8 59 29q152 114 152 426q0 106 -15 188.5t-50.5 153t-102.5 108.5t-162 38 q-328 0 -328 -486q0 -189 46.5 -302t146.5 -155q33 -13 33 -45v-149q0 -37 -37 -37h-428q-22 0 -29.5 9t-7.5 30z"/>
<glyph unicode="ΐ" horiz-adv-x="505" d="M-131 1255q0 52 25 80.5t90 28.5q66 0 89 -27t23 -82q0 -54 -23 -84t-89 -30q-69 0 -92 30t-23 84zM102 1184l164 317q13 26 45 12l121 -61q30 -16 8 -45l-207 -287q-18 -21 -40 -12l-80 37q-22 12 -11 39zM139 39v926q0 21 9.5 30t31.5 9h146q36 0 36 -39v-926 q0 -39 -36 -39h-146q-41 0 -41 39zM403 1255q0 51 25 80t88 29q67 0 91 -27t24 -82q0 -54 -24 -84t-91 -30t-90 30.5t-23 83.5z"/>
<glyph unicode="Α" horiz-adv-x="1185" d="M25 9q-5 9 2 32l413 1274q8 23 20 33t38 10h178q27 0 37.5 -10t17.5 -33l422 -1278q10 -37 -20 -37h-181q-23 0 -33 9.5t-18 33.5l-86 295h-459l-92 -295q-7 -24 -20 -33.5t-35 -9.5h-160q-19 0 -24 9zM414 530h346l-86 291l-84 295h-8l-82 -291z"/>
<glyph unicode="Β" horiz-adv-x="1198" d="M143 39v1280q0 39 41 39h469q200 0 306 -97t106 -264q0 -33 -7.5 -68.5t-24.5 -76t-51 -77t-81 -58.5l2 -4q58 -19 100 -58.5t62.5 -88t29.5 -92.5t9 -87q0 -175 -115 -281t-280 -106h-521q-25 0 -35 9.5t-10 29.5zM375 201h276q211 0 211 200q0 88 -53.5 146.5 t-157.5 58.5h-276v-405zM375 803h266q78 0 130 50.5t52 125.5q0 82 -51 131t-154 49h-243v-356z"/>
<glyph unicode="Γ" horiz-adv-x="987" d="M147 39v1282q0 39 41 39h742q39 0 39 -39v-127q0 -19 -9 -28t-32 -9h-547v-1118q0 -39 -37 -39h-156q-41 0 -41 39z"/>
<glyph unicode="Δ" horiz-adv-x="1185" d="M31 41l411 1274q8 24 20.5 33.5t41.5 9.5h162q33 0 44 -9.5t19 -35.5l422 -1276q5 -12 0.5 -24.5t-18.5 -12.5h-1080q-34 0 -22 41zM307 199h549q-12 49 -164 549q-59 189 -102 362h-8q-34 -132 -86 -305z"/>
<glyph unicode="Ε" horiz-adv-x="1081" d="M145 37v1282q0 41 41 41h754q39 0 39 -39v-127q0 -19 -9 -28t-32 -9h-559v-352h495q41 0 41 -37v-127q0 -19 -9 -28t-32 -9h-495v-403h573q37 0 37 -39v-125q0 -20 -8.5 -28.5t-30.5 -8.5h-764q-41 0 -41 37z"/>
<glyph unicode="Ζ" horiz-adv-x="1054" d="M80 37v113q0 42 20 71l611 936h-551q-22 0 -30.5 8.5t-8.5 28.5v127q0 20 8 29.5t29 9.5h778q39 0 39 -35l-2 -113q0 -34 -21 -71l-608 -940h596q22 0 30.5 -8.5t8.5 -28.5v-125q0 -20 -8 -29.5t-29 -9.5h-825q-37 0 -37 37z"/>
<glyph unicode="Η" horiz-adv-x="1265" d="M143 39v1280q0 41 41 41h154q37 0 37 -41v-504h516v504q0 41 41 41h153q37 0 37 -41v-1280q0 -39 -37 -39h-153q-41 0 -41 39v573h-516v-573q0 -39 -37 -39h-154q-41 0 -41 39z"/>
<glyph unicode="Θ" horiz-adv-x="1366" d="M123 698q0 61 4.5 116.5t19 126t38 129t66 117t99 99t140 65.5t186.5 25t186.5 -21t141.5 -55.5t101.5 -87.5t69.5 -109t41.5 -127.5t21 -136t5.5 -141.5q0 -76 -4.5 -140t-19 -140t-39 -135.5t-67.5 -118t-101.5 -97t-144 -62t-191.5 -23.5q-105 0 -189.5 24t-141.5 62 t-99 97t-65 117.5t-36.5 135.5t-17.5 139.5t-4 140.5zM365 678q0 -120 15.5 -207.5t51 -154t97 -99.5t149.5 -33q175 0 251.5 123.5t76.5 370.5q0 257 -73 377.5t-255 120.5q-170 0 -241.5 -125t-71.5 -373zM446 637v125q0 19 8.5 26t28.5 7h404q20 0 28.5 -7t8.5 -26v-125 q0 -37 -37 -37h-404q-37 0 -37 37z"/>
<glyph unicode="Ι" horiz-adv-x="565" d="M164 39v1280q0 41 39 41h155q39 0 39 -41v-1280q0 -39 -39 -39h-155q-21 0 -30 9t-9 30z"/>
<glyph unicode="Κ" horiz-adv-x="1187" d="M135 39v1280q0 41 41 41h154q37 0 37 -41v-614h4l155 200l344 424q28 31 68 31h186q21 0 27 -13t-8 -28l-445 -541l459 -735q11 -20 4.5 -31.5t-24.5 -11.5h-189q-25 0 -38.5 9t-26.5 30l-336 557l-180 -223v-334q0 -39 -37 -39h-154q-41 0 -41 39z"/>
<glyph unicode="Λ" horiz-adv-x="1185" d="M31 41l411 1274q8 24 20.5 33.5t41.5 9.5h162q33 0 44 -9.5t19 -35.5l422 -1276q5 -12 0.5 -24.5t-18.5 -12.5h-179q-22 0 -32.5 9t-16.5 32q-34 118 -227 758q-67 224 -88 311h-8q-54 -208 -84 -303q-31 -102 -87 -281.5t-97 -311.5t-52 -171q-7 -25 -19.5 -34t-35.5 -9 h-154q-34 0 -22 41z"/>
<glyph unicode="Μ" horiz-adv-x="1550" d="M145 39v1284q0 37 37 37h127q30 0 42.5 -8t23.5 -31l278 -573l121 -261h6l125 267l279 565q12 22 25 31.5t42 9.5h119q35 0 35 -37v-1284q0 -39 -37 -39h-149q-23 0 -32 9t-9 30v821h-7l-71 -158l-226 -458q-19 -39 -59 -39h-78q-43 0 -61 35l-234 477l-67 143h-4v-821 q0 -39 -37 -39h-150q-39 0 -39 39z"/>
<glyph unicode="Ν" horiz-adv-x="1325" d="M141 39v1282q0 37 39 37h117q15 0 27 -3t19.5 -6t15.5 -12t11.5 -13.5t12 -17.5t12.5 -18l258 -401l295 -461h6v891q0 21 8.5 31t30.5 10h148q21 0 30 -9.5t9 -31.5v-1280q0 -37 -39 -37h-117q-27 0 -41 9t-27 30l-444 678l-137 219h-6v-897q0 -39 -39 -39h-148 q-41 0 -41 39z"/>
<glyph unicode="Ξ" horiz-adv-x="1105" d="M66 37v125q0 39 38 39h332v403h-252q-39 0 -39 37v127q0 37 39 37h252v352h-315q-23 0 -32 9t-9 28v127q0 39 39 39h862q39 0 39 -39v-127q0 -19 -9 -28t-32 -9h-313v-352h249q39 0 39 -37v-127q0 -37 -39 -37h-249v-403h329q39 0 39 -39v-125q0 -20 -9 -28.5t-32 -8.5 h-887q-23 0 -31.5 8t-8.5 29z"/>
<glyph unicode="Ο" horiz-adv-x="1351" d="M123 698q0 61 4.5 116.5t18.5 126t37.5 129t66 117t98.5 99t139 65.5t185 25t184 -21t139.5 -55.5t100 -87.5t67.5 -109t40.5 -127.5t20.5 -136t5 -141.5t-4 -140t-18 -140t-38 -136t-66 -117.5t-99.5 -97t-142.5 -62t-191 -23.5q-82 0 -151 14.5t-120.5 39t-93 62 t-70 78t-49.5 93.5t-33 102t-19 109t-9 109.5t-2 108.5zM365 678q0 -97 8 -170t29 -136t55.5 -103t88 -62.5t126.5 -22.5q179 0 250 121t71 373q0 128 -15 217t-51.5 154t-99 96t-155.5 31q-86 0 -146 -33t-95 -99t-50.5 -155t-15.5 -211z"/>
<glyph unicode="Π" horiz-adv-x="1267" d="M145 39v1280q0 41 39 41h903q37 0 37 -41v-1280q0 -39 -37 -39h-153q-41 0 -41 39v1118h-518v-1118q0 -39 -37 -39h-154q-21 0 -30 9t-9 30z"/>
<glyph unicode="Ρ" horiz-adv-x="1101" d="M143 39v1282q0 39 41 39h426q127 0 225 -44.5t157 -138t59 -225.5q0 -61 -12 -117t-43 -113t-79 -99t-127 -68.5t-180 -26.5h-235v-489q0 -39 -37 -39h-154q-41 0 -41 39zM375 723h217q116 0 169.5 61t53.5 162q0 106 -61.5 159.5t-169.5 53.5h-209v-436z"/>
<glyph unicode="Σ" horiz-adv-x="995" d="M59 1237v82q0 18 10.5 28.5t28.5 10.5h795q22 0 30.5 -9.5t8.5 -29.5v-127q0 -20 -8.5 -28.5t-30.5 -8.5h-571l284 -412q19 -25 19 -43q0 -23 -31 -65l-262 -434h588q21 0 29.5 -9t8.5 -28v-125q0 -21 -8 -30t-30 -9h-816q-19 0 -27.5 8.5t-8.5 28.5v72q0 5 -0.5 20t0 20 t2 17.5t5.5 21.5t10.5 23t16.5 31l279 458l-307 453q-15 23 -15 84z"/>
<glyph unicode="Τ" horiz-adv-x="1019" d="M31 1194v127q0 20 8.5 29.5t30.5 9.5h882q39 0 39 -39v-127q0 -19 -9 -28t-32 -9h-325v-1118q0 -39 -37 -39h-154q-21 0 -30 9t-9 30v1118h-323q-24 0 -32.5 8.5t-8.5 28.5z"/>
<glyph unicode="Υ" horiz-adv-x="1146" d="M29.5 1346q5.5 12 21.5 12h174q25 0 36 -7t22 -28l166 -319l116 -226h13l122 232l166 307q11 23 22.5 32t35.5 9h168q19 0 24.5 -11t-2.5 -26l-432 -762v-520q0 -39 -37 -39h-151q-41 0 -41 39v520l-422 762q-7 13 -1.5 25z"/>
<glyph unicode="Φ" horiz-adv-x="1593" d="M119 698q0 47 6.5 95t24 104t44.5 106t71.5 99t102 86t138.5 63t178 33v35q0 41 41 41h154q39 0 39 -41v-35q97 -7 177.5 -31t137 -58.5t100 -82t69.5 -96.5t42.5 -106t22.5 -107.5t6 -104.5q0 -86 -15 -163.5t-54 -155.5t-100 -136t-160 -99t-226 -52v-53q0 -39 -39 -39 h-154q-39 0 -39 39v53q-137 7 -241.5 49.5t-165 102t-98 141t-50 156t-12.5 157.5zM356 688q0 -179 77.5 -280t252.5 -121v805q-116 -11 -191.5 -68t-107 -141t-31.5 -195zM918 289q321 25 321 397q0 79 -15.5 144.5t-50 123t-99.5 93.5t-156 43v-801z"/>
<glyph unicode="Χ" horiz-adv-x="1128" d="M34.5 13q-4.5 13 6.5 30l393 653l-366 619q-10 17 -4.5 31t24.5 14h178q24 0 33.5 -7t19.5 -28l132 -238l110 -198l113 207l127 227q9 20 20.5 27.5t34.5 7.5h176q24 1 29.5 -13t-4.5 -28l-371 -621l395 -657q9 -12 4.5 -25.5t-24.5 -13.5h-178q-22 0 -34 7.5t-24 27.5 l-145 256l-119 217l-115 -209l-149 -262q-11 -21 -22.5 -29t-36.5 -8h-179q-20 0 -24.5 13z"/>
<glyph unicode="Ψ" horiz-adv-x="1513" d="M125 836v483q0 41 39 41h149q39 0 39 -41v-483q0 -144 79 -230.5t204 -95.5v809q0 41 41 41h155q37 0 37 -41v-809q126 11 205.5 97t79.5 229v483q0 41 41 41h147q37 0 37 -41v-483q0 -145 -59 -260.5t-176.5 -187.5t-276.5 -81v-268q0 -39 -37 -39h-153q-41 0 -41 39 v268q-131 8 -230.5 52t-160 116t-90 162.5t-29.5 198.5z"/>
<glyph unicode="Ω" horiz-adv-x="1372" d="M84 39v123q0 19 8 27t31 8h141l6 4q-83 64 -117 202t-34 299q0 65 6.5 126.5t24.5 130t45 127t72 112.5t102.5 92.5t138.5 61t178 22.5q135 0 237.5 -39.5t164 -102.5t100.5 -153.5t53 -180.5t14 -196q0 -148 -37 -284.5t-120 -214.5l2 -6h137q23 0 32 -8t9 -27v-123 q0 -21 -8.5 -30t-30.5 -9h-428q-37 0 -37 37v149q0 17 8 27t25 18q31 8 59 29q152 114 152 426q0 106 -15 188.5t-50.5 153t-102.5 108.5t-162 38q-328 0 -328 -486q0 -189 46.5 -302t146.5 -155q33 -13 33 -45v-149q0 -37 -37 -37h-428q-22 0 -29.5 9t-7.5 30z"/>
<glyph unicode="Ϊ" horiz-adv-x="565" d="M-18 1559q0 52 23.5 80t88.5 28q67 0 90 -26.5t23 -81.5q0 -53 -23.5 -83t-89.5 -30q-69 0 -90.5 29.5t-21.5 83.5zM164 39v1280q0 41 39 41h155q39 0 39 -41v-1280q0 -39 -39 -39h-155q-21 0 -30 9t-9 30zM362 1559q0 52 25 80t90 28q66 0 89.5 -26.5t23.5 -81.5 q0 -53 -23.5 -83t-89.5 -30q-69 0 -92 29.5t-23 83.5z"/>
<glyph unicode="Ϋ" horiz-adv-x="1146" d="M29.5 1346q5.5 12 21.5 12h174q25 0 36 -7t22 -28l166 -319l116 -226h13l122 232l166 307q11 23 22.5 32t35.5 9h168q19 0 24.5 -11t-2.5 -26l-432 -762v-520q0 -39 -37 -39h-151q-41 0 -41 39v520l-422 762q-7 13 -1.5 25zM266 1559q0 52 24 80t89 28q67 0 90 -26.5 t23 -81.5q0 -53 -23.5 -83t-89.5 -30q-69 0 -91 29.5t-22 83.5zM647 1559q0 52 25 80t90 28q66 0 89 -26.5t23 -81.5q0 -54 -23 -83.5t-89 -29.5q-69 0 -92 29.5t-23 83.5z"/>
<glyph unicode="ά" horiz-adv-x="1114" d="M82 492q0 246 100.5 388t302.5 142q138 0 265 -78l4 2v21q0 21 7.5 29t31.5 8h139q23 0 31 -10t8 -31v-715q0 -58 11 -70.5t56 -17.5q23 -1 30 -7.5t7 -23.5v-86q0 -35 -47 -43q-55 -10 -96 -10q-77 0 -119 28t-55 97l-4 2q-179 -135 -338 -135q-78 0 -136 24t-95.5 66 t-60.5 107.5t-32.5 140.5t-9.5 172zM311 487q0 -128 18 -195.5t50 -89.5t92 -22q55 0 134 29.5t143 62.5v494q-129 53 -216 53q-112 0 -166.5 -77.5t-54.5 -254.5zM442 1184l164 317q13 26 45 12l121 -61q30 -16 8 -45l-207 -287q-18 -21 -41 -12l-79 37q-22 12 -11 39z"/>
<glyph unicode="έ" horiz-adv-x="927" d="M90 301q0 73 41 138t117 96v4q-69 24 -104 72.5t-35 111.5q0 69 26 123.5t66.5 87.5t95.5 54.5t108.5 29.5t110.5 8q82 0 172 -12t143 -37q20 -8 27.5 -19.5t3.5 -33.5l-14 -74q-3 -24 -15 -30t-45 -3q-200 19 -258 19q-184 0 -184 -117q0 -109 189 -109h86q22 0 30 -9 t8 -28v-88q0 -21 -8.5 -30t-29.5 -9h-91q-32 0 -56 -2t-53.5 -9.5t-48 -21t-31.5 -38.5t-13 -60q0 -81 50 -111t154 -30q116 0 281 21q26 3 37 -2.5t14 -28.5l15 -66q5 -26 -1.5 -38.5t-33.5 -24.5q-53 -27 -147 -39t-169 -12q-64 0 -121 8t-117 29.5t-102.5 56t-70 92 t-27.5 131.5zM414 1184l164 317q13 26 45 12l120 -61q31 -16 9 -45l-207 -287q-18 -21 -41 -12l-80 37q-21 12 -10 39z"/>
<glyph unicode="ή" horiz-adv-x="1081" d="M102 39v924q0 41 39 41h146q39 0 39 -41v-62q1 0 3 -1t3 -1q68 47 163.5 85t180.5 38q58 0 103.5 -11t77 -29.5t54 -48t35 -60t20 -73.5t9.5 -80t2 -87v-594q0 -20 -8.5 -29.5t-30.5 -9.5h-147q-39 0 -39 39l2 575q0 99 -32 150t-116 51q-93 0 -280 -92v-684 q0 -39 -39 -39h-146q-21 0 -30 9t-9 30zM401 1184l164 317q13 26 45 12l121 -61q30 -16 8 -45l-207 -287q-18 -21 -40 -12l-80 37q-22 12 -11 39z"/>
<glyph unicode="ί" horiz-adv-x="505" d="M139 39v926q0 21 9.5 30t31.5 9h146q36 0 36 -39v-926q0 -39 -36 -39h-146q-41 0 -41 39zM162 1184l164 317q13 26 45 12l121 -61q30 -16 8 -45l-207 -287q-18 -21 -41 -12l-80 37q-21 12 -10 39z"/>
<glyph unicode="ΰ" horiz-adv-x="1081" d="M109 375v590q0 39 38 39h146q22 0 30.5 -8.5t8.5 -30.5v-580q0 -48 7.5 -81.5t28 -64t62.5 -46t105 -15.5q213 0 213 207v580q0 39 38 39h148q21 0 30 -9t9 -30v-590q0 -174 -110.5 -281.5t-327.5 -107.5q-220 0 -323 102t-103 287zM166 1255q0 52 25 80.5t90 28.5 q66 0 89 -27t23 -82q0 -54 -23 -84t-89 -30q-69 0 -92 30t-23 84zM399 1184l164 317q13 26 45 12l121 -61q30 -16 8 -45l-207 -287q-18 -21 -41 -12l-79 37q-22 12 -11 39zM700 1255q0 51 25 80t88 29q67 0 91 -27t24 -82q0 -54 -24 -84t-91 -30t-90 30.5t-23 83.5z"/>
<glyph unicode="α" horiz-adv-x="1114" d="M82 492q0 246 100.5 388t302.5 142q138 0 265 -78l4 2v21q0 21 7.5 29t31.5 8h139q23 0 31 -10t8 -31v-715q0 -58 11 -70.5t56 -17.5q23 -1 30 -7.5t7 -23.5v-86q0 -35 -47 -43q-55 -10 -96 -10q-77 0 -119 28t-55 97l-4 2q-179 -135 -338 -135q-78 0 -136 24t-95.5 66 t-60.5 107.5t-32.5 140.5t-9.5 172zM311 487q0 -128 18 -195.5t50 -89.5t92 -22q55 0 134 29.5t143 62.5v494q-129 53 -216 53q-112 0 -166.5 -77.5t-54.5 -254.5z"/>
<glyph unicode="β" horiz-adv-x="1071" d="M96 -260v1268q0 212 116.5 329t297.5 117q188 0 293.5 -94.5t105.5 -267.5q0 -64 -35.5 -138.5t-99.5 -109.5q64 -19 107.5 -55.5t65 -86.5t30 -101t8.5 -116q0 -274 -104.5 -388.5t-345.5 -114.5q-108 4 -211 41h-5v-283q0 -20 -8 -29.5t-30 -9.5h-146q-21 0 -30 9 t-9 30zM322 211q117 -35 225 -35q112 0 158.5 66.5t46.5 234.5q0 131 -46 183.5t-145 52.5q-41 0 -104 -6q-33 -4 -33 24v103q0 31 31 38q52 11 88.5 25t70.5 39t51 66t17 98q0 74 -46 119t-130 45q-99 0 -141.5 -69.5t-42.5 -180.5v-803z"/>
<glyph unicode="γ" horiz-adv-x="1005" d="M2 967q-3 20 23 30q62 27 125 27q70 0 102 -34.5t59 -119.5l156 -473l45 -131h8q8 24 29.5 89t39.5 119t21 67q136 382 152 428q6 20 15.5 27.5t33.5 7.5h154q28 0 28 -19q0 -6 -4 -22q-90 -230 -366 -949v-352q0 -20 -8.5 -29.5t-30.5 -9.5h-148q-21 0 -30 9t-9 30v346 l-276 772q-1 2 -3.5 9t-3.5 9.5t-3.5 8.5t-4.5 8.5t-5 7t-7 6.5t-8.5 4.5t-10 3.5t-12.5 1h-6q-25 0 -29 5q-3 4 -5 13z"/>
<glyph unicode="δ" horiz-adv-x="1079" d="M90 504q0 55 11 111t35.5 114t70.5 108.5t108 82.5q-145 71 -145 229q0 149 103 229t280 80q180 4 301 -45q28 -11 37.5 -24t5.5 -37l-14 -70q-5 -22 -13.5 -29t-29.5 -4q-154 23 -283 23q-77 0 -119.5 -25.5t-42.5 -89.5q0 -36 34.5 -65.5t79.5 -46.5t114 -44.5 t112 -52.5q65 -36 108 -72.5t77 -88t49.5 -121t15.5 -162.5q0 -55 -3.5 -100.5t-15 -101t-31 -99t-54 -86t-81 -70.5t-115.5 -45.5t-155 -17.5q-84 0 -152 17.5t-113 45t-78.5 70.5t-51.5 85.5t-28.5 99t-13.5 101t-3 101.5zM322 489q0 -165 44.5 -238t165.5 -73 q129 0 177.5 74.5t48.5 236.5q5 136 -53 217.5t-195 114.5q-94 -44 -141 -122.5t-47 -209.5z"/>
<glyph unicode="ε" horiz-adv-x="927" d="M90 301q0 73 41 138t117 96v4q-69 24 -104 72.5t-35 111.5q0 69 26 123.5t66.5 87.5t95.5 54.5t108.5 29.5t110.5 8q82 0 172 -12t143 -37q20 -8 27.5 -19.5t3.5 -33.5l-14 -74q-3 -24 -15 -30t-45 -3q-200 19 -258 19q-184 0 -184 -117q0 -109 189 -109h86q22 0 30 -9 t8 -28v-88q0 -21 -8.5 -30t-29.5 -9h-91q-32 0 -56 -2t-53.5 -9.5t-48 -21t-31.5 -38.5t-13 -60q0 -81 50 -111t154 -30q116 0 281 21q26 3 37 -2.5t14 -28.5l15 -66q5 -26 -1.5 -38.5t-33.5 -24.5q-53 -27 -147 -39t-169 -12q-64 0 -121 8t-117 29.5t-102.5 56t-70 92 t-27.5 131.5z"/>
<glyph unicode="ζ" horiz-adv-x="991" d="M86 311q0 67 30.5 132t78.5 118t115 102.5t132.5 86.5t137.5 69h-428q-22 0 -30.5 9t-8.5 32v107q0 37 39 37h770q21 0 28.5 -7.5t7.5 -25.5v-101q0 -18 -0.5 -25.5t-6.5 -18t-19 -17.5q-27 -14 -95 -50t-104 -55.5t-98.5 -55.5t-98.5 -61t-81.5 -61t-69.5 -66t-41.5 -66 t-17.5 -70q0 -162 409 -162q14 0 43 1t45 1q34 0 47 -7t25 -32l31 -64q10 -26 7.5 -41t-20.5 -45q-71 -119 -125 -286q-10 -35 -25.5 -43.5t-41.5 2.5l-103 37q-21 7 -25.5 19.5t1.5 33.5q12 48 42 120t58 119q-92 1 -172 10t-162.5 32.5t-141 59t-95.5 95.5t-37 137z"/>
<glyph unicode="η" horiz-adv-x="1081" d="M102 39v924q0 41 39 41h146q39 0 39 -41v-62q1 0 3 -1t3 -1q68 47 163.5 85t180.5 38q58 0 103.5 -11t77 -29.5t54 -48t35 -60t20 -73.5t9.5 -80t2 -87v-594q0 -20 -8.5 -29.5t-30.5 -9.5h-147q-39 0 -39 39l2 575q0 99 -32 150t-116 51q-93 0 -280 -92v-684 q0 -39 -39 -39h-146q-21 0 -30 9t-9 30z"/>
<glyph unicode="θ" horiz-adv-x="1122" d="M88 739q0 71 3.5 133t16 137t32.5 135t56 119.5t83.5 99.5t118 64.5t157.5 24.5q101 0 179.5 -25t130.5 -74.5t86.5 -111t52.5 -146.5t25 -168t7 -188q0 -86 -3 -152t-14.5 -149t-31 -143.5t-56 -122t-86 -100.5t-123.5 -63.5t-167 -24.5q-71 0 -130.5 14t-104 37t-80 61 t-59.5 77.5t-41.5 95t-27.5 105.5t-15.5 117t-7 121.5t-1.5 126.5zM317 672q2 -259 55 -377.5t185 -118.5q139 0 193.5 112.5t54.5 383.5h-488zM322 844h481q-6 222 -61 321t-185 99q-117 0 -173 -104.5t-62 -315.5z"/>
<glyph unicode="ι" horiz-adv-x="505" d="M139 39v926q0 21 9.5 30t31.5 9h146q36 0 36 -39v-926q0 -39 -36 -39h-146q-41 0 -41 39z"/>
<glyph unicode="κ" horiz-adv-x="989" d="M115 39v924q0 41 39 41h145q39 0 39 -41v-328l6 -2l154 166l170 172q13 13 19.5 18.5t21 11t32.5 5.5h164q29 0 35 -14.5t-12 -33.5l-328 -333l369 -578q11 -19 3 -33t-30 -14h-162q-30 0 -44.5 9t-26.5 30l-258 420l-113 -119v-301q0 -39 -39 -39h-145q-21 0 -30 9 t-9 30z"/>
<glyph unicode="λ" horiz-adv-x="978" d="M7 12.5q-5 12.5 1 24.5l381 940q-9 29 -27.5 93.5t-29.5 96.5q-21 65 -40 88t-67 23q-7 0 -23.5 -1t-23.5 -1q-23 0 -26 20q0 1 -17 105v6q0 14 25 25q61 20 149 20q83 0 133.5 -39t83.5 -139l332 -1059q9 -32 20.5 -46.5t39.5 -14.5h20q22 0 25 -15l10 -100 q3 -22 -23 -33q-33 -14 -119 -14q-69 0 -104 25t-57 87q-41 115 -101 306l-86 295h-2l-94 -250l-156 -424q-6 -18 -13 -24.5t-21 -6.5h-168q-17 0 -22 12.5z"/>
<glyph unicode="μ" horiz-adv-x="1087" d="M104 -336v1299q0 41 39 41h150q39 0 39 -41v-609q0 -86 33 -127t114 -41q15 0 31 2t34 7t33.5 9t35.5 12t33 13t33.5 14t28.5 13t27 13t21 10v684q0 41 39 41h145q39 0 39 -41v-924q0 -21 -9 -30t-30 -9h-145q-22 0 -30.5 9.5t-8.5 29.5v61q-2 2 -2 4q-54 -42 -145 -77 t-173 -35q-64 0 -104 22v-4q-2 -55 -2 -346q0 -20 -8.5 -30.5t-32.5 -10.5h-146q-22 0 -30.5 10t-8.5 31z"/>
<glyph unicode="ν" horiz-adv-x="1021" d="M38.5 992q5.5 12 24.5 12h160q22 0 32 -7t17 -30l164 -473q70 -218 76 -234h4l76 240l168 471q6 19 15.5 26t31.5 7h156q38 0 22 -39l-346 -922q-9 -24 -22 -33.5t-37 -9.5h-134q-26 0 -37.5 9t-19.5 32l-348 922q-8 17 -2.5 29z"/>
<glyph unicode="ξ" horiz-adv-x="890" d="M70 401q0 56 10 109t31.5 106t63.5 95.5t99 66.5l2 8q-94 35 -141 107.5t-47 159.5q0 192 120 295.5t320 103.5q83 0 179.5 -12.5t150.5 -38.5q38 -13 31 -51l-15 -76q-4 -23 -14.5 -28.5t-44.5 -2.5q-232 17 -276 17q-105 0 -160 -56t-53 -151q0 -49 23 -84.5t61.5 -54 t80 -27t87.5 -8.5h174q22 0 30.5 -7.5t8.5 -27.5v-103q0 -36 -39 -36h-162q-287 0 -287 -302q0 -46 11 -82.5t28.5 -61t47 -42.5t59 -27.5t72.5 -15t79 -7t86 -1.5h82q35 0 48.5 -6.5t23.5 -30.5l30 -68q10 -19 8 -38t-18 -48q-69 -121 -127 -292q-12 -36 -25.5 -44.5 t-41.5 1.5l-101 32q-22 8 -28.5 19.5t0.5 46.5q13 49 42.5 120.5t57.5 114.5q-106 2 -186 13.5t-154.5 40t-122 75t-76 122t-28.5 177.5z"/>
<glyph unicode="ο" horiz-adv-x="1071" d="M90 518q0 506 438 506q115 0 199.5 -30.5t132 -77t76 -117t37 -135t8.5 -146.5q0 -59 -2.5 -104t-13 -103.5t-29 -101.5t-52.5 -87.5t-80.5 -73t-117 -46.5t-158.5 -18q-86 0 -154 18t-113 46.5t-78 73t-50.5 87.5t-27.5 102t-12.5 103.5t-2.5 103.5zM317 504 q0 -173 44 -248.5t167 -75.5q69 0 113.5 19t68.5 62t33 99.5t9 143.5t-8.5 143t-32.5 99t-68 62t-113 19q-124 0 -168.5 -76.5t-44.5 -246.5z"/>
<glyph unicode="π" horiz-adv-x="1089" d="M106 39v926q0 21 9 30t30 9h799q23 0 31 -8.5t8 -30.5v-926q0 -39 -41 -39h-145q-21 0 -30 9t-9 30l2 776h-430v-776q0 -39 -39 -39h-146q-21 0 -30 9t-9 30z"/>
<glyph unicode="ρ" horiz-adv-x="1081" d="M96 -336v846q0 256 115 385t330 129q123 0 211 -36t138.5 -106t73.5 -161.5t23 -212.5q0 -131 -18.5 -223.5t-64 -163t-127 -105t-202.5 -34.5q-122 0 -256 45v-363q0 -20 -7.5 -30.5t-30.5 -10.5h-146q-23 0 -31 9.5t-8 31.5zM319 209q119 -33 234 -33q74 0 116 27.5 t64.5 101.5t22.5 209q0 173 -55.5 241t-157.5 68q-51 0 -89.5 -13.5t-62.5 -39t-39 -53.5t-22 -68.5t-9 -71t-2 -71.5v-297z"/>
<glyph unicode="ς" horiz-adv-x="940" d="M86 96l10 64q4 25 17.5 31.5t40.5 1.5q169 -23 290 -23q98 0 141.5 27.5t43.5 89.5q0 69 -32.5 94t-131.5 39q-70 10 -117.5 20.5t-101 32t-85 51t-52.5 78t-21 113.5q0 149 104.5 229t280.5 80q74 0 163 -11t148 -34q51 -20 43 -61l-14 -72q-4 -23 -20 -28.5t-54 -0.5 q-189 21 -262 21q-94 0 -128 -26.5t-34 -88.5q0 -56 35 -75t139 -36q50 -7 83 -13.5t75.5 -18.5t70 -26t57 -37t46.5 -52.5t28 -71t11 -92.5q0 -87 -34.5 -150.5t-94.5 -98.5t-130.5 -51.5t-154.5 -16.5q-211 0 -317 45q-29 12 -38.5 26.5t-4.5 40.5z"/>
<glyph unicode="σ" horiz-adv-x="1101" d="M88 510q0 46 3.5 87.5t15.5 93t31 94t53.5 84.5t80 71t113 47.5t150.5 18.5h495q22 0 30.5 -9.5t8.5 -29.5v-111q0 -21 -8.5 -30t-30.5 -9h-147l-4 -6q57 -49 76.5 -127.5t19.5 -183.5q0 -54 -3 -97t-13.5 -99t-29 -98t-52.5 -86t-80.5 -72t-116.5 -46t-158 -18 q-86 0 -154 18t-113 45t-77.5 72t-49.5 86.5t-26.5 100.5t-11.5 101.5t-2 102.5zM313 496q0 -172 44.5 -244t166.5 -72q130 0 177 71t47 245q0 87 -9 143t-33.5 97t-68.5 59t-113 18q-121 0 -166 -74t-45 -243z"/>
<glyph unicode="τ" horiz-adv-x="790" d="M29 856v107q0 41 39 41h616q23 0 31 -9.5t8 -29.5v-109q0 -22 -7.5 -30.5t-31.5 -8.5h-225v-498q0 -72 21.5 -99.5t76.5 -30t150 5.5q28 2 37 -3t12 -26l14 -86q3 -36 -27 -49q-93 -45 -251 -45q-139 0 -196.5 63.5t-57.5 186.5v581h-170q-21 0 -30 9t-9 30z"/>
<glyph unicode="υ" horiz-adv-x="1081" d="M109 375v590q0 39 38 39h146q22 0 30.5 -8.5t8.5 -30.5v-580q0 -48 7.5 -81.5t28 -64t62.5 -46t105 -15.5q213 0 213 207v580q0 39 38 39h148q21 0 30 -9t9 -30v-590q0 -174 -110.5 -281.5t-327.5 -107.5q-220 0 -323 102t-103 287z"/>
<glyph unicode="φ" horiz-adv-x="1404" d="M90 510q0 77 15 146t47.5 133t89.5 115.5t135 84.5q36 18 55 -16l55 -96q13 -24 -14 -41q-81 -48 -118.5 -140.5t-37.5 -201.5q0 -66 15 -121.5t46 -101.5t85 -73t127 -28v774q0 78 84 78h129q120 0 211.5 -30.5t146.5 -79t90 -118.5t47.5 -140t12.5 -152 q0 -232 -124.5 -370t-375.5 -150v-301q0 -41 -39 -41h-143q-41 0 -41 41v299q-122 5 -214 39t-145 83.5t-85.5 121t-43 138.5t-10.5 148zM811 174q274 9 274 315q0 332 -274 334v-649z"/>
<glyph unicode="χ" horiz-adv-x="962" d="M20.5 14q-5.5 14 4.5 29l325 469l-307 451q-10 13 -4 27t24 14h175q14 0 22.5 -3.5t12.5 -8t14 -19.5l192 -297l191 297q10 17 19 24t26 7h182q23 0 28 -14.5t-5 -26.5l-314 -451l326 -469q9 -13 2.5 -28t-25.5 -15h-174q-20 0 -31 6.5t-22 24.5l-205 319l-205 -319 q-19 -31 -55 -31h-172q-19 0 -24.5 14z"/>
<glyph unicode="ψ" horiz-adv-x="1318" d="M104 377v586q0 41 41 41h148q37 0 37 -41v-582q0 -91 57 -151.5t158 -59.5v887q0 21 9 30t30 9h145q21 0 29 -9.5t8 -29.5v-887q219 13 219 211v582q0 41 41 41h145q37 0 37 -41v-586q0 -176 -113.5 -280.5t-328.5 -116.5v-299q0 -39 -37 -39h-145q-21 0 -30 9t-9 30v301 q-205 5 -323 109t-118 286z"/>
<glyph unicode="ω" horiz-adv-x="1566" d="M90 494q0 67 6.5 123t26 118t51.5 110.5t87.5 93t129.5 73.5q48 18 64 -13l47 -84q11 -21 6 -32t-29 -27q-97 -65 -128.5 -145t-31.5 -219q0 -316 181 -316q54 0 91 18t54.5 50.5t24 66t6.5 76.5v266q0 22 9 30.5t32 8.5h133q21 0 29 -9.5t8 -29.5v-266q0 -88 44 -149.5 t134 -61.5q93 0 137.5 74.5t44.5 241.5q0 143 -32.5 219t-129.5 145q-24 13 -28 27t8 32l43 76q19 39 66 21q74 -27 129 -70.5t87.5 -92.5t52.5 -111.5t27 -120t7 -123.5q0 -510 -402 -510q-99 0 -176 39t-115 102h-6q-39 -63 -114 -102t-175 -39q-399 0 -399 510z"/>
<glyph unicode="ϊ" horiz-adv-x="505" d="M-57 1255q0 52 24.5 80.5t89.5 28.5q66 0 89.5 -27t23.5 -82q0 -54 -23.5 -84t-89.5 -30q-69 0 -91.5 30t-22.5 84zM139 39v926q0 21 9.5 30t31.5 9h146q36 0 36 -39v-926q0 -39 -36 -39h-146q-41 0 -41 39zM342 1255q0 51 25 80t88 29q67 0 90.5 -27t23.5 -82 q0 -54 -23.5 -84t-90.5 -30t-90 30.5t-23 83.5z"/>
<glyph unicode="ϋ" horiz-adv-x="1081" d="M109 375v590q0 39 38 39h146q22 0 30.5 -8.5t8.5 -30.5v-580q0 -48 7.5 -81.5t28 -64t62.5 -46t105 -15.5q213 0 213 207v580q0 39 38 39h148q21 0 30 -9t9 -30v-590q0 -174 -110.5 -281.5t-327.5 -107.5q-220 0 -323 102t-103 287zM229 1255q0 52 25 80.5t90 28.5 q66 0 89.5 -27t23.5 -82q0 -54 -23.5 -84t-89.5 -30q-69 0 -92 30t-23 84zM629 1255q0 51 24.5 80t87.5 29q67 0 91 -27t24 -82q0 -54 -24 -84t-91 -30t-89.5 30.5t-22.5 83.5z"/>
<glyph unicode="ό" horiz-adv-x="1071" d="M90 518q0 506 438 506q115 0 199.5 -30.5t132 -77t76 -117t37 -135t8.5 -146.5q0 -59 -2.5 -104t-13 -103.5t-29 -101.5t-52.5 -87.5t-80.5 -73t-117 -46.5t-158.5 -18q-86 0 -154 18t-113 46.5t-78 73t-50.5 87.5t-27.5 102t-12.5 103.5t-2.5 103.5zM317 504 q0 -173 44 -248.5t167 -75.5q69 0 113.5 19t68.5 62t33 99.5t9 143.5t-8.5 143t-32.5 99t-68 62t-113 19q-124 0 -168.5 -76.5t-44.5 -246.5zM446 1184l164 317q13 26 45 12l121 -61q30 -16 8 -45l-206 -287q-18 -21 -41 -12l-80 37q-22 12 -11 39z"/>
<glyph unicode="ύ" horiz-adv-x="1081" d="M109 375v590q0 39 38 39h146q22 0 30.5 -8.5t8.5 -30.5v-580q0 -48 7.5 -81.5t28 -64t62.5 -46t105 -15.5q213 0 213 207v580q0 39 38 39h148q21 0 30 -9t9 -30v-590q0 -174 -110.5 -281.5t-327.5 -107.5q-220 0 -323 102t-103 287zM436 1184l164 317q13 26 45 12 l121 -61q30 -16 8 -45l-207 -287q-18 -21 -41 -12l-80 37q-21 12 -10 39z"/>
<glyph unicode="ώ" horiz-adv-x="1566" d="M90 494q0 67 6.5 123t26 118t51.5 110.5t87.5 93t129.5 73.5q48 18 64 -13l47 -84q11 -21 6 -32t-29 -27q-97 -65 -128.5 -145t-31.5 -219q0 -316 181 -316q54 0 91 18t54.5 50.5t24 66t6.5 76.5v266q0 22 9 30.5t32 8.5h133q21 0 29 -9.5t8 -29.5v-266q0 -88 44 -149.5 t134 -61.5q93 0 137.5 74.5t44.5 241.5q0 143 -32.5 219t-129.5 145q-24 13 -28 27t8 32l43 76q19 39 66 21q74 -27 129 -70.5t87.5 -92.5t52.5 -111.5t27 -120t7 -123.5q0 -510 -402 -510q-99 0 -176 39t-115 102h-6q-39 -63 -114 -102t-175 -39q-399 0 -399 510zM700 1184 l164 317q13 26 45 12l121 -61q30 -16 8 -45l-207 -287q-18 -21 -40 -12l-80 37q-22 12 -11 39z"/>
<glyph unicode="Ѐ" horiz-adv-x="1081" d="M145 37v1282q0 41 41 41h754q39 0 39 -39v-127q0 -19 -9 -28t-32 -9h-559v-352h495q41 0 41 -37v-127q0 -19 -9 -28t-32 -9h-495v-403h573q37 0 37 -39v-125q0 -20 -8.5 -28.5t-30.5 -8.5h-764q-41 0 -41 37zM274 1645l84 106q23 27 45 8l281 -221q26 -17 8 -35l-57 -69 q-16 -18 -41 -7l-307 175q-36 20 -13 43z"/>
<glyph unicode="Ё" horiz-adv-x="1081" d="M145 37v1282q0 41 41 41h754q39 0 39 -39v-127q0 -19 -9 -28t-32 -9h-559v-352h495q41 0 41 -37v-127q0 -19 -9 -28t-32 -9h-495v-403h573q37 0 37 -39v-125q0 -20 -8.5 -28.5t-30.5 -8.5h-764q-41 0 -41 37zM252 1559q0 52 24 80t89 28q67 0 89.5 -26.5t22.5 -81.5 q0 -54 -23 -83.5t-89 -29.5q-69 0 -91 29.5t-22 83.5zM633 1559q0 52 25 80t90 28q66 0 89 -26.5t23 -81.5q0 -54 -23 -83.5t-89 -29.5q-69 0 -92 29.5t-23 83.5z"/>
<glyph unicode="Ђ" horiz-adv-x="1495" d="M29 1194v127q0 19 9 28t32 9h1042q39 0 39 -37v-127q0 -39 -41 -39h-485v-338q196 94 346 94q210 0 318 -125.5t108 -336.5q0 -235 -101.5 -418.5t-308.5 -290.5q-24 -13 -41 -10.5t-31 26.5l-45 72q-12 20 -9.5 29.5t22.5 23.5q156 103 221 241.5t65 332.5 q0 130 -59 197t-170 67q-114 0 -315 -98v-582q0 -20 -8 -29.5t-29 -9.5h-154q-41 0 -41 39v1116h-323q-41 0 -41 39z"/>
<glyph unicode="Ѓ" horiz-adv-x="987" d="M147 39v1282q0 39 41 39h742q39 0 39 -39v-127q0 -19 -9 -28t-32 -9h-547v-1118q0 -39 -37 -39h-156q-41 0 -41 39zM367 1516q-14 20 10 36l293 205q23 16 45 -10l78 -113q9 -14 4.5 -25t-19.5 -18l-317 -155q-25 -11 -41 8z"/>
<glyph unicode="Є" horiz-adv-x="1134" d="M123 688q0 113 13 205.5t50 184.5t96.5 155t160 102t233.5 39q90 0 199.5 -15t177.5 -44q25 -11 32.5 -25.5t1.5 -40.5l-16 -80q-6 -40 -53 -32q-212 26 -334 26q-82 0 -141 -28t-93 -80.5t-51.5 -114.5t-23.5 -143h481q39 0 39 -37v-121q0 -37 -39 -37h-483 q3 -75 12.5 -132.5t31 -111.5t55.5 -88.5t88.5 -55.5t127.5 -21q135 0 332 26q24 3 35.5 -4t17.5 -27l17 -79q6 -25 -2.5 -40.5t-34.5 -27.5q-73 -29 -180.5 -44t-196.5 -15q-135 0 -236 40.5t-160.5 105.5t-96 160.5t-48.5 189.5t-12 210z"/>
<glyph unicode="Ѕ" horiz-adv-x="1126" d="M97.5 79.5q-0.5 10.5 2.5 24.5l19 84q6 25 16 29.5t39 1.5q256 -29 363 -29q130 0 196 46.5t66 134.5q0 56 -11.5 91.5t-42 60t-74 38.5t-116.5 27q-61 12 -102 21.5t-93.5 26t-87 35t-70.5 47.5t-56.5 64t-34 83.5t-13.5 107.5q0 192 123 295.5t342 103.5q243 0 377 -55 q31 -12 38 -26t3 -38l-20 -84q-6 -23 -17 -28.5t-43 -3.5q-199 26 -328 26q-126 0 -180.5 -46t-54.5 -136q0 -32 5 -55.5t19.5 -41.5t30 -29t48 -21.5t61 -16.5t80.5 -16q62 -12 100 -21t91.5 -26.5t86.5 -36t69.5 -49.5t57 -68.5t34 -90.5t13.5 -118q0 -112 -40 -193.5 t-111 -127.5t-157 -67t-189 -21q-92 0 -208 15t-188 44q-23 9 -33 18.5t-10.5 20z"/>
<glyph unicode="І" horiz-adv-x="565" d="M164 39v1280q0 41 39 41h155q39 0 39 -41v-1280q0 -39 -39 -39h-155q-21 0 -30 9t-9 30z"/>
<glyph unicode="Ї" horiz-adv-x="565" d="M-20 1559q0 52 23.5 80t88.5 28q67 0 90 -26.5t23 -81.5q0 -53 -23.5 -83t-89.5 -30q-69 0 -90.5 29.5t-21.5 83.5zM164 39v1280q0 41 39 41h155q39 0 39 -41v-1280q0 -39 -39 -39h-155q-21 0 -30 9t-9 30zM360 1559q0 52 25 80t90 28q66 0 89.5 -26.5t23.5 -81.5 q0 -53 -23.5 -83t-89.5 -30q-69 0 -92 29.5t-23 83.5z"/>
<glyph unicode="Ј" horiz-adv-x="905" d="M18 90l21 92q6 21 14 26t31 1q126 -16 209 -16q123 0 167 44.5t44 141.5v940q0 41 41 41h153q39 0 39 -41v-975q0 -362 -411 -362q-151 0 -260 43q-36 13 -46 26.5t-2 38.5z"/>
<glyph unicode="Љ" horiz-adv-x="1826" d="M16 115q0 21 7 28.5t28 10.5q38 8 62.5 15.5t48 23.5t37 32t27 50.5t20.5 69t14.5 97.5t12 126t10.5 163l36 588q0 41 41 41l672 -2h2q39 0 39 -39v-500h275q102 0 180.5 -24.5t126 -63t78 -93t42 -108t11.5 -114.5q0 -131 -62 -227.5t-162 -142.5t-223 -46h-458 q-23 0 -32 9t-9 28v1118h-316l-24 -426q-7 -117 -11.5 -175t-14.5 -147t-22.5 -131.5t-33.5 -101.5t-50 -86t-70 -56t-95 -40t-123 -12q-38 0 -49 10t-11 35zM1073 197h248q98 0 165.5 58.5t67.5 158.5q0 211 -219 211h-262v-428z"/>
<glyph unicode="Њ" horiz-adv-x="1792" d="M143 39v1280q0 41 41 41h154q37 0 37 -41v-504h416v504q0 21 9.5 30t30.5 9h154q39 0 39 -39v-504h268q87 0 158 -17t118.5 -48t82 -70t53 -87t27 -94t8.5 -96q0 -131 -62.5 -224t-162 -136t-224.5 -43h-459q-23 0 -31.5 9t-8.5 28v575h-416v-573q0 -39 -37 -39h-154 q-41 0 -41 39zM1024 197h250q107 0 169 53.5t62 155.5q0 103 -51 157.5t-168 54.5h-262v-421z"/>
<glyph unicode="Ћ" horiz-adv-x="1468" d="M31 1194v127q0 20 8.5 29.5t30.5 9.5h1036q39 0 39 -39v-127q0 -19 -9 -28t-32 -9h-479v-315q76 39 178.5 72.5t191.5 33.5q92 0 159.5 -20.5t107.5 -54t64 -86t32 -107t8 -125.5v-516q0 -39 -39 -39h-149q-39 0 -39 39v524q0 104 -45.5 144.5t-137.5 40.5 q-98 0 -331 -103v-606q0 -39 -37 -39h-154q-21 0 -30 9t-9 30v1118h-323q-24 0 -32.5 8.5t-8.5 28.5z"/>
<glyph unicode="Ќ" horiz-adv-x="1196" d="M139 39v1280q0 41 41 41h154q37 0 37 -41v-522h176q34 0 61.5 5.5t59 22.5t56.5 53.5t42 92.5l106 336q9 29 22.5 39t45.5 10h129q31 0 38.5 -13t-1.5 -38l-107 -347q-65 -210 -186 -256q73 -25 117 -89.5t76 -172.5l118 -389q9 -25 1.5 -38t-38.5 -13h-141 q-32 0 -45 9.5t-22 39.5l-107 365q-34 107 -88 144.5t-133 37.5h-180v-557q0 -39 -37 -39h-154q-41 0 -41 39zM440 1516q-13 20 11 36l292 205q23 16 45 -10l78 -113q10 -14 5 -25.5t-19 -17.5l-317 -155q-25 -11 -41 8z"/>
<glyph unicode="Ѝ" horiz-adv-x="1335" d="M141 37v1280q0 22 9 31.5t30 9.5h150q41 0 41 -41v-914h4l92 146l481 766q26 43 70 43h135q19 0 28 -11t9 -26v-1282q0 -39 -39 -39h-152q-38 0 -38 39v928h-5l-581 -924q-25 -43 -74 -43h-121q-39 0 -39 37zM379 1645l84 106q23 27 45 8l280 -221q26 -18 9 -35l-58 -69 q-16 -18 -41 -7l-307 175q-35 20 -12 43z"/>
<glyph unicode="Ў" horiz-adv-x="1173" d="M52 1346q6 12 22 12h174q25 0 35.5 -7t21.5 -28l144 -373l149 -397h6l156 412l133 354q14 23 25 32t34 9h158q18 0 23 -11t-3 -26l-405 -1012q-33 -74 -55 -118.5t-53.5 -91.5t-63.5 -71.5t-77 -41t-101 -17.5q-73 0 -150 17q-30 6 -39.5 19t-5.5 40l10 82q1 21 12.5 28 t39.5 5q76 -4 114 2.5t59.5 26t43.5 65.5l26 55l-432 1010q-7 13 -1 25zM260 1663l55 45q21 10 29.5 7t24.5 -19q66 -79 116 -111.5t121 -32.5q65 0 111 31.5t117 112.5q25 28 51 10l55 -35q6 -4 9.5 -9.5t4.5 -10.5t-1 -13t-4 -12.5t-6 -14t-5 -12.5q-54 -105 -142.5 -161 t-191.5 -56q-106 0 -199.5 54.5t-140.5 158.5q-26 51 -4 68z"/>
<glyph unicode="Џ" horiz-adv-x="1267" d="M145 41v1278q0 41 39 41h154q37 0 37 -41v-1116h518v1116q0 41 39 41h153q39 0 39 -41v-1278q0 -22 -9 -31.5t-30 -9.5h-331l-13 -268q-3 -33 -12 -43.5t-31 -10.5h-123q-24 0 -33 8t-10 38l-12 276h-336q-39 0 -39 41z"/>
<glyph unicode="А" horiz-adv-x="1185" d="M25 9q-5 9 2 32l413 1274q8 23 20 33t38 10h178q27 0 37.5 -10t17.5 -33l422 -1278q10 -37 -20 -37h-181q-23 0 -33 9.5t-18 33.5l-86 295h-459l-92 -295q-7 -24 -20 -33.5t-35 -9.5h-160q-19 0 -24 9zM414 530h346l-86 291l-84 295h-8l-82 -291z"/>
<glyph unicode="Б" horiz-adv-x="1144" d="M143 37v1282q0 36 33 39h758q39 0 39 -39v-125q0 -39 -41 -39h-555v-336h272q103 0 182.5 -25.5t127 -66t78 -97t42 -111.5t11.5 -116q0 -131 -62 -224t-161 -136t-224 -43h-459q-23 0 -32 9t-9 28zM375 197h250q107 0 169 53.5t62 155.5q0 219 -219 219h-262v-428z"/>
<glyph unicode="В" horiz-adv-x="1198" d="M143 39v1280q0 39 41 39h469q200 0 306 -97t106 -264q0 -33 -7.5 -68.5t-24.5 -76t-51 -77t-81 -58.5l2 -4q58 -19 100 -58.5t62.5 -88t29.5 -92.5t9 -87q0 -175 -115 -281t-280 -106h-521q-25 0 -35 9.5t-10 29.5zM375 201h276q211 0 211 200q0 88 -53.5 146.5 t-157.5 58.5h-276v-405zM375 803h266q78 0 130 50.5t52 125.5q0 82 -51 131t-154 49h-243v-356z"/>
<glyph unicode="Г" horiz-adv-x="987" d="M147 39v1282q0 39 41 39h742q39 0 39 -39v-127q0 -19 -9 -28t-32 -9h-547v-1118q0 -39 -37 -39h-156q-41 0 -41 39z"/>
<glyph unicode="Д" horiz-adv-x="1347" d="M23 135q-2 27 6.5 39.5t33.5 18.5l60 12q66 61 98 138t49 214q24 200 68 746q2 29 15 42t46 13h752q39 0 39 -41v-1116l78 -8q35 -6 35 -54l-21 -397q-1 -34 -8.5 -44.5t-28.5 -10.5h-123q-22 0 -30 9.5t-9 41.5l-12 262h-815q-4 -82 -16 -262q-1 -31 -11.5 -41 t-35.5 -10h-115q-23 0 -30.5 8.5t-10.5 42.5zM389 203h569v956h-411l-47 -565q-12 -156 -36 -243.5t-75 -147.5z"/>
<glyph unicode="Е" horiz-adv-x="1081" d="M145 37v1282q0 41 41 41h754q39 0 39 -39v-127q0 -19 -9 -28t-32 -9h-559v-352h495q41 0 41 -37v-127q0 -19 -9 -28t-32 -9h-495v-403h573q37 0 37 -39v-125q0 -20 -8.5 -28.5t-30.5 -8.5h-764q-41 0 -41 37z"/>
<glyph unicode="Ж" horiz-adv-x="1808" d="M68.5 13q-7.5 13 1.5 38l118 389q34 110 77.5 174t117.5 88q-121 45 -186 256l-109 347q-9 25 -1.5 38t38.5 13h131q32 0 45.5 -10t22.5 -39l106 -336q14 -45 34.5 -78t41 -51t47 -28.5t48 -13.5t48.5 -3h139v522q0 41 41 41h152q37 0 37 -41v-522h139q34 0 61.5 5.5 t59 22.5t57.5 53.5t43 92.5l105 336q11 30 24 39.5t43 9.5h131q31 0 38.5 -13t-1.5 -38l-106 -347q-65 -210 -187 -256q73 -25 117 -89.5t76 -172.5l119 -389q9 -25 1.5 -38t-38.5 -13h-144q-30 0 -43 9.5t-24 39.5l-107 365q-34 108 -87.5 145t-133.5 37h-143v-557 q0 -39 -37 -39h-152q-41 0 -41 39v557h-141q-80 0 -134.5 -37.5t-86.5 -144.5l-107 -365q-11 -30 -24 -39.5t-45 -9.5h-144q-30 0 -37.5 13z"/>
<glyph unicode="З" horiz-adv-x="1067" d="M20 104l17 82q5 23 13.5 30t33.5 3q235 -35 362 -35q149 0 225.5 57.5t76.5 166.5q0 119 -62 166t-188 47h-101q-27 0 -35 8t-8 35v98q0 27 8.5 38t34.5 11h99q100 0 161.5 41.5t61.5 136.5q0 40 -9.5 71t-28 51t-40.5 34t-51.5 21t-56.5 9.5t-60 2.5q-141 0 -305 -31 q-24 -6 -36.5 -2t-16.5 26l-19 91q-5 25 2 37.5t37 23.5q79 30 185 44.5t188 14.5q233 0 341.5 -93t108.5 -273q0 -96 -53.5 -176.5t-136.5 -114.5v-6q98 -26 158.5 -105t60.5 -202q0 -207 -143.5 -318.5t-386.5 -111.5q-79 0 -203 15t-193 42q-30 11 -38 25.5t-3 39.5z"/>
<glyph unicode="И" horiz-adv-x="1335" d="M141 37v1280q0 22 9 31.5t30 9.5h150q41 0 41 -41v-914h4l92 146l481 766q26 43 70 43h135q19 0 28 -11t9 -26v-1282q0 -39 -39 -39h-152q-38 0 -38 39v928h-5l-581 -924q-25 -43 -74 -43h-121q-39 0 -39 37z"/>
<glyph unicode="Й" horiz-adv-x="1335" d="M141 37v1280q0 22 9 31.5t30 9.5h150q41 0 41 -41v-914h4l92 146l481 766q26 43 70 43h135q19 0 28 -11t9 -26v-1282q0 -39 -39 -39h-152q-38 0 -38 39v928h-5l-581 -924q-25 -43 -74 -43h-121q-39 0 -39 37zM307.5 1646q0.5 3 1.5 7t3.5 7.5t6.5 6.5l56 45q21 10 29 7 t24 -19q66 -79 116.5 -111.5t121.5 -32.5q65 0 110.5 31.5t116.5 112.5q25 28 51 10l55 -35q8 -5 11.5 -10.5t2 -15t-2.5 -14t-6.5 -17t-6.5 -14.5q-55 -106 -142.5 -162t-190.5 -56q-106 0 -199.5 54.5t-140.5 158.5l-4 7q-3 6 -3.5 7.5t-3 7.5t-3 8.5t-2 8t-1 8.5z"/>
<glyph unicode="К" horiz-adv-x="1196" d="M139 39v1280q0 41 41 41h154q37 0 37 -41v-522h176q34 0 61.5 5.5t59 22.5t56.5 53.5t42 92.5l106 336q9 29 22.5 39t45.5 10h129q31 0 38.5 -13t-1.5 -38l-107 -347q-65 -210 -186 -256q73 -25 117 -89.5t76 -172.5l118 -389q9 -25 1.5 -38t-38.5 -13h-141 q-32 0 -45 9.5t-22 39.5l-107 365q-34 107 -88 144.5t-133 37.5h-180v-557q0 -39 -37 -39h-154q-41 0 -41 39z"/>
<glyph unicode="Л" horiz-adv-x="1241" d="M16 115q0 21 6 28t29 11q52 11 83.5 25t57 37.5t39.5 65t23.5 98t15.5 146.5l49 791q0 41 41 41h703q37 0 37 -41v-1278q0 -20 -8 -29.5t-29 -9.5h-154q-41 0 -41 39v1118h-344l-24 -469q-4 -83 -8.5 -142t-11.5 -123t-15.5 -108t-22 -90t-30 -76t-39.5 -60t-51.5 -47.5 t-64.5 -31.5t-80 -20.5t-97 -7.5q-38 0 -49 8t-13 35z"/>
<glyph unicode="М" horiz-adv-x="1550" d="M145 39v1284q0 37 37 37h127q30 0 42.5 -8t23.5 -31l278 -573l121 -261h6l125 267l279 565q12 22 25 31.5t42 9.5h119q35 0 35 -37v-1284q0 -39 -37 -39h-149q-23 0 -32 9t-9 30v821h-7l-71 -158l-226 -458q-19 -39 -59 -39h-78q-43 0 -61 35l-234 477l-67 143h-4v-821 q0 -39 -37 -39h-150q-39 0 -39 39z"/>
<glyph unicode="Н" horiz-adv-x="1265" d="M143 39v1280q0 41 41 41h154q37 0 37 -41v-504h516v504q0 41 41 41h153q37 0 37 -41v-1280q0 -39 -37 -39h-153q-41 0 -41 39v573h-516v-573q0 -39 -37 -39h-154q-41 0 -41 39z"/>
<glyph unicode="О" horiz-adv-x="1351" d="M123 698q0 61 4.5 116.5t18.5 126t37.5 129t66 117t98.5 99t139 65.5t185 25t184 -21t139.5 -55.5t100 -87.5t67.5 -109t40.5 -127.5t20.5 -136t5 -141.5t-4 -140t-18 -140t-38 -136t-66 -117.5t-99.5 -97t-142.5 -62t-191 -23.5q-82 0 -151 14.5t-120.5 39t-93 62 t-70 78t-49.5 93.5t-33 102t-19 109t-9 109.5t-2 108.5zM365 678q0 -97 8 -170t29 -136t55.5 -103t88 -62.5t126.5 -22.5q179 0 250 121t71 373q0 128 -15 217t-51.5 154t-99 96t-155.5 31q-86 0 -146 -33t-95 -99t-50.5 -155t-15.5 -211z"/>
<glyph unicode="П" horiz-adv-x="1267" d="M145 39v1280q0 41 39 41h903q37 0 37 -41v-1280q0 -39 -37 -39h-153q-41 0 -41 39v1118h-518v-1118q0 -39 -37 -39h-154q-21 0 -30 9t-9 30z"/>
<glyph unicode="Р" horiz-adv-x="1101" d="M143 39v1282q0 39 41 39h426q127 0 225 -44.5t157 -138t59 -225.5q0 -61 -12 -117t-43 -113t-79 -99t-127 -68.5t-180 -26.5h-235v-489q0 -39 -37 -39h-154q-41 0 -41 39zM375 723h217q116 0 169.5 61t53.5 162q0 106 -61.5 159.5t-169.5 53.5h-209v-436z"/>
<glyph unicode="С" horiz-adv-x="1150" d="M127 668q0 80 6 149.5t22 143t42.5 132.5t69 113t99.5 90t136.5 57t177.5 21q91 0 196 -14t179 -45q25 -11 34 -25.5t5 -38.5l-19 -84q-5 -20 -15.5 -26.5t-37.5 -3.5q-217 26 -330 26q-81 0 -140 -26.5t-93 -68.5t-54 -109t-26 -132.5t-6 -154.5q0 -87 7.5 -153.5 t28 -130t55 -104.5t92.5 -66t136 -25q124 0 330 26q28 3 38.5 -4t16.5 -29l17 -77q6 -25 -2 -40.5t-33 -25.5q-69 -30 -180 -45.5t-199 -15.5q-133 0 -233 39t-159.5 101.5t-97 154.5t-50.5 185t-13 206z"/>
<glyph unicode="Т" horiz-adv-x="1019" d="M31 1194v127q0 20 8.5 29.5t30.5 9.5h882q39 0 39 -39v-127q0 -19 -9 -28t-32 -9h-325v-1118q0 -39 -37 -39h-154q-21 0 -30 9t-9 30v1118h-323q-24 0 -32.5 8.5t-8.5 28.5z"/>
<glyph unicode="У" horiz-adv-x="1173" d="M52 1346q6 12 22 12h174q25 0 35.5 -7t21.5 -28l144 -373l149 -397h6l156 412l133 354q14 23 25 32t34 9h158q18 0 23 -11t-3 -26l-405 -1012q-33 -74 -55 -118.5t-53.5 -91.5t-63.5 -71.5t-77 -41t-101 -17.5q-73 0 -150 17q-30 6 -39.5 19t-5.5 40l10 82q1 21 12.5 28 t39.5 5q76 -4 114 2.5t59.5 26t43.5 65.5l26 55l-432 1010q-7 13 -1 25z"/>
<glyph unicode="Ф" horiz-adv-x="1593" d="M119 698q0 47 6.5 95t24 104t44.5 106t71.5 99t102 86t138.5 63t178 33v35q0 41 41 41h154q39 0 39 -41v-35q97 -7 177.5 -31t137 -58.5t100 -82t69.5 -96.5t42.5 -106t22.5 -107.5t6 -104.5q0 -86 -15 -163.5t-54 -155.5t-100 -136t-160 -99t-226 -52v-53q0 -39 -39 -39 h-154q-39 0 -39 39v53q-137 7 -241.5 49.5t-165 102t-98 141t-50 156t-12.5 157.5zM356 688q0 -179 77.5 -280t252.5 -121v805q-116 -11 -191.5 -68t-107 -141t-31.5 -195zM918 289q321 25 321 397q0 79 -15.5 144.5t-50 123t-99.5 93.5t-156 43v-801z"/>
<glyph unicode="Х" horiz-adv-x="1128" d="M34.5 13q-4.5 13 6.5 30l393 653l-366 619q-10 17 -4.5 31t24.5 14h178q24 0 33.5 -7t19.5 -28l132 -238l110 -198l113 207l127 227q9 20 20.5 27.5t34.5 7.5h176q24 1 29.5 -13t-4.5 -28l-371 -621l395 -657q9 -12 4.5 -25.5t-24.5 -13.5h-178q-22 0 -34 7.5t-24 27.5 l-145 256l-119 217l-115 -209l-149 -262q-11 -21 -22.5 -29t-36.5 -8h-179q-20 0 -24.5 13z"/>
<glyph unicode="Ц" horiz-adv-x="1294" d="M145 41v1278q0 41 39 41h154q37 0 37 -41v-1116h518v1116q0 41 39 41h153q39 0 39 -41v-1110l99 -10q37 -6 37 -54l-23 -403q-3 -35 -10 -45t-27 -10h-123q-22 0 -29 9.5t-8 41.5l-14 262h-842q-39 0 -39 41z"/>
<glyph unicode="Ч" horiz-adv-x="1206" d="M82 905v414q0 41 39 41h153q21 0 30 -9.5t9 -31.5v-381q0 -48 9 -84.5t31.5 -68t66 -48t106.5 -16.5q161 0 303 43v557q0 39 39 39h154q23 0 32 -9t9 -30q-1 -102 -1 -315.5v-404.5t0.5 -371t0.5 -191q0 -21 -9 -30t-32 -9h-154q-39 0 -39 39v534q-69 -26 -170.5 -41.5 t-175.5 -15.5q-401 0 -401 389z"/>
<glyph unicode="Ш" horiz-adv-x="1746" d="M145 43v1278q0 20 8.5 29.5t30.5 9.5h154q37 0 37 -39v-1116h383v1114q0 41 39 41h155q39 0 39 -41v-1114h381v1116q0 20 8.5 29.5t30.5 9.5h154q37 0 37 -39v-1278q0 -43 -37 -43h-1381q-22 0 -30.5 10.5t-8.5 32.5z"/>
<glyph unicode="Щ" horiz-adv-x="1773" d="M145 43v1278q0 20 8.5 29.5t30.5 9.5h154q37 0 37 -39v-1116h383v1114q0 41 39 41h155q39 0 39 -41v-1116h381v1118q0 20 8.5 29.5t30.5 9.5h154q37 0 37 -39v-1112l100 -10q39 -7 35 -54l-23 -403q-1 -34 -8.5 -44.5t-28.5 -10.5h-121q-22 0 -28.5 9t-9.5 42l-13 262 h-1321q-22 0 -30.5 10.5t-8.5 32.5z"/>
<glyph unicode="Ъ" horiz-adv-x="1468" d="M12 1192v127q0 20 8.5 28.5t30.5 8.5h588q39 0 39 -39v-500h268q104 0 185 -25.5t129.5 -65.5t79 -96.5t42 -111t11.5 -115.5q0 -100 -36 -178t-98 -126.5t-142 -73.5t-173 -25h-459q-23 0 -32 9t-9 28v1118h-391q-24 0 -32.5 8.5t-8.5 28.5zM678 197h250q107 0 169 53.5 t62 155.5q0 101 -53 160t-166 59h-262v-428z"/>
<glyph unicode="Ы" horiz-adv-x="1609" d="M139 37v1282q0 39 41 39h154q39 0 39 -39v-500h268q87 0 157 -17.5t118 -49t82 -71t53 -87.5t27.5 -94.5t8.5 -96.5q0 -99 -35.5 -177t-97.5 -127t-142 -74t-173 -25h-459q-23 0 -32 9t-9 28zM373 197h250q107 0 169 53.5t62 155.5q0 219 -219 219h-262v-428zM1235 39 v1280q0 41 41 41h154q38 0 38 -41v-1280q0 -39 -38 -39h-154q-41 0 -41 39z"/>
<glyph unicode="Ь" horiz-adv-x="1148" d="M139 37v1282q0 39 41 39h154q39 0 39 -39v-500h268q87 0 157 -17.5t118 -49t82 -71t53 -87.5t27.5 -94.5t8.5 -96.5q0 -99 -35.5 -177t-97.5 -127t-142 -74t-173 -25h-459q-23 0 -32 9t-9 28zM373 197h250q107 0 169 53.5t62 155.5q0 219 -219 219h-262v-428z"/>
<glyph unicode="Э" horiz-adv-x="1157" d="M102 106l19 80q6 23 17.5 28.5t35.5 2.5q160 -24 332 -24q73 0 129.5 20.5t93 56t60.5 88.5t35 111.5t14 132.5h-486q-39 0 -39 37v119q0 39 39 39h484q-3 66 -12 116.5t-29 99t-52 79.5t-83.5 50t-120.5 19q-145 0 -316 -24q-16 -2 -27 -1.5t-18 8t-10 23.5l-16 82 q-9 48 36 64q69 30 172 44.5t191 14.5q98 0 177.5 -20.5t135 -54.5t96 -86.5t65 -108.5t38.5 -128.5t19 -138.5t5 -147q0 -115 -14 -210.5t-52.5 -189.5t-100 -159t-164.5 -105t-238 -40q-90 0 -196.5 14t-180.5 43q-48 19 -39 65z"/>
<glyph unicode="Ю" horiz-adv-x="1712" d="M145 39v1280q0 41 39 41h154q37 0 37 -41v-506h153q5 58 13.5 109t26.5 109.5t43 106t65.5 93t92 76t123.5 49t159 18.5q100 0 180.5 -21t136 -55.5t96.5 -87.5t64.5 -108t37.5 -127.5t18.5 -136.5t4.5 -142q0 -79 -3.5 -140t-16 -138.5t-34.5 -135.5t-62.5 -117.5 t-96 -97t-138.5 -61.5t-187 -24q-94 0 -170.5 20t-129.5 52.5t-93 82t-63.5 101.5t-39 119t-21.5 125.5t-8 129.5h-151v-573q0 -39 -37 -39h-154q-21 0 -30 9t-9 30zM766 676q0 -96 8 -169.5t27 -136t51.5 -102.5t82 -62t116.5 -22q166 0 233.5 121.5t67.5 370.5 q0 104 -8 179.5t-28 138t-54.5 101t-86.5 59t-124 20.5q-83 0 -139 -32.5t-88 -99t-45 -154t-13 -212.5z"/>
<glyph unicode="Я" horiz-adv-x="1181" d="M72.5 13q-7.5 13 1.5 38l106 355q25 82 58.5 135t87.5 84q-99 33 -149 124t-50 199q0 102 37 183t99 130t137.5 74t158.5 25h440q41 0 41 -39v-1282q0 -21 -9 -30t-32 -9h-151q-39 0 -39 41v524h-193q-71 -2 -123 -41t-83 -139l-101 -336q-9 -30 -22 -39.5t-45 -9.5h-131 q-31 0 -38.5 13zM367 954q0 -50 14.5 -86.5t36 -57.5t53.5 -33.5t61 -16.5t64 -4h213v401h-219q-40 0 -77.5 -10.5t-71 -33t-54 -63.5t-20.5 -96z"/>
<glyph unicode="а" horiz-adv-x="1105" d="M86 274q-1 178 94 260t291 82h262v54q0 94 -44.5 130t-168.5 36q-83 0 -278 -19q-31 -5 -42.5 -0.5t-15.5 25.5l-18 76q-3 22 6 35t41 26q61 21 162.5 33t183.5 12q87 0 152 -11.5t108.5 -35.5t71 -54t41.5 -75.5t19 -90.5t5 -108v-395q0 -60 12 -74t62 -20q23 -2 31 -8 t8 -23v-86q0 -35 -49 -43q-55 -10 -96 -10q-76 0 -119 28t-57 97l-5 2q-80 -61 -178.5 -97t-197.5 -36q-154 0 -217.5 75t-63.5 215zM313 285q0 -67 27.5 -93t99.5 -26q61 0 143 29t148 67v195h-250q-83 0 -125.5 -38t-42.5 -134z"/>
<glyph unicode="б" horiz-adv-x="1073" d="M96 498q0 177 11 304.5t45 231.5q66 205 243 301q23 12 50 23.5t62.5 22.5t59.5 18.5t70 19t64 15.5t70.5 16t62.5 14q21 5 31 -1t16 -27l22 -82q8 -17 6 -38t-24 -26q-112 -25 -191 -45q-200 -53 -276.5 -130.5t-91.5 -250.5q2 0 2 -2q95 101 270 101q87 0 154.5 -25 t111.5 -68.5t72.5 -106.5t40.5 -133.5t12 -154.5q0 -63 -7 -117t-24 -112.5t-50 -103.5t-81.5 -81.5t-122 -56.5t-167.5 -20q-81 0 -146 15.5t-110.5 42t-79.5 66t-53.5 82t-31.5 97t-16 103.5t-4 108zM326 459q0 -48 4.5 -84.5t18 -75t36 -63t62 -40.5t92.5 -16 q70 0 116 23t68 67t29.5 90t7.5 111q0 54 -4 94t-17 80.5t-34.5 66.5t-59 42t-88.5 16q-59 0 -102.5 -19.5t-67.5 -48.5t-38.5 -72.5t-18.5 -82.5t-4 -88z"/>
<glyph unicode="в" horiz-adv-x="1038" d="M104 43v922q0 22 10 30.5t36 8.5h436q173 0 257.5 -72t84.5 -201q0 -52 -27 -109t-92 -92q42 -18 72.5 -47t46 -62.5t22 -63.5t6.5 -60q0 -133 -100.5 -215t-245.5 -82h-454q-29 0 -40.5 10.5t-11.5 32.5zM326 184h239q87 0 125.5 38.5t38.5 86.5q0 57 -34 94t-107 37 h-262v-256zM326 600h245q58 0 93.5 33.5t35.5 81.5q0 46 -33 76t-110 30h-231v-221z"/>
<glyph unicode="г" horiz-adv-x="897" d="M106 39v922q0 43 48 43h675q22 0 29.5 -9.5t7.5 -33.5v-103q0 -26 -8.5 -34.5t-30.5 -8.5h-495v-776q0 -21 -9 -30t-36 -9h-131q-26 0 -38 8.5t-12 30.5z"/>
<glyph unicode="д" horiz-adv-x="1208" d="M23 129q0 37 40 47l56 8q60 38 87 109.5t50 214.5l63 407q10 47 42 68t92 21h542q27 0 41.5 -15.5t14.5 -40.5v-764l65 -8q39 -5 39 -47q0 -6 -1 -17t-1 -16q-18 -316 -18 -319q-1 -30 -11 -40.5t-30 -10.5h-107q-22 0 -29.5 9.5t-9.5 37.5l-8 227h-704l-19 -227 q-3 -28 -10 -37.5t-23 -9.5h-118q-20 0 -26.5 9.5t-8.5 39.5q-8 234 -8 354zM383 188h444v625h-313q-39 -321 -65 -442.5t-66 -182.5z"/>
<glyph unicode="е" horiz-adv-x="1040" d="M90 498q0 50 3 92.5t14 98t29 100.5t51 90.5t77.5 76t111.5 49.5t150 19q106 0 185.5 -27.5t126 -70t75.5 -105.5t39.5 -122.5t12.5 -133.5q2 -60 -20.5 -92.5t-80.5 -32.5h-542q4 -151 60.5 -207.5t186.5 -56.5q43 0 267 23q30 3 40.5 -2t14.5 -33l12 -68 q5 -25 -1.5 -38.5t-33.5 -24.5q-58 -22 -154 -36.5t-175 -14.5q-82 0 -148 15t-112 40.5t-80.5 64.5t-55 81t-33 97t-16.5 105.5t-4 112.5zM324 594h405q0 52 -8.5 92t-29 77t-62.5 57t-103 20q-108 0 -151 -60.5t-51 -185.5z"/>
</font>
</defs>
</svg>
